G04 #@! TF.GenerationSoftware,KiCad,Pcbnew,6.0.7*
G04 #@! TF.CreationDate,2022-10-22T12:42:31-05:00*
G04 #@! TF.ProjectId,EsquemaGeneral,45737175-656d-4614-9765-6e6572616c2e,rev?*
G04 #@! TF.SameCoordinates,Original*
G04 #@! TF.FileFunction,Legend,Bot*
G04 #@! TF.FilePolarity,Positive*
%FSLAX46Y46*%
G04 Gerber Fmt 4.6, Leading zero omitted, Abs format (unit mm)*
G04 Created by KiCad (PCBNEW 6.0.7) date 2022-10-22 12:42:31*
%MOMM*%
%LPD*%
G01*
G04 APERTURE LIST*
G04 Aperture macros list*
%AMRoundRect*
0 Rectangle with rounded corners*
0 $1 Rounding radius*
0 $2 $3 $4 $5 $6 $7 $8 $9 X,Y pos of 4 corners*
0 Add a 4 corners polygon primitive as box body*
4,1,4,$2,$3,$4,$5,$6,$7,$8,$9,$2,$3,0*
0 Add four circle primitives for the rounded corners*
1,1,$1+$1,$2,$3*
1,1,$1+$1,$4,$5*
1,1,$1+$1,$6,$7*
1,1,$1+$1,$8,$9*
0 Add four rect primitives between the rounded corners*
20,1,$1+$1,$2,$3,$4,$5,0*
20,1,$1+$1,$4,$5,$6,$7,0*
20,1,$1+$1,$6,$7,$8,$9,0*
20,1,$1+$1,$8,$9,$2,$3,0*%
G04 Aperture macros list end*
%ADD10C,0.150000*%
%ADD11C,0.300000*%
%ADD12C,0.200000*%
%ADD13C,0.120000*%
%ADD14RoundRect,0.250000X-0.725000X0.600000X-0.725000X-0.600000X0.725000X-0.600000X0.725000X0.600000X0*%
%ADD15O,1.950000X1.700000*%
%ADD16R,1.700000X1.700000*%
%ADD17O,1.700000X1.700000*%
%ADD18C,2.200000*%
%ADD19RoundRect,0.250000X0.600000X0.725000X-0.600000X0.725000X-0.600000X-0.725000X0.600000X-0.725000X0*%
%ADD20O,1.700000X1.950000*%
%ADD21C,1.440000*%
%ADD22C,3.200000*%
%ADD23R,1.500000X1.500000*%
%ADD24C,1.500000*%
%ADD25C,1.100000*%
%ADD26O,1.900000X3.500000*%
%ADD27RoundRect,0.250000X-0.750000X0.600000X-0.750000X-0.600000X0.750000X-0.600000X0.750000X0.600000X0*%
%ADD28O,2.000000X1.700000*%
G04 APERTURE END LIST*
D10*
X79633333Y-122852380D02*
X79633333Y-123566666D01*
X79680952Y-123709523D01*
X79776190Y-123804761D01*
X79919047Y-123852380D01*
X80014285Y-123852380D01*
X79204761Y-122947619D02*
X79157142Y-122900000D01*
X79061904Y-122852380D01*
X78823809Y-122852380D01*
X78728571Y-122900000D01*
X78680952Y-122947619D01*
X78633333Y-123042857D01*
X78633333Y-123138095D01*
X78680952Y-123280952D01*
X79252380Y-123852380D01*
X78633333Y-123852380D01*
D11*
X97508000Y-77234285D02*
X97435428Y-77306857D01*
X97508000Y-77379428D01*
X97580571Y-77306857D01*
X97508000Y-77234285D01*
X97508000Y-77379428D01*
X97508000Y-76436000D02*
X97435428Y-76508571D01*
X97508000Y-76581142D01*
X97580571Y-76508571D01*
X97508000Y-76436000D01*
X97508000Y-76581142D01*
X96927428Y-77960000D02*
X96854857Y-77887428D01*
X96709714Y-77669714D01*
X96637142Y-77524571D01*
X96564571Y-77306857D01*
X96492000Y-76944000D01*
X96492000Y-76653714D01*
X96564571Y-76290857D01*
X96637142Y-76073142D01*
X96709714Y-75928000D01*
X96854857Y-75710285D01*
X96927428Y-75637714D01*
D12*
X120707142Y-107493809D02*
X119992857Y-107731904D01*
X118802380Y-107731904D01*
X118326190Y-107493809D01*
X118088095Y-107255714D01*
X117850000Y-106779523D01*
X117850000Y-106303333D01*
X118088095Y-105827142D01*
X118326190Y-105589047D01*
X118802380Y-105350952D01*
X119754761Y-105112857D01*
X120230952Y-104874761D01*
X120469047Y-104636666D01*
X120707142Y-104160476D01*
X120707142Y-103684285D01*
X120469047Y-103208095D01*
X120230952Y-102970000D01*
X119754761Y-102731904D01*
X118564285Y-102731904D01*
X117850000Y-102970000D01*
X115707142Y-107731904D02*
X115707142Y-104398571D01*
X115707142Y-104874761D02*
X115469047Y-104636666D01*
X114992857Y-104398571D01*
X114278571Y-104398571D01*
X113802380Y-104636666D01*
X113564285Y-105112857D01*
X113564285Y-107731904D01*
X113564285Y-105112857D02*
X113326190Y-104636666D01*
X112850000Y-104398571D01*
X112135714Y-104398571D01*
X111659523Y-104636666D01*
X111421428Y-105112857D01*
X111421428Y-107731904D01*
X106897619Y-107731904D02*
X106897619Y-105112857D01*
X107135714Y-104636666D01*
X107611904Y-104398571D01*
X108564285Y-104398571D01*
X109040476Y-104636666D01*
X106897619Y-107493809D02*
X107373809Y-107731904D01*
X108564285Y-107731904D01*
X109040476Y-107493809D01*
X109278571Y-107017619D01*
X109278571Y-106541428D01*
X109040476Y-106065238D01*
X108564285Y-105827142D01*
X107373809Y-105827142D01*
X106897619Y-105589047D01*
X104516666Y-107731904D02*
X104516666Y-104398571D01*
X104516666Y-105350952D02*
X104278571Y-104874761D01*
X104040476Y-104636666D01*
X103564285Y-104398571D01*
X103088095Y-104398571D01*
X102135714Y-104398571D02*
X100230952Y-104398571D01*
X101421428Y-102731904D02*
X101421428Y-107017619D01*
X101183333Y-107493809D01*
X100707142Y-107731904D01*
X100230952Y-107731904D01*
X96897619Y-105112857D02*
X96183333Y-105350952D01*
X95945238Y-105589047D01*
X95707142Y-106065238D01*
X95707142Y-106779523D01*
X95945238Y-107255714D01*
X96183333Y-107493809D01*
X96659523Y-107731904D01*
X98564285Y-107731904D01*
X98564285Y-102731904D01*
X96897619Y-102731904D01*
X96421428Y-102970000D01*
X96183333Y-103208095D01*
X95945238Y-103684285D01*
X95945238Y-104160476D01*
X96183333Y-104636666D01*
X96421428Y-104874761D01*
X96897619Y-105112857D01*
X98564285Y-105112857D01*
X93564285Y-107731904D02*
X93564285Y-104398571D01*
X93564285Y-102731904D02*
X93802380Y-102970000D01*
X93564285Y-103208095D01*
X93326190Y-102970000D01*
X93564285Y-102731904D01*
X93564285Y-103208095D01*
X91183333Y-107731904D02*
X91183333Y-102731904D01*
X90707142Y-105827142D02*
X89278571Y-107731904D01*
X89278571Y-104398571D02*
X91183333Y-106303333D01*
X85230952Y-107493809D02*
X85707142Y-107731904D01*
X86659523Y-107731904D01*
X87135714Y-107493809D01*
X87373809Y-107017619D01*
X87373809Y-105112857D01*
X87135714Y-104636666D01*
X86659523Y-104398571D01*
X85707142Y-104398571D01*
X85230952Y-104636666D01*
X84992857Y-105112857D01*
X84992857Y-105589047D01*
X87373809Y-106065238D01*
D13*
X78330000Y-121650000D02*
X85740000Y-121650000D01*
X85740000Y-121650000D02*
X85740000Y-120430000D01*
X82540000Y-116220000D02*
X79730000Y-116220000D01*
X78330000Y-113930000D02*
X78330000Y-121650000D01*
X79730000Y-116860000D02*
X82540000Y-116860000D01*
X82540000Y-116860000D02*
X82540000Y-116540000D01*
X79590000Y-119040000D02*
X79730000Y-119360000D01*
X85740000Y-120430000D02*
X83540000Y-120430000D01*
X82540000Y-118720000D02*
X79730000Y-118720000D01*
X83540000Y-120430000D02*
X83540000Y-121650000D01*
X83540000Y-115150000D02*
X85740000Y-115150000D01*
X85630000Y-116540000D02*
X86230000Y-116240000D01*
X83540000Y-117710000D02*
X83540000Y-117870000D01*
X79730000Y-118720000D02*
X79590000Y-119040000D01*
X79430000Y-115150000D02*
X83540000Y-115150000D01*
X86230000Y-116840000D02*
X85630000Y-116540000D01*
X79530000Y-116540000D02*
X79730000Y-116860000D01*
X79330000Y-120430000D02*
X83540000Y-120430000D01*
X82540000Y-116540000D02*
X82540000Y-116220000D01*
X82540000Y-115150000D02*
X82540000Y-120430000D01*
X82540000Y-119360000D02*
X82540000Y-119040000D01*
X83540000Y-115150000D02*
X83540000Y-113930000D01*
X79330000Y-121650000D02*
X79330000Y-120430000D01*
X85740000Y-113930000D02*
X78330000Y-113930000D01*
X79730000Y-116220000D02*
X79530000Y-116540000D01*
X85740000Y-115150000D02*
X85740000Y-113930000D01*
X86230000Y-116240000D02*
X86230000Y-116840000D01*
X82540000Y-119040000D02*
X82540000Y-118720000D01*
X79730000Y-119360000D02*
X82540000Y-119360000D01*
X79430000Y-113940000D02*
X79430000Y-115150000D01*
G36*
X118605165Y-84835813D02*
G01*
X119550014Y-86315536D01*
X119951082Y-87358210D01*
X120200456Y-88962276D01*
X120179298Y-89203070D01*
X120059725Y-90563935D01*
X119556717Y-92088370D01*
X118719262Y-93460762D01*
X117575188Y-94606294D01*
X116152326Y-95450147D01*
X115938007Y-95537822D01*
X114307498Y-95936357D01*
X112624534Y-95908137D01*
X110953426Y-95461179D01*
X109358481Y-94603495D01*
X109091672Y-94425912D01*
X108643994Y-94165658D01*
X108437297Y-94103721D01*
X108298085Y-94296292D01*
X107963972Y-94760290D01*
X107513936Y-95386109D01*
X107077375Y-95957695D01*
X106561225Y-96554662D01*
X106173498Y-96916913D01*
X106003275Y-97025479D01*
X105187364Y-97261319D01*
X104344694Y-97044790D01*
X103475003Y-96375772D01*
X102578025Y-95254142D01*
X102275135Y-94806892D01*
X101950790Y-94331100D01*
X101800108Y-94114508D01*
X101757482Y-94113981D01*
X101454708Y-94277916D01*
X100974205Y-94617759D01*
X100185407Y-95143963D01*
X98724048Y-95741582D01*
X97081608Y-95950270D01*
X96145374Y-95914412D01*
X94450129Y-95547768D01*
X92987608Y-94793405D01*
X91768385Y-93657728D01*
X90803033Y-92147140D01*
X90656573Y-91846134D01*
X90348784Y-91136367D01*
X90191436Y-90532286D01*
X90149336Y-89848215D01*
X90165938Y-89432786D01*
X91780154Y-89432786D01*
X92022859Y-90791034D01*
X92626830Y-92039723D01*
X93560327Y-93097846D01*
X94791607Y-93884394D01*
X95260927Y-94067084D01*
X96644128Y-94298745D01*
X98046369Y-94132643D01*
X99367270Y-93589740D01*
X100506452Y-92690996D01*
X100529058Y-92667030D01*
X100932217Y-92095026D01*
X103084058Y-92095026D01*
X103162598Y-92737615D01*
X103435354Y-93468315D01*
X103440125Y-93477730D01*
X103869340Y-94169850D01*
X104384927Y-94817768D01*
X104481403Y-94918576D01*
X104885015Y-95290824D01*
X105132627Y-95441428D01*
X105257359Y-95387164D01*
X105619113Y-95046889D01*
X106076465Y-94490236D01*
X106540676Y-93829450D01*
X106923008Y-93176775D01*
X106980914Y-93057469D01*
X107201362Y-92383998D01*
X107224236Y-91833012D01*
X107061408Y-91504907D01*
X106724749Y-91500077D01*
X106444901Y-91597190D01*
X105742531Y-91723037D01*
X104963120Y-91767191D01*
X104279978Y-91724265D01*
X103866416Y-91588877D01*
X103817753Y-91550450D01*
X103431235Y-91415991D01*
X103180137Y-91626000D01*
X103084058Y-92095026D01*
X100932217Y-92095026D01*
X101392080Y-91442569D01*
X101848635Y-90091973D01*
X101873119Y-89366747D01*
X104254794Y-89366747D01*
X104432444Y-89888123D01*
X104543436Y-90001644D01*
X105086358Y-90227088D01*
X105651506Y-90100868D01*
X105966045Y-89755421D01*
X108433048Y-89755421D01*
X108745032Y-91055830D01*
X109167005Y-91833012D01*
X109392145Y-92247672D01*
X110357238Y-93254956D01*
X111623162Y-94001688D01*
X112152135Y-94170187D01*
X113353027Y-94303116D01*
X114609008Y-94186893D01*
X115712216Y-93830234D01*
X116756950Y-93155357D01*
X117708067Y-92079593D01*
X118292031Y-90752102D01*
X118490714Y-89203070D01*
X118402276Y-88288896D01*
X117938299Y-86957956D01*
X117135533Y-85807702D01*
X116060481Y-84904242D01*
X114779643Y-84313686D01*
X113359522Y-84102143D01*
X113178562Y-84103878D01*
X112780486Y-84158161D01*
X112636753Y-84355429D01*
X112726893Y-84784853D01*
X113030433Y-85535602D01*
X113270851Y-86031073D01*
X113645035Y-86488477D01*
X114132489Y-86699351D01*
X114168264Y-86707878D01*
X114791617Y-86995928D01*
X115368021Y-87458251D01*
X115510673Y-87622109D01*
X116019445Y-88544114D01*
X116097288Y-89167443D01*
X116137747Y-89491421D01*
X115903276Y-90377989D01*
X115353728Y-91117778D01*
X114526799Y-91624747D01*
X113460184Y-91812857D01*
X112593750Y-91709740D01*
X111741770Y-91267336D01*
X111118883Y-90449638D01*
X111034534Y-90277822D01*
X110811661Y-89527551D01*
X110848372Y-89148069D01*
X112513168Y-89148069D01*
X112737646Y-89745750D01*
X112811284Y-89841841D01*
X113315909Y-90182441D01*
X113836637Y-90153705D01*
X114244011Y-89800437D01*
X114408571Y-89167443D01*
X114399306Y-89042340D01*
X114139245Y-88550614D01*
X113643014Y-88303866D01*
X113074538Y-88396792D01*
X112730976Y-88645621D01*
X112513168Y-89148069D01*
X110848372Y-89148069D01*
X110885537Y-88763892D01*
X111264906Y-87829999D01*
X111422851Y-87505460D01*
X111610350Y-86991161D01*
X111599665Y-86560591D01*
X111407398Y-86000573D01*
X111329933Y-85817314D01*
X111060208Y-85308525D01*
X110842504Y-85067918D01*
X110694939Y-85104456D01*
X110292399Y-85382716D01*
X109784056Y-85851968D01*
X109679359Y-85962721D01*
X108976227Y-86995970D01*
X108883063Y-87132874D01*
X108473342Y-88422438D01*
X108455434Y-89014866D01*
X108433048Y-89755421D01*
X105966045Y-89755421D01*
X106063145Y-89648779D01*
X106155814Y-89421333D01*
X106171776Y-89014866D01*
X105858151Y-88604501D01*
X105462652Y-88316166D01*
X104910753Y-88289051D01*
X104757818Y-88358529D01*
X104468279Y-88691009D01*
X104383877Y-88787929D01*
X104254794Y-89366747D01*
X101873119Y-89366747D01*
X101895932Y-88691009D01*
X101531178Y-87315444D01*
X100751579Y-86041047D01*
X100358321Y-85581601D01*
X99838568Y-85092798D01*
X99460208Y-84976664D01*
X99159773Y-85226216D01*
X98873798Y-85834471D01*
X98693676Y-86325794D01*
X98594216Y-86792419D01*
X98679596Y-87191635D01*
X98959079Y-87729265D01*
X99174141Y-88158323D01*
X99392569Y-89014866D01*
X99444488Y-89218461D01*
X99276745Y-90174773D01*
X98669642Y-91041785D01*
X98630395Y-91080852D01*
X98079136Y-91551278D01*
X97546357Y-91761745D01*
X96798660Y-91807814D01*
X96784134Y-91807725D01*
X95676933Y-91628306D01*
X94875694Y-91115341D01*
X94388803Y-90277570D01*
X94259216Y-89366747D01*
X95863722Y-89366747D01*
X96041372Y-89888123D01*
X96152365Y-90001644D01*
X96695287Y-90227088D01*
X97260434Y-90100868D01*
X97672073Y-89648779D01*
X97764742Y-89421333D01*
X97780705Y-89014866D01*
X97467080Y-88604501D01*
X97071581Y-88316166D01*
X96519681Y-88289051D01*
X96366746Y-88358529D01*
X95992805Y-88787929D01*
X95863722Y-89366747D01*
X94259216Y-89366747D01*
X94224642Y-89123738D01*
X94261420Y-88714971D01*
X94607487Y-87812491D01*
X95239950Y-87100245D01*
X96062483Y-86705005D01*
X96443256Y-86572738D01*
X96834998Y-86214197D01*
X97190281Y-85535602D01*
X97378893Y-85086663D01*
X97576003Y-84494967D01*
X97522331Y-84196725D01*
X97179219Y-84114642D01*
X96508010Y-84171424D01*
X95438742Y-84382719D01*
X94088843Y-84987042D01*
X93015404Y-85948051D01*
X92202628Y-87277143D01*
X91930459Y-88045986D01*
X91780154Y-89432786D01*
X90165938Y-89432786D01*
X90187291Y-88898475D01*
X90204243Y-88632980D01*
X90322233Y-87602206D01*
X90534106Y-86815393D01*
X90882454Y-86101158D01*
X90969991Y-85954557D01*
X92050773Y-84530720D01*
X93332954Y-83505229D01*
X94324534Y-83081607D01*
X99925139Y-83081607D01*
X100528473Y-83535178D01*
X100591909Y-83583767D01*
X101185872Y-84088592D01*
X101777567Y-84654806D01*
X101967798Y-84868510D01*
X102495278Y-85585128D01*
X102954062Y-86355699D01*
X103279258Y-86931769D01*
X103494929Y-87145070D01*
X103632877Y-87016088D01*
X103637857Y-86995970D01*
X103578644Y-86639239D01*
X103575811Y-86630165D01*
X106417657Y-86630165D01*
X106430066Y-86771650D01*
X106697857Y-86984979D01*
X106808713Y-86976369D01*
X107168724Y-86676337D01*
X107588244Y-86018725D01*
X107844434Y-85598882D01*
X108469058Y-84788582D01*
X109154363Y-84083278D01*
X110170273Y-83189038D01*
X109868085Y-82273400D01*
X109710049Y-81806977D01*
X109484898Y-81260107D01*
X109272047Y-81015114D01*
X109032818Y-81094793D01*
X108728531Y-81521940D01*
X108320507Y-82319347D01*
X107770067Y-83509811D01*
X107637955Y-83800935D01*
X107176305Y-84831040D01*
X106794667Y-85702177D01*
X106529599Y-86330000D01*
X106417657Y-86630165D01*
X103575811Y-86630165D01*
X103374651Y-85985813D01*
X103063189Y-85126120D01*
X102681570Y-84150589D01*
X102267105Y-83149648D01*
X101857103Y-82213726D01*
X101488878Y-81433251D01*
X101199738Y-80898652D01*
X101026996Y-80700357D01*
X100914556Y-80810586D01*
X100675358Y-81243018D01*
X100393655Y-81890982D01*
X99925139Y-83081607D01*
X94324534Y-83081607D01*
X94852176Y-82856188D01*
X96644083Y-82561700D01*
X97617231Y-82464454D01*
X98286078Y-82299966D01*
X98507065Y-82077358D01*
X98279144Y-81797120D01*
X98119312Y-81718235D01*
X97446380Y-81613680D01*
X96521022Y-81655528D01*
X95465972Y-81826281D01*
X94403964Y-82108440D01*
X93457734Y-82484507D01*
X93198593Y-82610618D01*
X92318953Y-82999249D01*
X91738106Y-83161902D01*
X91386459Y-83109963D01*
X91194417Y-82854821D01*
X91125697Y-82517062D01*
X91275651Y-82114185D01*
X91747564Y-81696637D01*
X92595706Y-81200342D01*
X93686418Y-80708295D01*
X95716723Y-80176160D01*
X97867733Y-80065655D01*
X99291503Y-80133393D01*
X99428459Y-79793214D01*
X102621433Y-79793214D01*
X103202361Y-81097232D01*
X103459989Y-81680755D01*
X103930431Y-82762976D01*
X104357264Y-83761964D01*
X104646580Y-84433472D01*
X104891596Y-84973294D01*
X105017829Y-85214203D01*
X105067712Y-85176971D01*
X105280460Y-84818722D01*
X105626193Y-84137201D01*
X106075746Y-83192813D01*
X106599959Y-82045962D01*
X107169667Y-80757053D01*
X107588881Y-79793214D01*
X102621433Y-79793214D01*
X99428459Y-79793214D01*
X100283937Y-77668335D01*
X100648927Y-76724442D01*
X100938613Y-75898197D01*
X101109584Y-75314180D01*
X101133212Y-75060299D01*
X101125669Y-75054193D01*
X100812692Y-74979890D01*
X100183404Y-74918691D01*
X99364936Y-74883318D01*
X99321291Y-74882399D01*
X98481664Y-74862396D01*
X97812910Y-74842404D01*
X97456339Y-74826622D01*
X97450664Y-74826116D01*
X97209113Y-74627385D01*
X97179122Y-74214467D01*
X97336346Y-73757633D01*
X97656440Y-73427152D01*
X97870400Y-73335453D01*
X98706981Y-73178395D01*
X99738548Y-73174421D01*
X100795583Y-73316416D01*
X101708571Y-73597261D01*
X102204624Y-73826333D01*
X102813419Y-74198508D01*
X103069572Y-74606175D01*
X103022807Y-75167068D01*
X102722845Y-75998925D01*
X102651072Y-76173712D01*
X102305565Y-76999096D01*
X102106031Y-77566591D01*
X102103589Y-77923912D01*
X102349356Y-78118771D01*
X102894450Y-78198881D01*
X103789991Y-78211958D01*
X105087095Y-78205714D01*
X106241155Y-78202016D01*
X107167783Y-78183379D01*
X107782594Y-78140167D01*
X108160391Y-78062777D01*
X108375979Y-77941607D01*
X108504163Y-77767052D01*
X108614215Y-77554948D01*
X108702131Y-77242666D01*
X108494009Y-77099826D01*
X107911450Y-77028779D01*
X107833325Y-77020931D01*
X107134849Y-76804789D01*
X106758623Y-76394555D01*
X106768040Y-75855289D01*
X107001978Y-75690036D01*
X107591754Y-75553253D01*
X108416750Y-75469934D01*
X109362695Y-75440078D01*
X110315317Y-75463686D01*
X111160345Y-75540757D01*
X111783507Y-75671291D01*
X112070531Y-75855289D01*
X112093062Y-76330727D01*
X111779946Y-76788494D01*
X111199699Y-77025743D01*
X110720555Y-77219766D01*
X110368616Y-77747301D01*
X110287854Y-78519942D01*
X110501280Y-79457573D01*
X110609876Y-79742287D01*
X110635246Y-79793214D01*
X110837806Y-80199824D01*
X111082524Y-80353936D01*
X111449880Y-80298452D01*
X111469627Y-80293225D01*
X112001881Y-80218580D01*
X112810362Y-80172138D01*
X113728214Y-80163764D01*
X113917818Y-80168769D01*
X115187456Y-80303427D01*
X116406824Y-80589024D01*
X117495394Y-80990431D01*
X118372642Y-81472519D01*
X118958043Y-82000159D01*
X119171071Y-82538220D01*
X119057553Y-82947905D01*
X118676658Y-83096098D01*
X118000927Y-82955169D01*
X117003176Y-82524952D01*
X116909059Y-82479306D01*
X115322602Y-81895179D01*
X113730986Y-81628355D01*
X112271426Y-81702681D01*
X111911584Y-81784184D01*
X111609312Y-81949027D01*
X111640493Y-82196444D01*
X111676439Y-82247557D01*
X111992289Y-82422994D01*
X112620077Y-82533452D01*
X113629862Y-82592895D01*
X114215591Y-82629651D01*
X115937390Y-82992516D01*
X116328395Y-83189038D01*
X117400769Y-83728021D01*
X118605165Y-84835813D01*
G37*
%LPC*%
D14*
X80530000Y-87550000D03*
D15*
X80530000Y-90050000D03*
X80530000Y-92550000D03*
X80530000Y-95050000D03*
D16*
X137520000Y-77360000D03*
D17*
X137520000Y-79900000D03*
D18*
X81850000Y-45130000D03*
D16*
X171450000Y-83820000D03*
D17*
X171450000Y-86360000D03*
X171450000Y-88900000D03*
D19*
X172940000Y-134370000D03*
D20*
X170440000Y-134370000D03*
X167940000Y-134370000D03*
X165440000Y-134370000D03*
X162940000Y-134370000D03*
X160440000Y-134370000D03*
X157940000Y-134370000D03*
X155440000Y-134370000D03*
D21*
X135565000Y-104110000D03*
X133025000Y-106650000D03*
X135565000Y-109190000D03*
D18*
X81540000Y-136830000D03*
D22*
X100920000Y-46490000D03*
X89490000Y-46490000D03*
D23*
X99650000Y-52840000D03*
D24*
X98380000Y-55380000D03*
X97110000Y-52840000D03*
X95840000Y-55380000D03*
X94570000Y-52840000D03*
X93300000Y-55380000D03*
X92030000Y-52840000D03*
X90760000Y-55380000D03*
D22*
X131687500Y-136680000D03*
X143117500Y-136680000D03*
D23*
X132957500Y-130330000D03*
D24*
X134227500Y-127790000D03*
X135497500Y-130330000D03*
X136767500Y-127790000D03*
X138037500Y-130330000D03*
X139307500Y-127790000D03*
X140577500Y-130330000D03*
X141847500Y-127790000D03*
D16*
X174480000Y-95350000D03*
D17*
X171940000Y-95350000D03*
X169400000Y-95350000D03*
X166860000Y-95350000D03*
X164320000Y-95350000D03*
X161780000Y-95350000D03*
D16*
X171889200Y-117642000D03*
D17*
X169349200Y-117642000D03*
X166809200Y-117642000D03*
X164269200Y-117642000D03*
X161729200Y-117642000D03*
X159189200Y-117642000D03*
D24*
X136275000Y-97630000D03*
X139675000Y-97630000D03*
D18*
X168690000Y-111920000D03*
D16*
X131150000Y-85730000D03*
D17*
X133690000Y-85730000D03*
D18*
X166700000Y-87130000D03*
D25*
X118510000Y-50390000D03*
X123110000Y-50390000D03*
D26*
X115110000Y-50390000D03*
X126510000Y-50390000D03*
D27*
X84130000Y-116540000D03*
D28*
X84130000Y-119040000D03*
M02*
