G04 #@! TF.GenerationSoftware,KiCad,Pcbnew,6.0.7*
G04 #@! TF.CreationDate,2022-10-22T12:42:31-05:00*
G04 #@! TF.ProjectId,EsquemaGeneral,45737175-656d-4614-9765-6e6572616c2e,rev?*
G04 #@! TF.SameCoordinates,Original*
G04 #@! TF.FileFunction,Paste,Top*
G04 #@! TF.FilePolarity,Positive*
%FSLAX46Y46*%
G04 Gerber Fmt 4.6, Leading zero omitted, Abs format (unit mm)*
G04 Created by KiCad (PCBNEW 6.0.7) date 2022-10-22 12:42:31*
%MOMM*%
%LPD*%
G01*
G04 APERTURE LIST*
G04 Aperture macros list*
%AMRoundRect*
0 Rectangle with rounded corners*
0 $1 Rounding radius*
0 $2 $3 $4 $5 $6 $7 $8 $9 X,Y pos of 4 corners*
0 Add a 4 corners polygon primitive as box body*
4,1,4,$2,$3,$4,$5,$6,$7,$8,$9,$2,$3,0*
0 Add four circle primitives for the rounded corners*
1,1,$1+$1,$2,$3*
1,1,$1+$1,$4,$5*
1,1,$1+$1,$6,$7*
1,1,$1+$1,$8,$9*
0 Add four rect primitives between the rounded corners*
20,1,$1+$1,$2,$3,$4,$5,0*
20,1,$1+$1,$4,$5,$6,$7,0*
20,1,$1+$1,$6,$7,$8,$9,0*
20,1,$1+$1,$8,$9,$2,$3,0*%
G04 Aperture macros list end*
%ADD10C,0.010000*%
%ADD11RoundRect,0.250000X0.350000X0.450000X-0.350000X0.450000X-0.350000X-0.450000X0.350000X-0.450000X0*%
%ADD12RoundRect,0.250000X0.337500X0.475000X-0.337500X0.475000X-0.337500X-0.475000X0.337500X-0.475000X0*%
%ADD13RoundRect,0.250000X0.475000X-0.337500X0.475000X0.337500X-0.475000X0.337500X-0.475000X-0.337500X0*%
%ADD14RoundRect,0.250000X-0.450000X0.350000X-0.450000X-0.350000X0.450000X-0.350000X0.450000X0.350000X0*%
%ADD15RoundRect,0.250000X-0.350000X-0.450000X0.350000X-0.450000X0.350000X0.450000X-0.350000X0.450000X0*%
%ADD16RoundRect,0.150000X-0.512500X-0.150000X0.512500X-0.150000X0.512500X0.150000X-0.512500X0.150000X0*%
%ADD17R,2.000000X0.900000*%
%ADD18R,1.330000X1.330000*%
%ADD19RoundRect,0.250000X1.950000X1.000000X-1.950000X1.000000X-1.950000X-1.000000X1.950000X-1.000000X0*%
%ADD20RoundRect,0.250000X-0.337500X-0.475000X0.337500X-0.475000X0.337500X0.475000X-0.337500X0.475000X0*%
%ADD21R,1.400000X1.000000*%
%ADD22RoundRect,0.002600X-0.127400X0.402400X-0.127400X-0.402400X0.127400X-0.402400X0.127400X0.402400X0*%
%ADD23RoundRect,0.002600X-0.402400X-0.127400X0.402400X-0.127400X0.402400X0.127400X-0.402400X0.127400X0*%
%ADD24RoundRect,0.250000X-0.875000X-0.925000X0.875000X-0.925000X0.875000X0.925000X-0.875000X0.925000X0*%
%ADD25RoundRect,0.250000X-0.450000X0.325000X-0.450000X-0.325000X0.450000X-0.325000X0.450000X0.325000X0*%
%ADD26R,1.500000X0.650000*%
%ADD27RoundRect,0.250000X-0.475000X0.337500X-0.475000X-0.337500X0.475000X-0.337500X0.475000X0.337500X0*%
%ADD28RoundRect,0.200000X0.800000X-0.200000X0.800000X0.200000X-0.800000X0.200000X-0.800000X-0.200000X0*%
%ADD29RoundRect,0.250000X0.325000X0.450000X-0.325000X0.450000X-0.325000X-0.450000X0.325000X-0.450000X0*%
%ADD30RoundRect,0.250000X-0.325000X-0.450000X0.325000X-0.450000X0.325000X0.450000X-0.325000X0.450000X0*%
%ADD31RoundRect,0.250000X0.400000X0.625000X-0.400000X0.625000X-0.400000X-0.625000X0.400000X-0.625000X0*%
%ADD32RoundRect,0.250000X0.425000X-0.537500X0.425000X0.537500X-0.425000X0.537500X-0.425000X-0.537500X0*%
%ADD33R,4.550000X5.250000*%
%ADD34R,4.600000X1.100000*%
%ADD35RoundRect,0.250000X0.450000X-0.350000X0.450000X0.350000X-0.450000X0.350000X-0.450000X-0.350000X0*%
%ADD36RoundRect,0.150000X0.150000X-0.512500X0.150000X0.512500X-0.150000X0.512500X-0.150000X-0.512500X0*%
%ADD37RoundRect,0.150000X0.587500X0.150000X-0.587500X0.150000X-0.587500X-0.150000X0.587500X-0.150000X0*%
%ADD38R,1.100000X2.500000*%
%ADD39RoundRect,0.042000X0.943000X0.258000X-0.943000X0.258000X-0.943000X-0.258000X0.943000X-0.258000X0*%
G04 APERTURE END LIST*
G36*
X121910000Y-61265000D02*
G01*
X120950111Y-61265000D01*
X120950111Y-60304070D01*
X121910000Y-60304070D01*
X121910000Y-61265000D01*
G37*
D10*
X121910000Y-61265000D02*
X120950111Y-61265000D01*
X120950111Y-60304070D01*
X121910000Y-60304070D01*
X121910000Y-61265000D01*
G36*
X120690000Y-62485000D02*
G01*
X119729670Y-62485000D01*
X119729670Y-61525039D01*
X120690000Y-61525039D01*
X120690000Y-62485000D01*
G37*
X120690000Y-62485000D02*
X119729670Y-62485000D01*
X119729670Y-61525039D01*
X120690000Y-61525039D01*
X120690000Y-62485000D01*
G36*
X121910000Y-62485000D02*
G01*
X120950200Y-62485000D01*
X120950200Y-61525200D01*
X121910000Y-61525200D01*
X121910000Y-62485000D01*
G37*
X121910000Y-62485000D02*
X120950200Y-62485000D01*
X120950200Y-61525200D01*
X121910000Y-61525200D01*
X121910000Y-62485000D01*
G36*
X120690000Y-61265000D02*
G01*
X119728120Y-61265000D01*
X119728120Y-60303120D01*
X120690000Y-60303120D01*
X120690000Y-61265000D01*
G37*
X120690000Y-61265000D02*
X119728120Y-61265000D01*
X119728120Y-60303120D01*
X120690000Y-60303120D01*
X120690000Y-61265000D01*
D11*
X142220000Y-120100000D03*
X140220000Y-120100000D03*
D12*
X120640000Y-68730000D03*
X118565000Y-68730000D03*
D13*
X84380000Y-110535000D03*
X84380000Y-108460000D03*
D14*
X123275000Y-103900000D03*
X123275000Y-105900000D03*
D15*
X118440000Y-138580000D03*
X120440000Y-138580000D03*
D12*
X93400000Y-122430000D03*
X91325000Y-122430000D03*
D16*
X99682500Y-110072500D03*
X99682500Y-111022500D03*
X99682500Y-111972500D03*
X101957500Y-111972500D03*
X101957500Y-110072500D03*
D17*
X150800000Y-49940000D03*
X150800000Y-51210000D03*
X150800000Y-52480000D03*
X150800000Y-53750000D03*
X150800000Y-55020000D03*
X150800000Y-56290000D03*
X150800000Y-57560000D03*
X150800000Y-58830000D03*
X150800000Y-60100000D03*
X150800000Y-61370000D03*
X150800000Y-62640000D03*
X150800000Y-63910000D03*
X150800000Y-65180000D03*
X150800000Y-66450000D03*
X150800000Y-67720000D03*
X150800000Y-68990000D03*
X150800000Y-70260000D03*
X150800000Y-71530000D03*
X150800000Y-72800000D03*
X167800000Y-72800000D03*
X167800000Y-71530000D03*
X167800000Y-70260000D03*
X167800000Y-68990000D03*
X167800000Y-67720000D03*
X167800000Y-66450000D03*
X167800000Y-65180000D03*
X167800000Y-63910000D03*
X167800000Y-62640000D03*
X167800000Y-61370000D03*
X167800000Y-60100000D03*
X167800000Y-58830000D03*
X167800000Y-57560000D03*
X167800000Y-56290000D03*
X167800000Y-55020000D03*
X167800000Y-53750000D03*
X167800000Y-52480000D03*
X167800000Y-51210000D03*
X167800000Y-49940000D03*
D18*
X156465000Y-55605000D03*
X156465000Y-57440000D03*
X156465000Y-59275000D03*
X158300000Y-59275000D03*
X160135000Y-59275000D03*
X160135000Y-57440000D03*
X160135000Y-55605000D03*
X158300000Y-55605000D03*
X158300000Y-57440000D03*
D19*
X92290000Y-131310000D03*
X84890000Y-131310000D03*
D12*
X118255000Y-105140000D03*
X116180000Y-105140000D03*
D20*
X135945000Y-51610000D03*
X138020000Y-51610000D03*
D21*
X117060000Y-72980000D03*
X117060000Y-74880000D03*
X119260000Y-73930000D03*
D11*
X118125000Y-101180000D03*
X116125000Y-101180000D03*
D15*
X147830000Y-120100000D03*
X149830000Y-120100000D03*
X132640000Y-80200000D03*
X134640000Y-80200000D03*
D22*
X122070000Y-59440000D03*
X121570000Y-59440000D03*
X121070000Y-59440000D03*
X120570000Y-59440000D03*
X120070000Y-59440000D03*
X119570000Y-59440000D03*
D23*
X118865000Y-60145000D03*
X118865000Y-60645000D03*
X118865000Y-61145000D03*
X118865000Y-61645000D03*
X118865000Y-62145000D03*
X118865000Y-62645000D03*
D22*
X119570000Y-63350000D03*
X120070000Y-63350000D03*
X120570000Y-63350000D03*
X121070000Y-63350000D03*
X121570000Y-63350000D03*
X122070000Y-63350000D03*
D23*
X122775000Y-62645000D03*
X122775000Y-62145000D03*
X122775000Y-61645000D03*
X122775000Y-61145000D03*
X122775000Y-60645000D03*
X122775000Y-60145000D03*
D24*
X96220000Y-122370000D03*
X101320000Y-122370000D03*
D13*
X131895000Y-98620000D03*
X131895000Y-96545000D03*
D12*
X92867500Y-138680000D03*
X90792500Y-138680000D03*
D25*
X130270000Y-78170000D03*
X130270000Y-80220000D03*
D15*
X131130000Y-55550000D03*
X133130000Y-55550000D03*
D14*
X128270000Y-66700000D03*
X128270000Y-68700000D03*
D26*
X119590000Y-119725000D03*
X119590000Y-120995000D03*
X119590000Y-122265000D03*
X119590000Y-123535000D03*
X124990000Y-123535000D03*
X124990000Y-122265000D03*
X124990000Y-120995000D03*
X124990000Y-119725000D03*
D27*
X102160000Y-114102500D03*
X102160000Y-116177500D03*
D14*
X158020000Y-87000000D03*
X158020000Y-89000000D03*
X150711500Y-87062000D03*
X150711500Y-89062000D03*
D15*
X124725000Y-93860000D03*
X126725000Y-93860000D03*
D11*
X109100000Y-66740000D03*
X107100000Y-66740000D03*
D28*
X145326400Y-74128600D03*
X145377200Y-66051400D03*
D29*
X138090000Y-58970000D03*
X136040000Y-58970000D03*
D11*
X166227000Y-76581000D03*
X164227000Y-76581000D03*
D15*
X107280000Y-48490000D03*
X109280000Y-48490000D03*
X107360000Y-52380000D03*
X109360000Y-52380000D03*
D28*
X145296400Y-63718600D03*
X145347200Y-55641400D03*
D11*
X138090000Y-55490000D03*
X136090000Y-55490000D03*
D14*
X161720000Y-86800000D03*
X161720000Y-88800000D03*
X124740000Y-66730000D03*
X124740000Y-68730000D03*
D30*
X110565000Y-101200000D03*
X112615000Y-101200000D03*
D14*
X95580000Y-63830000D03*
X95580000Y-65830000D03*
D31*
X102580000Y-138650000D03*
X99480000Y-138650000D03*
D27*
X114190000Y-60240000D03*
X114190000Y-62315000D03*
D14*
X145650000Y-82520000D03*
X145650000Y-84520000D03*
D12*
X133120000Y-51710000D03*
X131045000Y-51710000D03*
D15*
X136280000Y-73140000D03*
X138280000Y-73140000D03*
D26*
X90800000Y-65415000D03*
X90800000Y-64145000D03*
X90800000Y-62875000D03*
X90800000Y-61605000D03*
X85400000Y-61605000D03*
X85400000Y-62875000D03*
X85400000Y-64145000D03*
X85400000Y-65415000D03*
D27*
X110530000Y-60205000D03*
X110530000Y-62280000D03*
D32*
X104530000Y-109920000D03*
X104530000Y-107045000D03*
D21*
X127070000Y-74950000D03*
X127070000Y-73050000D03*
X124870000Y-74000000D03*
D15*
X107440000Y-56590000D03*
X109440000Y-56590000D03*
D33*
X112460000Y-128640000D03*
X107610000Y-134190000D03*
X107610000Y-128640000D03*
X112460000Y-134190000D03*
D34*
X100885000Y-128015000D03*
X100885000Y-129715000D03*
X100885000Y-131415000D03*
X100885000Y-133115000D03*
X100885000Y-134815000D03*
D29*
X128247500Y-105680000D03*
X126197500Y-105680000D03*
D35*
X101530000Y-70060000D03*
X101530000Y-68060000D03*
D14*
X145548400Y-77440000D03*
X145548400Y-79440000D03*
D36*
X87600000Y-110510000D03*
X88550000Y-110510000D03*
X89500000Y-110510000D03*
X89500000Y-108235000D03*
X87600000Y-108235000D03*
D37*
X121597500Y-116340000D03*
X121597500Y-114440000D03*
X119722500Y-115390000D03*
D38*
X117310000Y-53140000D03*
X119810000Y-53140000D03*
X121810000Y-53140000D03*
X124310000Y-53140000D03*
D35*
X115850000Y-121510000D03*
X115850000Y-119510000D03*
D20*
X136145000Y-62720000D03*
X138220000Y-62720000D03*
X89585000Y-104700000D03*
X91660000Y-104700000D03*
D37*
X101577500Y-64980000D03*
X101577500Y-63080000D03*
X99702500Y-64030000D03*
D14*
X154020000Y-87000000D03*
X154020000Y-89000000D03*
D32*
X87340000Y-104650000D03*
X87340000Y-101775000D03*
D35*
X147850000Y-117310000D03*
X147850000Y-115310000D03*
D11*
X166735000Y-80772000D03*
X164735000Y-80772000D03*
D20*
X136195000Y-69160000D03*
X138270000Y-69160000D03*
D11*
X144220000Y-116250000D03*
X142220000Y-116250000D03*
D27*
X96920000Y-111032500D03*
X96920000Y-113107500D03*
D15*
X95160000Y-138680000D03*
X97160000Y-138680000D03*
D39*
X128225000Y-101145000D03*
X128225000Y-99875000D03*
X128225000Y-98605000D03*
X128225000Y-97335000D03*
X123285000Y-97335000D03*
X123285000Y-98605000D03*
X123285000Y-99875000D03*
X123285000Y-101145000D03*
M02*
