G04 #@! TF.GenerationSoftware,KiCad,Pcbnew,6.0.7*
G04 #@! TF.CreationDate,2022-10-22T12:42:31-05:00*
G04 #@! TF.ProjectId,EsquemaGeneral,45737175-656d-4614-9765-6e6572616c2e,rev?*
G04 #@! TF.SameCoordinates,Original*
G04 #@! TF.FileFunction,Soldermask,Bot*
G04 #@! TF.FilePolarity,Negative*
%FSLAX46Y46*%
G04 Gerber Fmt 4.6, Leading zero omitted, Abs format (unit mm)*
G04 Created by KiCad (PCBNEW 6.0.7) date 2022-10-22 12:42:31*
%MOMM*%
%LPD*%
G01*
G04 APERTURE LIST*
G04 Aperture macros list*
%AMRoundRect*
0 Rectangle with rounded corners*
0 $1 Rounding radius*
0 $2 $3 $4 $5 $6 $7 $8 $9 X,Y pos of 4 corners*
0 Add a 4 corners polygon primitive as box body*
4,1,4,$2,$3,$4,$5,$6,$7,$8,$9,$2,$3,0*
0 Add four circle primitives for the rounded corners*
1,1,$1+$1,$2,$3*
1,1,$1+$1,$4,$5*
1,1,$1+$1,$6,$7*
1,1,$1+$1,$8,$9*
0 Add four rect primitives between the rounded corners*
20,1,$1+$1,$2,$3,$4,$5,0*
20,1,$1+$1,$4,$5,$6,$7,0*
20,1,$1+$1,$6,$7,$8,$9,0*
20,1,$1+$1,$8,$9,$2,$3,0*%
G04 Aperture macros list end*
%ADD10RoundRect,0.250000X-0.725000X0.600000X-0.725000X-0.600000X0.725000X-0.600000X0.725000X0.600000X0*%
%ADD11O,1.950000X1.700000*%
%ADD12R,1.700000X1.700000*%
%ADD13O,1.700000X1.700000*%
%ADD14C,2.200000*%
%ADD15RoundRect,0.250000X0.600000X0.725000X-0.600000X0.725000X-0.600000X-0.725000X0.600000X-0.725000X0*%
%ADD16O,1.700000X1.950000*%
%ADD17C,1.440000*%
%ADD18C,3.200000*%
%ADD19R,1.500000X1.500000*%
%ADD20C,1.500000*%
%ADD21C,1.100000*%
%ADD22O,1.900000X3.500000*%
%ADD23RoundRect,0.250000X-0.750000X0.600000X-0.750000X-0.600000X0.750000X-0.600000X0.750000X0.600000X0*%
%ADD24O,2.000000X1.700000*%
G04 APERTURE END LIST*
D10*
X80530000Y-87550000D03*
D11*
X80530000Y-90050000D03*
X80530000Y-92550000D03*
X80530000Y-95050000D03*
D12*
X137520000Y-77360000D03*
D13*
X137520000Y-79900000D03*
D14*
X81850000Y-45130000D03*
D12*
X171450000Y-83820000D03*
D13*
X171450000Y-86360000D03*
X171450000Y-88900000D03*
D15*
X172940000Y-134370000D03*
D16*
X170440000Y-134370000D03*
X167940000Y-134370000D03*
X165440000Y-134370000D03*
X162940000Y-134370000D03*
X160440000Y-134370000D03*
X157940000Y-134370000D03*
X155440000Y-134370000D03*
D17*
X135565000Y-104110000D03*
X133025000Y-106650000D03*
X135565000Y-109190000D03*
D14*
X81540000Y-136830000D03*
D18*
X100920000Y-46490000D03*
X89490000Y-46490000D03*
D19*
X99650000Y-52840000D03*
D20*
X98380000Y-55380000D03*
X97110000Y-52840000D03*
X95840000Y-55380000D03*
X94570000Y-52840000D03*
X93300000Y-55380000D03*
X92030000Y-52840000D03*
X90760000Y-55380000D03*
D18*
X131687500Y-136680000D03*
X143117500Y-136680000D03*
D19*
X132957500Y-130330000D03*
D20*
X134227500Y-127790000D03*
X135497500Y-130330000D03*
X136767500Y-127790000D03*
X138037500Y-130330000D03*
X139307500Y-127790000D03*
X140577500Y-130330000D03*
X141847500Y-127790000D03*
D12*
X174480000Y-95350000D03*
D13*
X171940000Y-95350000D03*
X169400000Y-95350000D03*
X166860000Y-95350000D03*
X164320000Y-95350000D03*
X161780000Y-95350000D03*
D12*
X171889200Y-117642000D03*
D13*
X169349200Y-117642000D03*
X166809200Y-117642000D03*
X164269200Y-117642000D03*
X161729200Y-117642000D03*
X159189200Y-117642000D03*
D20*
X136275000Y-97630000D03*
X139675000Y-97630000D03*
D14*
X168690000Y-111920000D03*
D12*
X131150000Y-85730000D03*
D13*
X133690000Y-85730000D03*
D14*
X166700000Y-87130000D03*
D21*
X118510000Y-50390000D03*
X123110000Y-50390000D03*
D22*
X115110000Y-50390000D03*
X126510000Y-50390000D03*
D23*
X84130000Y-116540000D03*
D24*
X84130000Y-119040000D03*
M02*
