G04 #@! TF.GenerationSoftware,KiCad,Pcbnew,6.0.7*
G04 #@! TF.CreationDate,2022-10-22T12:42:31-05:00*
G04 #@! TF.ProjectId,EsquemaGeneral,45737175-656d-4614-9765-6e6572616c2e,rev?*
G04 #@! TF.SameCoordinates,Original*
G04 #@! TF.FileFunction,Legend,Top*
G04 #@! TF.FilePolarity,Positive*
%FSLAX46Y46*%
G04 Gerber Fmt 4.6, Leading zero omitted, Abs format (unit mm)*
G04 Created by KiCad (PCBNEW 6.0.7) date 2022-10-22 12:42:31*
%MOMM*%
%LPD*%
G01*
G04 APERTURE LIST*
G04 Aperture macros list*
%AMRoundRect*
0 Rectangle with rounded corners*
0 $1 Rounding radius*
0 $2 $3 $4 $5 $6 $7 $8 $9 X,Y pos of 4 corners*
0 Add a 4 corners polygon primitive as box body*
4,1,4,$2,$3,$4,$5,$6,$7,$8,$9,$2,$3,0*
0 Add four circle primitives for the rounded corners*
1,1,$1+$1,$2,$3*
1,1,$1+$1,$4,$5*
1,1,$1+$1,$6,$7*
1,1,$1+$1,$8,$9*
0 Add four rect primitives between the rounded corners*
20,1,$1+$1,$2,$3,$4,$5,0*
20,1,$1+$1,$4,$5,$6,$7,0*
20,1,$1+$1,$6,$7,$8,$9,0*
20,1,$1+$1,$8,$9,$2,$3,0*%
G04 Aperture macros list end*
%ADD10C,0.150000*%
%ADD11C,0.254000*%
%ADD12C,0.120000*%
%ADD13C,0.100000*%
%ADD14C,0.200000*%
%ADD15C,0.127000*%
%ADD16C,0.010000*%
%ADD17RoundRect,0.250000X0.350000X0.450000X-0.350000X0.450000X-0.350000X-0.450000X0.350000X-0.450000X0*%
%ADD18RoundRect,0.250000X0.337500X0.475000X-0.337500X0.475000X-0.337500X-0.475000X0.337500X-0.475000X0*%
%ADD19RoundRect,0.250000X0.475000X-0.337500X0.475000X0.337500X-0.475000X0.337500X-0.475000X-0.337500X0*%
%ADD20RoundRect,0.250000X-0.450000X0.350000X-0.450000X-0.350000X0.450000X-0.350000X0.450000X0.350000X0*%
%ADD21RoundRect,0.250000X-0.350000X-0.450000X0.350000X-0.450000X0.350000X0.450000X-0.350000X0.450000X0*%
%ADD22RoundRect,0.150000X-0.512500X-0.150000X0.512500X-0.150000X0.512500X0.150000X-0.512500X0.150000X0*%
%ADD23R,2.000000X0.900000*%
%ADD24R,1.330000X1.330000*%
%ADD25RoundRect,0.250000X1.950000X1.000000X-1.950000X1.000000X-1.950000X-1.000000X1.950000X-1.000000X0*%
%ADD26RoundRect,0.250000X-0.725000X0.600000X-0.725000X-0.600000X0.725000X-0.600000X0.725000X0.600000X0*%
%ADD27O,1.950000X1.700000*%
%ADD28R,1.700000X1.700000*%
%ADD29O,1.700000X1.700000*%
%ADD30C,2.200000*%
%ADD31RoundRect,0.250000X-0.337500X-0.475000X0.337500X-0.475000X0.337500X0.475000X-0.337500X0.475000X0*%
%ADD32R,1.400000X1.000000*%
%ADD33RoundRect,0.002600X-0.127400X0.402400X-0.127400X-0.402400X0.127400X-0.402400X0.127400X0.402400X0*%
%ADD34RoundRect,0.002600X-0.402400X-0.127400X0.402400X-0.127400X0.402400X0.127400X-0.402400X0.127400X0*%
%ADD35R,2.680000X2.680000*%
%ADD36RoundRect,0.250000X-0.875000X-0.925000X0.875000X-0.925000X0.875000X0.925000X-0.875000X0.925000X0*%
%ADD37RoundRect,0.250000X-0.450000X0.325000X-0.450000X-0.325000X0.450000X-0.325000X0.450000X0.325000X0*%
%ADD38RoundRect,0.250000X0.600000X0.725000X-0.600000X0.725000X-0.600000X-0.725000X0.600000X-0.725000X0*%
%ADD39O,1.700000X1.950000*%
%ADD40R,1.500000X0.650000*%
%ADD41RoundRect,0.250000X-0.475000X0.337500X-0.475000X-0.337500X0.475000X-0.337500X0.475000X0.337500X0*%
%ADD42RoundRect,0.200000X0.800000X-0.200000X0.800000X0.200000X-0.800000X0.200000X-0.800000X-0.200000X0*%
%ADD43RoundRect,0.250000X0.325000X0.450000X-0.325000X0.450000X-0.325000X-0.450000X0.325000X-0.450000X0*%
%ADD44C,1.440000*%
%ADD45RoundRect,0.250000X-0.325000X-0.450000X0.325000X-0.450000X0.325000X0.450000X-0.325000X0.450000X0*%
%ADD46RoundRect,0.250000X0.400000X0.625000X-0.400000X0.625000X-0.400000X-0.625000X0.400000X-0.625000X0*%
%ADD47C,3.200000*%
%ADD48R,1.500000X1.500000*%
%ADD49C,1.500000*%
%ADD50RoundRect,0.250000X0.425000X-0.537500X0.425000X0.537500X-0.425000X0.537500X-0.425000X-0.537500X0*%
%ADD51R,4.600000X1.100000*%
%ADD52R,9.400000X10.800000*%
%ADD53RoundRect,0.250000X0.450000X-0.350000X0.450000X0.350000X-0.450000X0.350000X-0.450000X-0.350000X0*%
%ADD54RoundRect,0.150000X0.150000X-0.512500X0.150000X0.512500X-0.150000X0.512500X-0.150000X-0.512500X0*%
%ADD55RoundRect,0.150000X0.587500X0.150000X-0.587500X0.150000X-0.587500X-0.150000X0.587500X-0.150000X0*%
%ADD56C,1.100000*%
%ADD57R,1.100000X2.500000*%
%ADD58O,1.900000X3.500000*%
%ADD59RoundRect,0.042000X0.943000X0.258000X-0.943000X0.258000X-0.943000X-0.258000X0.943000X-0.258000X0*%
%ADD60RoundRect,0.250000X-0.750000X0.600000X-0.750000X-0.600000X0.750000X-0.600000X0.750000X0.600000X0*%
%ADD61O,2.000000X1.700000*%
G04 APERTURE END LIST*
D10*
X140577142Y-122202380D02*
X140243809Y-121726190D01*
X140005714Y-122202380D02*
X140005714Y-121202380D01*
X140386666Y-121202380D01*
X140481904Y-121250000D01*
X140529523Y-121297619D01*
X140577142Y-121392857D01*
X140577142Y-121535714D01*
X140529523Y-121630952D01*
X140481904Y-121678571D01*
X140386666Y-121726190D01*
X140005714Y-121726190D01*
X140958095Y-121297619D02*
X141005714Y-121250000D01*
X141100952Y-121202380D01*
X141339047Y-121202380D01*
X141434285Y-121250000D01*
X141481904Y-121297619D01*
X141529523Y-121392857D01*
X141529523Y-121488095D01*
X141481904Y-121630952D01*
X140910476Y-122202380D01*
X141529523Y-122202380D01*
X142386666Y-121202380D02*
X142196190Y-121202380D01*
X142100952Y-121250000D01*
X142053333Y-121297619D01*
X141958095Y-121440476D01*
X141910476Y-121630952D01*
X141910476Y-122011904D01*
X141958095Y-122107142D01*
X142005714Y-122154761D01*
X142100952Y-122202380D01*
X142291428Y-122202380D01*
X142386666Y-122154761D01*
X142434285Y-122107142D01*
X142481904Y-122011904D01*
X142481904Y-121773809D01*
X142434285Y-121678571D01*
X142386666Y-121630952D01*
X142291428Y-121583333D01*
X142100952Y-121583333D01*
X142005714Y-121630952D01*
X141958095Y-121678571D01*
X141910476Y-121773809D01*
X119435833Y-70767142D02*
X119388214Y-70814761D01*
X119245357Y-70862380D01*
X119150119Y-70862380D01*
X119007261Y-70814761D01*
X118912023Y-70719523D01*
X118864404Y-70624285D01*
X118816785Y-70433809D01*
X118816785Y-70290952D01*
X118864404Y-70100476D01*
X118912023Y-70005238D01*
X119007261Y-69910000D01*
X119150119Y-69862380D01*
X119245357Y-69862380D01*
X119388214Y-69910000D01*
X119435833Y-69957619D01*
X119769166Y-69862380D02*
X120435833Y-69862380D01*
X120007261Y-70862380D01*
X83717142Y-107167142D02*
X83669523Y-107214761D01*
X83526666Y-107262380D01*
X83431428Y-107262380D01*
X83288571Y-107214761D01*
X83193333Y-107119523D01*
X83145714Y-107024285D01*
X83098095Y-106833809D01*
X83098095Y-106690952D01*
X83145714Y-106500476D01*
X83193333Y-106405238D01*
X83288571Y-106310000D01*
X83431428Y-106262380D01*
X83526666Y-106262380D01*
X83669523Y-106310000D01*
X83717142Y-106357619D01*
X84669523Y-107262380D02*
X84098095Y-107262380D01*
X84383809Y-107262380D02*
X84383809Y-106262380D01*
X84288571Y-106405238D01*
X84193333Y-106500476D01*
X84098095Y-106548095D01*
X85526666Y-106262380D02*
X85336190Y-106262380D01*
X85240952Y-106310000D01*
X85193333Y-106357619D01*
X85098095Y-106500476D01*
X85050476Y-106690952D01*
X85050476Y-107071904D01*
X85098095Y-107167142D01*
X85145714Y-107214761D01*
X85240952Y-107262380D01*
X85431428Y-107262380D01*
X85526666Y-107214761D01*
X85574285Y-107167142D01*
X85621904Y-107071904D01*
X85621904Y-106833809D01*
X85574285Y-106738571D01*
X85526666Y-106690952D01*
X85431428Y-106643333D01*
X85240952Y-106643333D01*
X85145714Y-106690952D01*
X85098095Y-106738571D01*
X85050476Y-106833809D01*
X122152380Y-106542857D02*
X121676190Y-106876190D01*
X122152380Y-107114285D02*
X121152380Y-107114285D01*
X121152380Y-106733333D01*
X121200000Y-106638095D01*
X121247619Y-106590476D01*
X121342857Y-106542857D01*
X121485714Y-106542857D01*
X121580952Y-106590476D01*
X121628571Y-106638095D01*
X121676190Y-106733333D01*
X121676190Y-107114285D01*
X122152380Y-105590476D02*
X122152380Y-106161904D01*
X122152380Y-105876190D02*
X121152380Y-105876190D01*
X121295238Y-105971428D01*
X121390476Y-106066666D01*
X121438095Y-106161904D01*
X121580952Y-105019047D02*
X121533333Y-105114285D01*
X121485714Y-105161904D01*
X121390476Y-105209523D01*
X121342857Y-105209523D01*
X121247619Y-105161904D01*
X121200000Y-105114285D01*
X121152380Y-105019047D01*
X121152380Y-104828571D01*
X121200000Y-104733333D01*
X121247619Y-104685714D01*
X121342857Y-104638095D01*
X121390476Y-104638095D01*
X121485714Y-104685714D01*
X121533333Y-104733333D01*
X121580952Y-104828571D01*
X121580952Y-105019047D01*
X121628571Y-105114285D01*
X121676190Y-105161904D01*
X121771428Y-105209523D01*
X121961904Y-105209523D01*
X122057142Y-105161904D01*
X122104761Y-105114285D01*
X122152380Y-105019047D01*
X122152380Y-104828571D01*
X122104761Y-104733333D01*
X122057142Y-104685714D01*
X121961904Y-104638095D01*
X121771428Y-104638095D01*
X121676190Y-104685714D01*
X121628571Y-104733333D01*
X121580952Y-104828571D01*
X122157142Y-139352380D02*
X121823809Y-138876190D01*
X121585714Y-139352380D02*
X121585714Y-138352380D01*
X121966666Y-138352380D01*
X122061904Y-138400000D01*
X122109523Y-138447619D01*
X122157142Y-138542857D01*
X122157142Y-138685714D01*
X122109523Y-138780952D01*
X122061904Y-138828571D01*
X121966666Y-138876190D01*
X121585714Y-138876190D01*
X122538095Y-138447619D02*
X122585714Y-138400000D01*
X122680952Y-138352380D01*
X122919047Y-138352380D01*
X123014285Y-138400000D01*
X123061904Y-138447619D01*
X123109523Y-138542857D01*
X123109523Y-138638095D01*
X123061904Y-138780952D01*
X122490476Y-139352380D01*
X123109523Y-139352380D01*
X124061904Y-139352380D02*
X123490476Y-139352380D01*
X123776190Y-139352380D02*
X123776190Y-138352380D01*
X123680952Y-138495238D01*
X123585714Y-138590476D01*
X123490476Y-138638095D01*
X91719642Y-124467142D02*
X91672023Y-124514761D01*
X91529166Y-124562380D01*
X91433928Y-124562380D01*
X91291071Y-124514761D01*
X91195833Y-124419523D01*
X91148214Y-124324285D01*
X91100595Y-124133809D01*
X91100595Y-123990952D01*
X91148214Y-123800476D01*
X91195833Y-123705238D01*
X91291071Y-123610000D01*
X91433928Y-123562380D01*
X91529166Y-123562380D01*
X91672023Y-123610000D01*
X91719642Y-123657619D01*
X92672023Y-124562380D02*
X92100595Y-124562380D01*
X92386309Y-124562380D02*
X92386309Y-123562380D01*
X92291071Y-123705238D01*
X92195833Y-123800476D01*
X92100595Y-123848095D01*
X93529166Y-123895714D02*
X93529166Y-124562380D01*
X93291071Y-123514761D02*
X93052976Y-124229047D01*
X93672023Y-124229047D01*
X100058095Y-108074880D02*
X100058095Y-108884404D01*
X100105714Y-108979642D01*
X100153333Y-109027261D01*
X100248571Y-109074880D01*
X100439047Y-109074880D01*
X100534285Y-109027261D01*
X100581904Y-108979642D01*
X100629523Y-108884404D01*
X100629523Y-108074880D01*
X101010476Y-108074880D02*
X101629523Y-108074880D01*
X101296190Y-108455833D01*
X101439047Y-108455833D01*
X101534285Y-108503452D01*
X101581904Y-108551071D01*
X101629523Y-108646309D01*
X101629523Y-108884404D01*
X101581904Y-108979642D01*
X101534285Y-109027261D01*
X101439047Y-109074880D01*
X101153333Y-109074880D01*
X101058095Y-109027261D01*
X101010476Y-108979642D01*
D11*
X170469838Y-59876523D02*
X170469838Y-58606523D01*
X171800314Y-59755571D02*
X171739838Y-59816047D01*
X171558409Y-59876523D01*
X171437457Y-59876523D01*
X171256028Y-59816047D01*
X171135076Y-59695095D01*
X171074600Y-59574142D01*
X171014123Y-59332238D01*
X171014123Y-59150809D01*
X171074600Y-58908904D01*
X171135076Y-58787952D01*
X171256028Y-58667000D01*
X171437457Y-58606523D01*
X171558409Y-58606523D01*
X171739838Y-58667000D01*
X171800314Y-58727476D01*
X173009838Y-59876523D02*
X172284123Y-59876523D01*
X172646980Y-59876523D02*
X172646980Y-58606523D01*
X172526028Y-58787952D01*
X172405076Y-58908904D01*
X172284123Y-58969380D01*
D10*
X84297142Y-126397142D02*
X84249523Y-126444761D01*
X84106666Y-126492380D01*
X84011428Y-126492380D01*
X83868571Y-126444761D01*
X83773333Y-126349523D01*
X83725714Y-126254285D01*
X83678095Y-126063809D01*
X83678095Y-125920952D01*
X83725714Y-125730476D01*
X83773333Y-125635238D01*
X83868571Y-125540000D01*
X84011428Y-125492380D01*
X84106666Y-125492380D01*
X84249523Y-125540000D01*
X84297142Y-125587619D01*
X85249523Y-126492380D02*
X84678095Y-126492380D01*
X84963809Y-126492380D02*
X84963809Y-125492380D01*
X84868571Y-125635238D01*
X84773333Y-125730476D01*
X84678095Y-125778095D01*
X86154285Y-125492380D02*
X85678095Y-125492380D01*
X85630476Y-125968571D01*
X85678095Y-125920952D01*
X85773333Y-125873333D01*
X86011428Y-125873333D01*
X86106666Y-125920952D01*
X86154285Y-125968571D01*
X86201904Y-126063809D01*
X86201904Y-126301904D01*
X86154285Y-126397142D01*
X86106666Y-126444761D01*
X86011428Y-126492380D01*
X85773333Y-126492380D01*
X85678095Y-126444761D01*
X85630476Y-126397142D01*
X82782380Y-91633333D02*
X83496666Y-91633333D01*
X83639523Y-91680952D01*
X83734761Y-91776190D01*
X83782380Y-91919047D01*
X83782380Y-92014285D01*
X82782380Y-91252380D02*
X82782380Y-90585714D01*
X83782380Y-91014285D01*
X117050833Y-107177142D02*
X117003214Y-107224761D01*
X116860357Y-107272380D01*
X116765119Y-107272380D01*
X116622261Y-107224761D01*
X116527023Y-107129523D01*
X116479404Y-107034285D01*
X116431785Y-106843809D01*
X116431785Y-106700952D01*
X116479404Y-106510476D01*
X116527023Y-106415238D01*
X116622261Y-106320000D01*
X116765119Y-106272380D01*
X116860357Y-106272380D01*
X117003214Y-106320000D01*
X117050833Y-106367619D01*
X117622261Y-106700952D02*
X117527023Y-106653333D01*
X117479404Y-106605714D01*
X117431785Y-106510476D01*
X117431785Y-106462857D01*
X117479404Y-106367619D01*
X117527023Y-106320000D01*
X117622261Y-106272380D01*
X117812738Y-106272380D01*
X117907976Y-106320000D01*
X117955595Y-106367619D01*
X118003214Y-106462857D01*
X118003214Y-106510476D01*
X117955595Y-106605714D01*
X117907976Y-106653333D01*
X117812738Y-106700952D01*
X117622261Y-106700952D01*
X117527023Y-106748571D01*
X117479404Y-106796190D01*
X117431785Y-106891428D01*
X117431785Y-107081904D01*
X117479404Y-107177142D01*
X117527023Y-107224761D01*
X117622261Y-107272380D01*
X117812738Y-107272380D01*
X117907976Y-107224761D01*
X117955595Y-107177142D01*
X118003214Y-107081904D01*
X118003214Y-106891428D01*
X117955595Y-106796190D01*
X117907976Y-106748571D01*
X117812738Y-106700952D01*
X136686666Y-74482380D02*
X136686666Y-75196666D01*
X136639047Y-75339523D01*
X136543809Y-75434761D01*
X136400952Y-75482380D01*
X136305714Y-75482380D01*
X137162857Y-75482380D02*
X137162857Y-74482380D01*
X137543809Y-74482380D01*
X137639047Y-74530000D01*
X137686666Y-74577619D01*
X137734285Y-74672857D01*
X137734285Y-74815714D01*
X137686666Y-74910952D01*
X137639047Y-74958571D01*
X137543809Y-75006190D01*
X137162857Y-75006190D01*
X138115238Y-74577619D02*
X138162857Y-74530000D01*
X138258095Y-74482380D01*
X138496190Y-74482380D01*
X138591428Y-74530000D01*
X138639047Y-74577619D01*
X138686666Y-74672857D01*
X138686666Y-74768095D01*
X138639047Y-74910952D01*
X138067619Y-75482380D01*
X138686666Y-75482380D01*
X81088095Y-42382380D02*
X81088095Y-41382380D01*
X81088095Y-41858571D02*
X81659523Y-41858571D01*
X81659523Y-42382380D02*
X81659523Y-41382380D01*
X82564285Y-41715714D02*
X82564285Y-42382380D01*
X82326190Y-41334761D02*
X82088095Y-42049047D01*
X82707142Y-42049047D01*
X136815833Y-50287142D02*
X136768214Y-50334761D01*
X136625357Y-50382380D01*
X136530119Y-50382380D01*
X136387261Y-50334761D01*
X136292023Y-50239523D01*
X136244404Y-50144285D01*
X136196785Y-49953809D01*
X136196785Y-49810952D01*
X136244404Y-49620476D01*
X136292023Y-49525238D01*
X136387261Y-49430000D01*
X136530119Y-49382380D01*
X136625357Y-49382380D01*
X136768214Y-49430000D01*
X136815833Y-49477619D01*
X137768214Y-50382380D02*
X137196785Y-50382380D01*
X137482500Y-50382380D02*
X137482500Y-49382380D01*
X137387261Y-49525238D01*
X137292023Y-49620476D01*
X137196785Y-49668095D01*
X117448088Y-77095319D02*
X117400429Y-77190639D01*
X117305109Y-77285959D01*
X117162129Y-77428939D01*
X117114469Y-77524258D01*
X117114469Y-77619578D01*
X117352769Y-77571918D02*
X117305109Y-77667238D01*
X117209789Y-77762558D01*
X117019149Y-77810218D01*
X116685530Y-77810218D01*
X116494890Y-77762558D01*
X116399571Y-77667238D01*
X116351911Y-77571918D01*
X116351911Y-77381279D01*
X116399571Y-77285959D01*
X116494890Y-77190639D01*
X116685530Y-77142979D01*
X117019149Y-77142979D01*
X117209789Y-77190639D01*
X117305109Y-77285959D01*
X117352769Y-77381279D01*
X117352769Y-77571918D01*
X117352769Y-76189781D02*
X117352769Y-76761700D01*
X117352769Y-76475741D02*
X116351911Y-76475741D01*
X116494890Y-76571060D01*
X116590210Y-76666380D01*
X116637870Y-76761700D01*
X116562142Y-99872380D02*
X116228809Y-99396190D01*
X115990714Y-99872380D02*
X115990714Y-98872380D01*
X116371666Y-98872380D01*
X116466904Y-98920000D01*
X116514523Y-98967619D01*
X116562142Y-99062857D01*
X116562142Y-99205714D01*
X116514523Y-99300952D01*
X116466904Y-99348571D01*
X116371666Y-99396190D01*
X115990714Y-99396190D01*
X117514523Y-99872380D02*
X116943095Y-99872380D01*
X117228809Y-99872380D02*
X117228809Y-98872380D01*
X117133571Y-99015238D01*
X117038333Y-99110476D01*
X116943095Y-99158095D01*
X118419285Y-98872380D02*
X117943095Y-98872380D01*
X117895476Y-99348571D01*
X117943095Y-99300952D01*
X118038333Y-99253333D01*
X118276428Y-99253333D01*
X118371666Y-99300952D01*
X118419285Y-99348571D01*
X118466904Y-99443809D01*
X118466904Y-99681904D01*
X118419285Y-99777142D01*
X118371666Y-99824761D01*
X118276428Y-99872380D01*
X118038333Y-99872380D01*
X117943095Y-99824761D01*
X117895476Y-99777142D01*
X171116666Y-80942380D02*
X171116666Y-81656666D01*
X171069047Y-81799523D01*
X170973809Y-81894761D01*
X170830952Y-81942380D01*
X170735714Y-81942380D01*
X171735714Y-81370952D02*
X171640476Y-81323333D01*
X171592857Y-81275714D01*
X171545238Y-81180476D01*
X171545238Y-81132857D01*
X171592857Y-81037619D01*
X171640476Y-80990000D01*
X171735714Y-80942380D01*
X171926190Y-80942380D01*
X172021428Y-80990000D01*
X172069047Y-81037619D01*
X172116666Y-81132857D01*
X172116666Y-81180476D01*
X172069047Y-81275714D01*
X172021428Y-81323333D01*
X171926190Y-81370952D01*
X171735714Y-81370952D01*
X171640476Y-81418571D01*
X171592857Y-81466190D01*
X171545238Y-81561428D01*
X171545238Y-81751904D01*
X171592857Y-81847142D01*
X171640476Y-81894761D01*
X171735714Y-81942380D01*
X171926190Y-81942380D01*
X172021428Y-81894761D01*
X172069047Y-81847142D01*
X172116666Y-81751904D01*
X172116666Y-81561428D01*
X172069047Y-81466190D01*
X172021428Y-81418571D01*
X171926190Y-81370952D01*
X150352380Y-118242857D02*
X149876190Y-118576190D01*
X150352380Y-118814285D02*
X149352380Y-118814285D01*
X149352380Y-118433333D01*
X149400000Y-118338095D01*
X149447619Y-118290476D01*
X149542857Y-118242857D01*
X149685714Y-118242857D01*
X149780952Y-118290476D01*
X149828571Y-118338095D01*
X149876190Y-118433333D01*
X149876190Y-118814285D01*
X149447619Y-117861904D02*
X149400000Y-117814285D01*
X149352380Y-117719047D01*
X149352380Y-117480952D01*
X149400000Y-117385714D01*
X149447619Y-117338095D01*
X149542857Y-117290476D01*
X149638095Y-117290476D01*
X149780952Y-117338095D01*
X150352380Y-117909523D01*
X150352380Y-117290476D01*
X149780952Y-116719047D02*
X149733333Y-116814285D01*
X149685714Y-116861904D01*
X149590476Y-116909523D01*
X149542857Y-116909523D01*
X149447619Y-116861904D01*
X149400000Y-116814285D01*
X149352380Y-116719047D01*
X149352380Y-116528571D01*
X149400000Y-116433333D01*
X149447619Y-116385714D01*
X149542857Y-116338095D01*
X149590476Y-116338095D01*
X149685714Y-116385714D01*
X149733333Y-116433333D01*
X149780952Y-116528571D01*
X149780952Y-116719047D01*
X149828571Y-116814285D01*
X149876190Y-116861904D01*
X149971428Y-116909523D01*
X150161904Y-116909523D01*
X150257142Y-116861904D01*
X150304761Y-116814285D01*
X150352380Y-116719047D01*
X150352380Y-116528571D01*
X150304761Y-116433333D01*
X150257142Y-116385714D01*
X150161904Y-116338095D01*
X149971428Y-116338095D01*
X149876190Y-116385714D01*
X149828571Y-116433333D01*
X149780952Y-116528571D01*
X133473333Y-79002380D02*
X133140000Y-78526190D01*
X132901904Y-79002380D02*
X132901904Y-78002380D01*
X133282857Y-78002380D01*
X133378095Y-78050000D01*
X133425714Y-78097619D01*
X133473333Y-78192857D01*
X133473333Y-78335714D01*
X133425714Y-78430952D01*
X133378095Y-78478571D01*
X133282857Y-78526190D01*
X132901904Y-78526190D01*
X133854285Y-78097619D02*
X133901904Y-78050000D01*
X133997142Y-78002380D01*
X134235238Y-78002380D01*
X134330476Y-78050000D01*
X134378095Y-78097619D01*
X134425714Y-78192857D01*
X134425714Y-78288095D01*
X134378095Y-78430952D01*
X133806666Y-79002380D01*
X134425714Y-79002380D01*
X123704381Y-61903426D02*
X124514746Y-61903426D01*
X124610083Y-61855757D01*
X124657752Y-61808089D01*
X124705420Y-61712752D01*
X124705420Y-61522078D01*
X124657752Y-61426741D01*
X124610083Y-61379072D01*
X124514746Y-61331404D01*
X123704381Y-61331404D01*
X124705420Y-60330365D02*
X124705420Y-60902387D01*
X124705420Y-60616376D02*
X123704381Y-60616376D01*
X123847387Y-60711713D01*
X123942724Y-60807050D01*
X123990393Y-60902387D01*
X98027142Y-119937142D02*
X97979523Y-119984761D01*
X97836666Y-120032380D01*
X97741428Y-120032380D01*
X97598571Y-119984761D01*
X97503333Y-119889523D01*
X97455714Y-119794285D01*
X97408095Y-119603809D01*
X97408095Y-119460952D01*
X97455714Y-119270476D01*
X97503333Y-119175238D01*
X97598571Y-119080000D01*
X97741428Y-119032380D01*
X97836666Y-119032380D01*
X97979523Y-119080000D01*
X98027142Y-119127619D01*
X98979523Y-120032380D02*
X98408095Y-120032380D01*
X98693809Y-120032380D02*
X98693809Y-119032380D01*
X98598571Y-119175238D01*
X98503333Y-119270476D01*
X98408095Y-119318095D01*
X99360476Y-119127619D02*
X99408095Y-119080000D01*
X99503333Y-119032380D01*
X99741428Y-119032380D01*
X99836666Y-119080000D01*
X99884285Y-119127619D01*
X99931904Y-119222857D01*
X99931904Y-119318095D01*
X99884285Y-119460952D01*
X99312857Y-120032380D01*
X99931904Y-120032380D01*
X131758333Y-100787142D02*
X131710714Y-100834761D01*
X131567857Y-100882380D01*
X131472619Y-100882380D01*
X131329761Y-100834761D01*
X131234523Y-100739523D01*
X131186904Y-100644285D01*
X131139285Y-100453809D01*
X131139285Y-100310952D01*
X131186904Y-100120476D01*
X131234523Y-100025238D01*
X131329761Y-99930000D01*
X131472619Y-99882380D01*
X131567857Y-99882380D01*
X131710714Y-99930000D01*
X131758333Y-99977619D01*
X132234523Y-100882380D02*
X132425000Y-100882380D01*
X132520238Y-100834761D01*
X132567857Y-100787142D01*
X132663095Y-100644285D01*
X132710714Y-100453809D01*
X132710714Y-100072857D01*
X132663095Y-99977619D01*
X132615476Y-99930000D01*
X132520238Y-99882380D01*
X132329761Y-99882380D01*
X132234523Y-99930000D01*
X132186904Y-99977619D01*
X132139285Y-100072857D01*
X132139285Y-100310952D01*
X132186904Y-100406190D01*
X132234523Y-100453809D01*
X132329761Y-100501428D01*
X132520238Y-100501428D01*
X132615476Y-100453809D01*
X132663095Y-100406190D01*
X132710714Y-100310952D01*
X90717142Y-137337142D02*
X90669523Y-137384761D01*
X90526666Y-137432380D01*
X90431428Y-137432380D01*
X90288571Y-137384761D01*
X90193333Y-137289523D01*
X90145714Y-137194285D01*
X90098095Y-137003809D01*
X90098095Y-136860952D01*
X90145714Y-136670476D01*
X90193333Y-136575238D01*
X90288571Y-136480000D01*
X90431428Y-136432380D01*
X90526666Y-136432380D01*
X90669523Y-136480000D01*
X90717142Y-136527619D01*
X91669523Y-137432380D02*
X91098095Y-137432380D01*
X91383809Y-137432380D02*
X91383809Y-136432380D01*
X91288571Y-136575238D01*
X91193333Y-136670476D01*
X91098095Y-136718095D01*
X92002857Y-136432380D02*
X92669523Y-136432380D01*
X92240952Y-137432380D01*
X129661904Y-76924880D02*
X129661904Y-75924880D01*
X129900000Y-75924880D01*
X130042857Y-75972500D01*
X130138095Y-76067738D01*
X130185714Y-76162976D01*
X130233333Y-76353452D01*
X130233333Y-76496309D01*
X130185714Y-76686785D01*
X130138095Y-76782023D01*
X130042857Y-76877261D01*
X129900000Y-76924880D01*
X129661904Y-76924880D01*
X130614285Y-76020119D02*
X130661904Y-75972500D01*
X130757142Y-75924880D01*
X130995238Y-75924880D01*
X131090476Y-75972500D01*
X131138095Y-76020119D01*
X131185714Y-76115357D01*
X131185714Y-76210595D01*
X131138095Y-76353452D01*
X130566666Y-76924880D01*
X131185714Y-76924880D01*
X131883333Y-58002380D02*
X131550000Y-57526190D01*
X131311904Y-58002380D02*
X131311904Y-57002380D01*
X131692857Y-57002380D01*
X131788095Y-57050000D01*
X131835714Y-57097619D01*
X131883333Y-57192857D01*
X131883333Y-57335714D01*
X131835714Y-57430952D01*
X131788095Y-57478571D01*
X131692857Y-57526190D01*
X131311904Y-57526190D01*
X132216666Y-57002380D02*
X132835714Y-57002380D01*
X132502380Y-57383333D01*
X132645238Y-57383333D01*
X132740476Y-57430952D01*
X132788095Y-57478571D01*
X132835714Y-57573809D01*
X132835714Y-57811904D01*
X132788095Y-57907142D01*
X132740476Y-57954761D01*
X132645238Y-58002380D01*
X132359523Y-58002380D01*
X132264285Y-57954761D01*
X132216666Y-57907142D01*
X150466666Y-138952380D02*
X150466666Y-139666666D01*
X150419047Y-139809523D01*
X150323809Y-139904761D01*
X150180952Y-139952380D01*
X150085714Y-139952380D01*
X151371428Y-138952380D02*
X151180952Y-138952380D01*
X151085714Y-139000000D01*
X151038095Y-139047619D01*
X150942857Y-139190476D01*
X150895238Y-139380952D01*
X150895238Y-139761904D01*
X150942857Y-139857142D01*
X150990476Y-139904761D01*
X151085714Y-139952380D01*
X151276190Y-139952380D01*
X151371428Y-139904761D01*
X151419047Y-139857142D01*
X151466666Y-139761904D01*
X151466666Y-139523809D01*
X151419047Y-139428571D01*
X151371428Y-139380952D01*
X151276190Y-139333333D01*
X151085714Y-139333333D01*
X150990476Y-139380952D01*
X150942857Y-139428571D01*
X150895238Y-139523809D01*
X130522380Y-68542857D02*
X130046190Y-68876190D01*
X130522380Y-69114285D02*
X129522380Y-69114285D01*
X129522380Y-68733333D01*
X129570000Y-68638095D01*
X129617619Y-68590476D01*
X129712857Y-68542857D01*
X129855714Y-68542857D01*
X129950952Y-68590476D01*
X129998571Y-68638095D01*
X130046190Y-68733333D01*
X130046190Y-69114285D01*
X130522380Y-67590476D02*
X130522380Y-68161904D01*
X130522380Y-67876190D02*
X129522380Y-67876190D01*
X129665238Y-67971428D01*
X129760476Y-68066666D01*
X129808095Y-68161904D01*
X129855714Y-66733333D02*
X130522380Y-66733333D01*
X129474761Y-66971428D02*
X130189047Y-67209523D01*
X130189047Y-66590476D01*
D11*
X122169047Y-122325476D02*
X122048095Y-122265000D01*
X121927142Y-122144047D01*
X121745714Y-121962619D01*
X121624761Y-121902142D01*
X121503809Y-121902142D01*
X121564285Y-122204523D02*
X121443333Y-122144047D01*
X121322380Y-122023095D01*
X121261904Y-121781190D01*
X121261904Y-121357857D01*
X121322380Y-121115952D01*
X121443333Y-120995000D01*
X121564285Y-120934523D01*
X121806190Y-120934523D01*
X121927142Y-120995000D01*
X122048095Y-121115952D01*
X122108571Y-121357857D01*
X122108571Y-121781190D01*
X122048095Y-122023095D01*
X121927142Y-122144047D01*
X121806190Y-122204523D01*
X121564285Y-122204523D01*
X123197142Y-120934523D02*
X122955238Y-120934523D01*
X122834285Y-120995000D01*
X122773809Y-121055476D01*
X122652857Y-121236904D01*
X122592380Y-121478809D01*
X122592380Y-121962619D01*
X122652857Y-122083571D01*
X122713333Y-122144047D01*
X122834285Y-122204523D01*
X123076190Y-122204523D01*
X123197142Y-122144047D01*
X123257619Y-122083571D01*
X123318095Y-121962619D01*
X123318095Y-121660238D01*
X123257619Y-121539285D01*
X123197142Y-121478809D01*
X123076190Y-121418333D01*
X122834285Y-121418333D01*
X122713333Y-121478809D01*
X122652857Y-121539285D01*
X122592380Y-121660238D01*
D10*
X104197142Y-115782857D02*
X104244761Y-115830476D01*
X104292380Y-115973333D01*
X104292380Y-116068571D01*
X104244761Y-116211428D01*
X104149523Y-116306666D01*
X104054285Y-116354285D01*
X103863809Y-116401904D01*
X103720952Y-116401904D01*
X103530476Y-116354285D01*
X103435238Y-116306666D01*
X103340000Y-116211428D01*
X103292380Y-116068571D01*
X103292380Y-115973333D01*
X103340000Y-115830476D01*
X103387619Y-115782857D01*
X104292380Y-114830476D02*
X104292380Y-115401904D01*
X104292380Y-115116190D02*
X103292380Y-115116190D01*
X103435238Y-115211428D01*
X103530476Y-115306666D01*
X103578095Y-115401904D01*
X104292380Y-113878095D02*
X104292380Y-114449523D01*
X104292380Y-114163809D02*
X103292380Y-114163809D01*
X103435238Y-114259047D01*
X103530476Y-114354285D01*
X103578095Y-114449523D01*
X160122380Y-88166666D02*
X159646190Y-88500000D01*
X160122380Y-88738095D02*
X159122380Y-88738095D01*
X159122380Y-88357142D01*
X159170000Y-88261904D01*
X159217619Y-88214285D01*
X159312857Y-88166666D01*
X159455714Y-88166666D01*
X159550952Y-88214285D01*
X159598571Y-88261904D01*
X159646190Y-88357142D01*
X159646190Y-88738095D01*
X160122380Y-87690476D02*
X160122380Y-87500000D01*
X160074761Y-87404761D01*
X160027142Y-87357142D01*
X159884285Y-87261904D01*
X159693809Y-87214285D01*
X159312857Y-87214285D01*
X159217619Y-87261904D01*
X159170000Y-87309523D01*
X159122380Y-87404761D01*
X159122380Y-87595238D01*
X159170000Y-87690476D01*
X159217619Y-87738095D01*
X159312857Y-87785714D01*
X159550952Y-87785714D01*
X159646190Y-87738095D01*
X159693809Y-87690476D01*
X159741428Y-87595238D01*
X159741428Y-87404761D01*
X159693809Y-87309523D01*
X159646190Y-87261904D01*
X159550952Y-87214285D01*
X151113080Y-85352057D02*
X150636890Y-85685390D01*
X151113080Y-85923485D02*
X150113080Y-85923485D01*
X150113080Y-85542533D01*
X150160700Y-85447295D01*
X150208319Y-85399676D01*
X150303557Y-85352057D01*
X150446414Y-85352057D01*
X150541652Y-85399676D01*
X150589271Y-85447295D01*
X150636890Y-85542533D01*
X150636890Y-85923485D01*
X151113080Y-84399676D02*
X151113080Y-84971104D01*
X151113080Y-84685390D02*
X150113080Y-84685390D01*
X150255938Y-84780628D01*
X150351176Y-84875866D01*
X150398795Y-84971104D01*
X151113080Y-83447295D02*
X151113080Y-84018723D01*
X151113080Y-83733009D02*
X150113080Y-83733009D01*
X150255938Y-83828247D01*
X150351176Y-83923485D01*
X150398795Y-84018723D01*
X125082142Y-92662380D02*
X124748809Y-92186190D01*
X124510714Y-92662380D02*
X124510714Y-91662380D01*
X124891666Y-91662380D01*
X124986904Y-91710000D01*
X125034523Y-91757619D01*
X125082142Y-91852857D01*
X125082142Y-91995714D01*
X125034523Y-92090952D01*
X124986904Y-92138571D01*
X124891666Y-92186190D01*
X124510714Y-92186190D01*
X126034523Y-92662380D02*
X125463095Y-92662380D01*
X125748809Y-92662380D02*
X125748809Y-91662380D01*
X125653571Y-91805238D01*
X125558333Y-91900476D01*
X125463095Y-91948095D01*
X126891666Y-91662380D02*
X126701190Y-91662380D01*
X126605952Y-91710000D01*
X126558333Y-91757619D01*
X126463095Y-91900476D01*
X126415476Y-92090952D01*
X126415476Y-92471904D01*
X126463095Y-92567142D01*
X126510714Y-92614761D01*
X126605952Y-92662380D01*
X126796428Y-92662380D01*
X126891666Y-92614761D01*
X126939285Y-92567142D01*
X126986904Y-92471904D01*
X126986904Y-92233809D01*
X126939285Y-92138571D01*
X126891666Y-92090952D01*
X126796428Y-92043333D01*
X126605952Y-92043333D01*
X126510714Y-92090952D01*
X126463095Y-92138571D01*
X126415476Y-92233809D01*
X107457142Y-68842380D02*
X107123809Y-68366190D01*
X106885714Y-68842380D02*
X106885714Y-67842380D01*
X107266666Y-67842380D01*
X107361904Y-67890000D01*
X107409523Y-67937619D01*
X107457142Y-68032857D01*
X107457142Y-68175714D01*
X107409523Y-68270952D01*
X107361904Y-68318571D01*
X107266666Y-68366190D01*
X106885714Y-68366190D01*
X107838095Y-67937619D02*
X107885714Y-67890000D01*
X107980952Y-67842380D01*
X108219047Y-67842380D01*
X108314285Y-67890000D01*
X108361904Y-67937619D01*
X108409523Y-68032857D01*
X108409523Y-68128095D01*
X108361904Y-68270952D01*
X107790476Y-68842380D01*
X108409523Y-68842380D01*
X108790476Y-67937619D02*
X108838095Y-67890000D01*
X108933333Y-67842380D01*
X109171428Y-67842380D01*
X109266666Y-67890000D01*
X109314285Y-67937619D01*
X109361904Y-68032857D01*
X109361904Y-68128095D01*
X109314285Y-68270952D01*
X108742857Y-68842380D01*
X109361904Y-68842380D01*
X142774761Y-71693333D02*
X142822380Y-71550476D01*
X142822380Y-71312380D01*
X142774761Y-71217142D01*
X142727142Y-71169523D01*
X142631904Y-71121904D01*
X142536666Y-71121904D01*
X142441428Y-71169523D01*
X142393809Y-71217142D01*
X142346190Y-71312380D01*
X142298571Y-71502857D01*
X142250952Y-71598095D01*
X142203333Y-71645714D01*
X142108095Y-71693333D01*
X142012857Y-71693333D01*
X141917619Y-71645714D01*
X141870000Y-71598095D01*
X141822380Y-71502857D01*
X141822380Y-71264761D01*
X141870000Y-71121904D01*
X141822380Y-70788571D02*
X142822380Y-70550476D01*
X142108095Y-70360000D01*
X142822380Y-70169523D01*
X141822380Y-69931428D01*
X141917619Y-69598095D02*
X141870000Y-69550476D01*
X141822380Y-69455238D01*
X141822380Y-69217142D01*
X141870000Y-69121904D01*
X141917619Y-69074285D01*
X142012857Y-69026666D01*
X142108095Y-69026666D01*
X142250952Y-69074285D01*
X142822380Y-69645714D01*
X142822380Y-69026666D01*
X136351904Y-61162380D02*
X136351904Y-60162380D01*
X136590000Y-60162380D01*
X136732857Y-60210000D01*
X136828095Y-60305238D01*
X136875714Y-60400476D01*
X136923333Y-60590952D01*
X136923333Y-60733809D01*
X136875714Y-60924285D01*
X136828095Y-61019523D01*
X136732857Y-61114761D01*
X136590000Y-61162380D01*
X136351904Y-61162380D01*
X137875714Y-61162380D02*
X137304285Y-61162380D01*
X137590000Y-61162380D02*
X137590000Y-60162380D01*
X137494761Y-60305238D01*
X137399523Y-60400476D01*
X137304285Y-60448095D01*
X165070333Y-75363380D02*
X164737000Y-74887190D01*
X164498904Y-75363380D02*
X164498904Y-74363380D01*
X164879857Y-74363380D01*
X164975095Y-74411000D01*
X165022714Y-74458619D01*
X165070333Y-74553857D01*
X165070333Y-74696714D01*
X165022714Y-74791952D01*
X164975095Y-74839571D01*
X164879857Y-74887190D01*
X164498904Y-74887190D01*
X165975095Y-74363380D02*
X165498904Y-74363380D01*
X165451285Y-74839571D01*
X165498904Y-74791952D01*
X165594142Y-74744333D01*
X165832238Y-74744333D01*
X165927476Y-74791952D01*
X165975095Y-74839571D01*
X166022714Y-74934809D01*
X166022714Y-75172904D01*
X165975095Y-75268142D01*
X165927476Y-75315761D01*
X165832238Y-75363380D01*
X165594142Y-75363380D01*
X165498904Y-75315761D01*
X165451285Y-75268142D01*
X107314761Y-47092380D02*
X106981428Y-46616190D01*
X106743333Y-47092380D02*
X106743333Y-46092380D01*
X107124285Y-46092380D01*
X107219523Y-46140000D01*
X107267142Y-46187619D01*
X107314761Y-46282857D01*
X107314761Y-46425714D01*
X107267142Y-46520952D01*
X107219523Y-46568571D01*
X107124285Y-46616190D01*
X106743333Y-46616190D01*
X107695714Y-46187619D02*
X107743333Y-46140000D01*
X107838571Y-46092380D01*
X108076666Y-46092380D01*
X108171904Y-46140000D01*
X108219523Y-46187619D01*
X108267142Y-46282857D01*
X108267142Y-46378095D01*
X108219523Y-46520952D01*
X107648095Y-47092380D01*
X108267142Y-47092380D01*
X109124285Y-47092380D02*
X109124285Y-46568571D01*
X109076666Y-46473333D01*
X108981428Y-46425714D01*
X108790952Y-46425714D01*
X108695714Y-46473333D01*
X109124285Y-47044761D02*
X109029047Y-47092380D01*
X108790952Y-47092380D01*
X108695714Y-47044761D01*
X108648095Y-46949523D01*
X108648095Y-46854285D01*
X108695714Y-46759047D01*
X108790952Y-46711428D01*
X109029047Y-46711428D01*
X109124285Y-46663809D01*
X110124285Y-47092380D02*
X109552857Y-47092380D01*
X109838571Y-47092380D02*
X109838571Y-46092380D01*
X109743333Y-46235238D01*
X109648095Y-46330476D01*
X109552857Y-46378095D01*
X107384761Y-51242380D02*
X107051428Y-50766190D01*
X106813333Y-51242380D02*
X106813333Y-50242380D01*
X107194285Y-50242380D01*
X107289523Y-50290000D01*
X107337142Y-50337619D01*
X107384761Y-50432857D01*
X107384761Y-50575714D01*
X107337142Y-50670952D01*
X107289523Y-50718571D01*
X107194285Y-50766190D01*
X106813333Y-50766190D01*
X108337142Y-51242380D02*
X107765714Y-51242380D01*
X108051428Y-51242380D02*
X108051428Y-50242380D01*
X107956190Y-50385238D01*
X107860952Y-50480476D01*
X107765714Y-50528095D01*
X109194285Y-51242380D02*
X109194285Y-50718571D01*
X109146666Y-50623333D01*
X109051428Y-50575714D01*
X108860952Y-50575714D01*
X108765714Y-50623333D01*
X109194285Y-51194761D02*
X109099047Y-51242380D01*
X108860952Y-51242380D01*
X108765714Y-51194761D01*
X108718095Y-51099523D01*
X108718095Y-51004285D01*
X108765714Y-50909047D01*
X108860952Y-50861428D01*
X109099047Y-50861428D01*
X109194285Y-50813809D01*
X110194285Y-51242380D02*
X109622857Y-51242380D01*
X109908571Y-51242380D02*
X109908571Y-50242380D01*
X109813333Y-50385238D01*
X109718095Y-50480476D01*
X109622857Y-50528095D01*
X142194761Y-60893333D02*
X142242380Y-60750476D01*
X142242380Y-60512380D01*
X142194761Y-60417142D01*
X142147142Y-60369523D01*
X142051904Y-60321904D01*
X141956666Y-60321904D01*
X141861428Y-60369523D01*
X141813809Y-60417142D01*
X141766190Y-60512380D01*
X141718571Y-60702857D01*
X141670952Y-60798095D01*
X141623333Y-60845714D01*
X141528095Y-60893333D01*
X141432857Y-60893333D01*
X141337619Y-60845714D01*
X141290000Y-60798095D01*
X141242380Y-60702857D01*
X141242380Y-60464761D01*
X141290000Y-60321904D01*
X141242380Y-59988571D02*
X142242380Y-59750476D01*
X141528095Y-59560000D01*
X142242380Y-59369523D01*
X141242380Y-59131428D01*
X142242380Y-58226666D02*
X142242380Y-58798095D01*
X142242380Y-58512380D02*
X141242380Y-58512380D01*
X141385238Y-58607619D01*
X141480476Y-58702857D01*
X141528095Y-58798095D01*
X136903333Y-54202380D02*
X136570000Y-53726190D01*
X136331904Y-54202380D02*
X136331904Y-53202380D01*
X136712857Y-53202380D01*
X136808095Y-53250000D01*
X136855714Y-53297619D01*
X136903333Y-53392857D01*
X136903333Y-53535714D01*
X136855714Y-53630952D01*
X136808095Y-53678571D01*
X136712857Y-53726190D01*
X136331904Y-53726190D01*
X137855714Y-54202380D02*
X137284285Y-54202380D01*
X137570000Y-54202380D02*
X137570000Y-53202380D01*
X137474761Y-53345238D01*
X137379523Y-53440476D01*
X137284285Y-53488095D01*
X163822380Y-87966666D02*
X163346190Y-88300000D01*
X163822380Y-88538095D02*
X162822380Y-88538095D01*
X162822380Y-88157142D01*
X162870000Y-88061904D01*
X162917619Y-88014285D01*
X163012857Y-87966666D01*
X163155714Y-87966666D01*
X163250952Y-88014285D01*
X163298571Y-88061904D01*
X163346190Y-88157142D01*
X163346190Y-88538095D01*
X163250952Y-87395238D02*
X163203333Y-87490476D01*
X163155714Y-87538095D01*
X163060476Y-87585714D01*
X163012857Y-87585714D01*
X162917619Y-87538095D01*
X162870000Y-87490476D01*
X162822380Y-87395238D01*
X162822380Y-87204761D01*
X162870000Y-87109523D01*
X162917619Y-87061904D01*
X163012857Y-87014285D01*
X163060476Y-87014285D01*
X163155714Y-87061904D01*
X163203333Y-87109523D01*
X163250952Y-87204761D01*
X163250952Y-87395238D01*
X163298571Y-87490476D01*
X163346190Y-87538095D01*
X163441428Y-87585714D01*
X163631904Y-87585714D01*
X163727142Y-87538095D01*
X163774761Y-87490476D01*
X163822380Y-87395238D01*
X163822380Y-87204761D01*
X163774761Y-87109523D01*
X163727142Y-87061904D01*
X163631904Y-87014285D01*
X163441428Y-87014285D01*
X163346190Y-87061904D01*
X163298571Y-87109523D01*
X163250952Y-87204761D01*
X141399761Y-102792380D02*
X141066428Y-102316190D01*
X140828333Y-102792380D02*
X140828333Y-101792380D01*
X141209285Y-101792380D01*
X141304523Y-101840000D01*
X141352142Y-101887619D01*
X141399761Y-101982857D01*
X141399761Y-102125714D01*
X141352142Y-102220952D01*
X141304523Y-102268571D01*
X141209285Y-102316190D01*
X140828333Y-102316190D01*
X141685476Y-101792380D02*
X142018809Y-102792380D01*
X142352142Y-101792380D01*
X143209285Y-102792380D02*
X142637857Y-102792380D01*
X142923571Y-102792380D02*
X142923571Y-101792380D01*
X142828333Y-101935238D01*
X142733095Y-102030476D01*
X142637857Y-102078095D01*
X80778095Y-134082380D02*
X80778095Y-133082380D01*
X80778095Y-133558571D02*
X81349523Y-133558571D01*
X81349523Y-134082380D02*
X81349523Y-133082380D01*
X81778095Y-133177619D02*
X81825714Y-133130000D01*
X81920952Y-133082380D01*
X82159047Y-133082380D01*
X82254285Y-133130000D01*
X82301904Y-133177619D01*
X82349523Y-133272857D01*
X82349523Y-133368095D01*
X82301904Y-133510952D01*
X81730476Y-134082380D01*
X82349523Y-134082380D01*
X126922380Y-68482857D02*
X126446190Y-68816190D01*
X126922380Y-69054285D02*
X125922380Y-69054285D01*
X125922380Y-68673333D01*
X125970000Y-68578095D01*
X126017619Y-68530476D01*
X126112857Y-68482857D01*
X126255714Y-68482857D01*
X126350952Y-68530476D01*
X126398571Y-68578095D01*
X126446190Y-68673333D01*
X126446190Y-69054285D01*
X126922380Y-67530476D02*
X126922380Y-68101904D01*
X126922380Y-67816190D02*
X125922380Y-67816190D01*
X126065238Y-67911428D01*
X126160476Y-68006666D01*
X126208095Y-68101904D01*
X125922380Y-67197142D02*
X125922380Y-66578095D01*
X126303333Y-66911428D01*
X126303333Y-66768571D01*
X126350952Y-66673333D01*
X126398571Y-66625714D01*
X126493809Y-66578095D01*
X126731904Y-66578095D01*
X126827142Y-66625714D01*
X126874761Y-66673333D01*
X126922380Y-66768571D01*
X126922380Y-67054285D01*
X126874761Y-67149523D01*
X126827142Y-67197142D01*
X110776904Y-99852380D02*
X110776904Y-98852380D01*
X111015000Y-98852380D01*
X111157857Y-98900000D01*
X111253095Y-98995238D01*
X111300714Y-99090476D01*
X111348333Y-99280952D01*
X111348333Y-99423809D01*
X111300714Y-99614285D01*
X111253095Y-99709523D01*
X111157857Y-99804761D01*
X111015000Y-99852380D01*
X110776904Y-99852380D01*
X111681666Y-98852380D02*
X112300714Y-98852380D01*
X111967380Y-99233333D01*
X112110238Y-99233333D01*
X112205476Y-99280952D01*
X112253095Y-99328571D01*
X112300714Y-99423809D01*
X112300714Y-99661904D01*
X112253095Y-99757142D01*
X112205476Y-99804761D01*
X112110238Y-99852380D01*
X111824523Y-99852380D01*
X111729285Y-99804761D01*
X111681666Y-99757142D01*
X97682380Y-65472857D02*
X97206190Y-65806190D01*
X97682380Y-66044285D02*
X96682380Y-66044285D01*
X96682380Y-65663333D01*
X96730000Y-65568095D01*
X96777619Y-65520476D01*
X96872857Y-65472857D01*
X97015714Y-65472857D01*
X97110952Y-65520476D01*
X97158571Y-65568095D01*
X97206190Y-65663333D01*
X97206190Y-66044285D01*
X96777619Y-65091904D02*
X96730000Y-65044285D01*
X96682380Y-64949047D01*
X96682380Y-64710952D01*
X96730000Y-64615714D01*
X96777619Y-64568095D01*
X96872857Y-64520476D01*
X96968095Y-64520476D01*
X97110952Y-64568095D01*
X97682380Y-65139523D01*
X97682380Y-64520476D01*
X97015714Y-63663333D02*
X97682380Y-63663333D01*
X96634761Y-63901428D02*
X97349047Y-64139523D01*
X97349047Y-63520476D01*
X104187142Y-140352380D02*
X103853809Y-139876190D01*
X103615714Y-140352380D02*
X103615714Y-139352380D01*
X103996666Y-139352380D01*
X104091904Y-139400000D01*
X104139523Y-139447619D01*
X104187142Y-139542857D01*
X104187142Y-139685714D01*
X104139523Y-139780952D01*
X104091904Y-139828571D01*
X103996666Y-139876190D01*
X103615714Y-139876190D01*
X104568095Y-139447619D02*
X104615714Y-139400000D01*
X104710952Y-139352380D01*
X104949047Y-139352380D01*
X105044285Y-139400000D01*
X105091904Y-139447619D01*
X105139523Y-139542857D01*
X105139523Y-139638095D01*
X105091904Y-139780952D01*
X104520476Y-140352380D01*
X105139523Y-140352380D01*
X105758571Y-139352380D02*
X105853809Y-139352380D01*
X105949047Y-139400000D01*
X105996666Y-139447619D01*
X106044285Y-139542857D01*
X106091904Y-139733333D01*
X106091904Y-139971428D01*
X106044285Y-140161904D01*
X105996666Y-140257142D01*
X105949047Y-140304761D01*
X105853809Y-140352380D01*
X105758571Y-140352380D01*
X105663333Y-140304761D01*
X105615714Y-140257142D01*
X105568095Y-140161904D01*
X105520476Y-139971428D01*
X105520476Y-139733333D01*
X105568095Y-139542857D01*
X105615714Y-139447619D01*
X105663333Y-139400000D01*
X105758571Y-139352380D01*
X112887142Y-61576666D02*
X112934761Y-61624285D01*
X112982380Y-61767142D01*
X112982380Y-61862380D01*
X112934761Y-62005238D01*
X112839523Y-62100476D01*
X112744285Y-62148095D01*
X112553809Y-62195714D01*
X112410952Y-62195714D01*
X112220476Y-62148095D01*
X112125238Y-62100476D01*
X112030000Y-62005238D01*
X111982380Y-61862380D01*
X111982380Y-61767142D01*
X112030000Y-61624285D01*
X112077619Y-61576666D01*
X111982380Y-60719523D02*
X111982380Y-60910000D01*
X112030000Y-61005238D01*
X112077619Y-61052857D01*
X112220476Y-61148095D01*
X112410952Y-61195714D01*
X112791904Y-61195714D01*
X112887142Y-61148095D01*
X112934761Y-61100476D01*
X112982380Y-61005238D01*
X112982380Y-60814761D01*
X112934761Y-60719523D01*
X112887142Y-60671904D01*
X112791904Y-60624285D01*
X112553809Y-60624285D01*
X112458571Y-60671904D01*
X112410952Y-60719523D01*
X112363333Y-60814761D01*
X112363333Y-61005238D01*
X112410952Y-61100476D01*
X112458571Y-61148095D01*
X112553809Y-61195714D01*
X147752380Y-83686666D02*
X147276190Y-84020000D01*
X147752380Y-84258095D02*
X146752380Y-84258095D01*
X146752380Y-83877142D01*
X146800000Y-83781904D01*
X146847619Y-83734285D01*
X146942857Y-83686666D01*
X147085714Y-83686666D01*
X147180952Y-83734285D01*
X147228571Y-83781904D01*
X147276190Y-83877142D01*
X147276190Y-84258095D01*
X146752380Y-83353333D02*
X146752380Y-82686666D01*
X147752380Y-83115238D01*
X85966666Y-51652380D02*
X85966666Y-52366666D01*
X85919047Y-52509523D01*
X85823809Y-52604761D01*
X85680952Y-52652380D01*
X85585714Y-52652380D01*
X86347619Y-51652380D02*
X86966666Y-51652380D01*
X86633333Y-52033333D01*
X86776190Y-52033333D01*
X86871428Y-52080952D01*
X86919047Y-52128571D01*
X86966666Y-52223809D01*
X86966666Y-52461904D01*
X86919047Y-52557142D01*
X86871428Y-52604761D01*
X86776190Y-52652380D01*
X86490476Y-52652380D01*
X86395238Y-52604761D01*
X86347619Y-52557142D01*
X131893333Y-53797142D02*
X131845714Y-53844761D01*
X131702857Y-53892380D01*
X131607619Y-53892380D01*
X131464761Y-53844761D01*
X131369523Y-53749523D01*
X131321904Y-53654285D01*
X131274285Y-53463809D01*
X131274285Y-53320952D01*
X131321904Y-53130476D01*
X131369523Y-53035238D01*
X131464761Y-52940000D01*
X131607619Y-52892380D01*
X131702857Y-52892380D01*
X131845714Y-52940000D01*
X131893333Y-52987619D01*
X132274285Y-52987619D02*
X132321904Y-52940000D01*
X132417142Y-52892380D01*
X132655238Y-52892380D01*
X132750476Y-52940000D01*
X132798095Y-52987619D01*
X132845714Y-53082857D01*
X132845714Y-53178095D01*
X132798095Y-53320952D01*
X132226666Y-53892380D01*
X132845714Y-53892380D01*
X137113333Y-71942380D02*
X136780000Y-71466190D01*
X136541904Y-71942380D02*
X136541904Y-70942380D01*
X136922857Y-70942380D01*
X137018095Y-70990000D01*
X137065714Y-71037619D01*
X137113333Y-71132857D01*
X137113333Y-71275714D01*
X137065714Y-71370952D01*
X137018095Y-71418571D01*
X136922857Y-71466190D01*
X136541904Y-71466190D01*
X137970476Y-70942380D02*
X137780000Y-70942380D01*
X137684761Y-70990000D01*
X137637142Y-71037619D01*
X137541904Y-71180476D01*
X137494285Y-71370952D01*
X137494285Y-71751904D01*
X137541904Y-71847142D01*
X137589523Y-71894761D01*
X137684761Y-71942380D01*
X137875238Y-71942380D01*
X137970476Y-71894761D01*
X138018095Y-71847142D01*
X138065714Y-71751904D01*
X138065714Y-71513809D01*
X138018095Y-71418571D01*
X137970476Y-71370952D01*
X137875238Y-71323333D01*
X137684761Y-71323333D01*
X137589523Y-71370952D01*
X137541904Y-71418571D01*
X137494285Y-71513809D01*
D11*
X87979047Y-64205476D02*
X87858095Y-64145000D01*
X87737142Y-64024047D01*
X87555714Y-63842619D01*
X87434761Y-63782142D01*
X87313809Y-63782142D01*
X87374285Y-64084523D02*
X87253333Y-64024047D01*
X87132380Y-63903095D01*
X87071904Y-63661190D01*
X87071904Y-63237857D01*
X87132380Y-62995952D01*
X87253333Y-62875000D01*
X87374285Y-62814523D01*
X87616190Y-62814523D01*
X87737142Y-62875000D01*
X87858095Y-62995952D01*
X87918571Y-63237857D01*
X87918571Y-63661190D01*
X87858095Y-63903095D01*
X87737142Y-64024047D01*
X87616190Y-64084523D01*
X87374285Y-64084523D01*
X89007142Y-63237857D02*
X89007142Y-64084523D01*
X88704761Y-62754047D02*
X88402380Y-63661190D01*
X89188571Y-63661190D01*
D10*
X109267142Y-61466666D02*
X109314761Y-61514285D01*
X109362380Y-61657142D01*
X109362380Y-61752380D01*
X109314761Y-61895238D01*
X109219523Y-61990476D01*
X109124285Y-62038095D01*
X108933809Y-62085714D01*
X108790952Y-62085714D01*
X108600476Y-62038095D01*
X108505238Y-61990476D01*
X108410000Y-61895238D01*
X108362380Y-61752380D01*
X108362380Y-61657142D01*
X108410000Y-61514285D01*
X108457619Y-61466666D01*
X108362380Y-60561904D02*
X108362380Y-61038095D01*
X108838571Y-61085714D01*
X108790952Y-61038095D01*
X108743333Y-60942857D01*
X108743333Y-60704761D01*
X108790952Y-60609523D01*
X108838571Y-60561904D01*
X108933809Y-60514285D01*
X109171904Y-60514285D01*
X109267142Y-60561904D01*
X109314761Y-60609523D01*
X109362380Y-60704761D01*
X109362380Y-60942857D01*
X109314761Y-61038095D01*
X109267142Y-61085714D01*
X137069166Y-124782380D02*
X137069166Y-125496666D01*
X137021547Y-125639523D01*
X136926309Y-125734761D01*
X136783452Y-125782380D01*
X136688214Y-125782380D01*
X137973928Y-125115714D02*
X137973928Y-125782380D01*
X137735833Y-124734761D02*
X137497738Y-125449047D01*
X138116785Y-125449047D01*
X171466666Y-92252380D02*
X171466666Y-92966666D01*
X171419047Y-93109523D01*
X171323809Y-93204761D01*
X171180952Y-93252380D01*
X171085714Y-93252380D01*
X172419047Y-92252380D02*
X171942857Y-92252380D01*
X171895238Y-92728571D01*
X171942857Y-92680952D01*
X172038095Y-92633333D01*
X172276190Y-92633333D01*
X172371428Y-92680952D01*
X172419047Y-92728571D01*
X172466666Y-92823809D01*
X172466666Y-93061904D01*
X172419047Y-93157142D01*
X172371428Y-93204761D01*
X172276190Y-93252380D01*
X172038095Y-93252380D01*
X171942857Y-93204761D01*
X171895238Y-93157142D01*
X103807142Y-105689642D02*
X103759523Y-105737261D01*
X103616666Y-105784880D01*
X103521428Y-105784880D01*
X103378571Y-105737261D01*
X103283333Y-105642023D01*
X103235714Y-105546785D01*
X103188095Y-105356309D01*
X103188095Y-105213452D01*
X103235714Y-105022976D01*
X103283333Y-104927738D01*
X103378571Y-104832500D01*
X103521428Y-104784880D01*
X103616666Y-104784880D01*
X103759523Y-104832500D01*
X103807142Y-104880119D01*
X104759523Y-105784880D02*
X104188095Y-105784880D01*
X104473809Y-105784880D02*
X104473809Y-104784880D01*
X104378571Y-104927738D01*
X104283333Y-105022976D01*
X104188095Y-105070595D01*
X105092857Y-104784880D02*
X105711904Y-104784880D01*
X105378571Y-105165833D01*
X105521428Y-105165833D01*
X105616666Y-105213452D01*
X105664285Y-105261071D01*
X105711904Y-105356309D01*
X105711904Y-105594404D01*
X105664285Y-105689642D01*
X105616666Y-105737261D01*
X105521428Y-105784880D01*
X105235714Y-105784880D01*
X105140476Y-105737261D01*
X105092857Y-105689642D01*
X123975903Y-72824234D02*
X123928244Y-72919554D01*
X123832924Y-73014874D01*
X123689944Y-73157854D01*
X123642284Y-73253173D01*
X123642284Y-73348493D01*
X123880584Y-73300833D02*
X123832924Y-73396153D01*
X123737604Y-73491473D01*
X123546964Y-73539133D01*
X123213345Y-73539133D01*
X123022705Y-73491473D01*
X122927386Y-73396153D01*
X122879726Y-73300833D01*
X122879726Y-73110194D01*
X122927386Y-73014874D01*
X123022705Y-72919554D01*
X123213345Y-72871894D01*
X123546964Y-72871894D01*
X123737604Y-72919554D01*
X123832924Y-73014874D01*
X123880584Y-73110194D01*
X123880584Y-73300833D01*
X122975045Y-72490615D02*
X122927386Y-72442955D01*
X122879726Y-72347635D01*
X122879726Y-72109336D01*
X122927386Y-72014016D01*
X122975045Y-71966356D01*
X123070365Y-71918696D01*
X123165685Y-71918696D01*
X123308665Y-71966356D01*
X123880584Y-72538275D01*
X123880584Y-71918696D01*
X137332142Y-95182380D02*
X136998809Y-94706190D01*
X136760714Y-95182380D02*
X136760714Y-94182380D01*
X137141666Y-94182380D01*
X137236904Y-94230000D01*
X137284523Y-94277619D01*
X137332142Y-94372857D01*
X137332142Y-94515714D01*
X137284523Y-94610952D01*
X137236904Y-94658571D01*
X137141666Y-94706190D01*
X136760714Y-94706190D01*
X138284523Y-95182380D02*
X137713095Y-95182380D01*
X137998809Y-95182380D02*
X137998809Y-94182380D01*
X137903571Y-94325238D01*
X137808333Y-94420476D01*
X137713095Y-94468095D01*
X138617857Y-94182380D02*
X139284523Y-94182380D01*
X138855952Y-95182380D01*
X107344761Y-55392380D02*
X107011428Y-54916190D01*
X106773333Y-55392380D02*
X106773333Y-54392380D01*
X107154285Y-54392380D01*
X107249523Y-54440000D01*
X107297142Y-54487619D01*
X107344761Y-54582857D01*
X107344761Y-54725714D01*
X107297142Y-54820952D01*
X107249523Y-54868571D01*
X107154285Y-54916190D01*
X106773333Y-54916190D01*
X107678095Y-54392380D02*
X108297142Y-54392380D01*
X107963809Y-54773333D01*
X108106666Y-54773333D01*
X108201904Y-54820952D01*
X108249523Y-54868571D01*
X108297142Y-54963809D01*
X108297142Y-55201904D01*
X108249523Y-55297142D01*
X108201904Y-55344761D01*
X108106666Y-55392380D01*
X107820952Y-55392380D01*
X107725714Y-55344761D01*
X107678095Y-55297142D01*
X109154285Y-55392380D02*
X109154285Y-54868571D01*
X109106666Y-54773333D01*
X109011428Y-54725714D01*
X108820952Y-54725714D01*
X108725714Y-54773333D01*
X109154285Y-55344761D02*
X109059047Y-55392380D01*
X108820952Y-55392380D01*
X108725714Y-55344761D01*
X108678095Y-55249523D01*
X108678095Y-55154285D01*
X108725714Y-55059047D01*
X108820952Y-55011428D01*
X109059047Y-55011428D01*
X109154285Y-54963809D01*
X110154285Y-55392380D02*
X109582857Y-55392380D01*
X109868571Y-55392380D02*
X109868571Y-54392380D01*
X109773333Y-54535238D01*
X109678095Y-54630476D01*
X109582857Y-54678095D01*
X115338095Y-135652380D02*
X115338095Y-136461904D01*
X115385714Y-136557142D01*
X115433333Y-136604761D01*
X115528571Y-136652380D01*
X115719047Y-136652380D01*
X115814285Y-136604761D01*
X115861904Y-136557142D01*
X115909523Y-136461904D01*
X115909523Y-135652380D01*
X116814285Y-135985714D02*
X116814285Y-136652380D01*
X116576190Y-135604761D02*
X116338095Y-136319047D01*
X116957142Y-136319047D01*
X130352380Y-106638095D02*
X129352380Y-106638095D01*
X129352380Y-106400000D01*
X129400000Y-106257142D01*
X129495238Y-106161904D01*
X129590476Y-106114285D01*
X129780952Y-106066666D01*
X129923809Y-106066666D01*
X130114285Y-106114285D01*
X130209523Y-106161904D01*
X130304761Y-106257142D01*
X130352380Y-106400000D01*
X130352380Y-106638095D01*
X129685714Y-105209523D02*
X130352380Y-105209523D01*
X129304761Y-105447619D02*
X130019047Y-105685714D01*
X130019047Y-105066666D01*
X100332380Y-69702857D02*
X99856190Y-70036190D01*
X100332380Y-70274285D02*
X99332380Y-70274285D01*
X99332380Y-69893333D01*
X99380000Y-69798095D01*
X99427619Y-69750476D01*
X99522857Y-69702857D01*
X99665714Y-69702857D01*
X99760952Y-69750476D01*
X99808571Y-69798095D01*
X99856190Y-69893333D01*
X99856190Y-70274285D01*
X99427619Y-69321904D02*
X99380000Y-69274285D01*
X99332380Y-69179047D01*
X99332380Y-68940952D01*
X99380000Y-68845714D01*
X99427619Y-68798095D01*
X99522857Y-68750476D01*
X99618095Y-68750476D01*
X99760952Y-68798095D01*
X100332380Y-69369523D01*
X100332380Y-68750476D01*
X99332380Y-68417142D02*
X99332380Y-67798095D01*
X99713333Y-68131428D01*
X99713333Y-67988571D01*
X99760952Y-67893333D01*
X99808571Y-67845714D01*
X99903809Y-67798095D01*
X100141904Y-67798095D01*
X100237142Y-67845714D01*
X100284761Y-67893333D01*
X100332380Y-67988571D01*
X100332380Y-68274285D01*
X100284761Y-68369523D01*
X100237142Y-68417142D01*
X167928095Y-109172380D02*
X167928095Y-108172380D01*
X167928095Y-108648571D02*
X168499523Y-108648571D01*
X168499523Y-109172380D02*
X168499523Y-108172380D01*
X169499523Y-109172380D02*
X168928095Y-109172380D01*
X169213809Y-109172380D02*
X169213809Y-108172380D01*
X169118571Y-108315238D01*
X169023333Y-108410476D01*
X168928095Y-108458095D01*
X147650780Y-79082857D02*
X147174590Y-79416190D01*
X147650780Y-79654285D02*
X146650780Y-79654285D01*
X146650780Y-79273333D01*
X146698400Y-79178095D01*
X146746019Y-79130476D01*
X146841257Y-79082857D01*
X146984114Y-79082857D01*
X147079352Y-79130476D01*
X147126971Y-79178095D01*
X147174590Y-79273333D01*
X147174590Y-79654285D01*
X147650780Y-78130476D02*
X147650780Y-78701904D01*
X147650780Y-78416190D02*
X146650780Y-78416190D01*
X146793638Y-78511428D01*
X146888876Y-78606666D01*
X146936495Y-78701904D01*
X146746019Y-77749523D02*
X146698400Y-77701904D01*
X146650780Y-77606666D01*
X146650780Y-77368571D01*
X146698400Y-77273333D01*
X146746019Y-77225714D01*
X146841257Y-77178095D01*
X146936495Y-77178095D01*
X147079352Y-77225714D01*
X147650780Y-77797142D01*
X147650780Y-77178095D01*
X87788095Y-106172380D02*
X87788095Y-106981904D01*
X87835714Y-107077142D01*
X87883333Y-107124761D01*
X87978571Y-107172380D01*
X88169047Y-107172380D01*
X88264285Y-107124761D01*
X88311904Y-107077142D01*
X88359523Y-106981904D01*
X88359523Y-106172380D01*
X89311904Y-106172380D02*
X88835714Y-106172380D01*
X88788095Y-106648571D01*
X88835714Y-106600952D01*
X88930952Y-106553333D01*
X89169047Y-106553333D01*
X89264285Y-106600952D01*
X89311904Y-106648571D01*
X89359523Y-106743809D01*
X89359523Y-106981904D01*
X89311904Y-107077142D01*
X89264285Y-107124761D01*
X89169047Y-107172380D01*
X88930952Y-107172380D01*
X88835714Y-107124761D01*
X88788095Y-107077142D01*
X128272380Y-86563333D02*
X128986666Y-86563333D01*
X129129523Y-86610952D01*
X129224761Y-86706190D01*
X129272380Y-86849047D01*
X129272380Y-86944285D01*
X129272380Y-86087142D02*
X128272380Y-86087142D01*
X128272380Y-85706190D01*
X128320000Y-85610952D01*
X128367619Y-85563333D01*
X128462857Y-85515714D01*
X128605714Y-85515714D01*
X128700952Y-85563333D01*
X128748571Y-85610952D01*
X128796190Y-85706190D01*
X128796190Y-86087142D01*
X129272380Y-84563333D02*
X129272380Y-85134761D01*
X129272380Y-84849047D02*
X128272380Y-84849047D01*
X128415238Y-84944285D01*
X128510476Y-85039523D01*
X128558095Y-85134761D01*
X120564761Y-118337619D02*
X120469523Y-118290000D01*
X120374285Y-118194761D01*
X120231428Y-118051904D01*
X120136190Y-118004285D01*
X120040952Y-118004285D01*
X120088571Y-118242380D02*
X119993333Y-118194761D01*
X119898095Y-118099523D01*
X119850476Y-117909047D01*
X119850476Y-117575714D01*
X119898095Y-117385238D01*
X119993333Y-117290000D01*
X120088571Y-117242380D01*
X120279047Y-117242380D01*
X120374285Y-117290000D01*
X120469523Y-117385238D01*
X120517142Y-117575714D01*
X120517142Y-117909047D01*
X120469523Y-118099523D01*
X120374285Y-118194761D01*
X120279047Y-118242380D01*
X120088571Y-118242380D01*
X121421904Y-117242380D02*
X120945714Y-117242380D01*
X120898095Y-117718571D01*
X120945714Y-117670952D01*
X121040952Y-117623333D01*
X121279047Y-117623333D01*
X121374285Y-117670952D01*
X121421904Y-117718571D01*
X121469523Y-117813809D01*
X121469523Y-118051904D01*
X121421904Y-118147142D01*
X121374285Y-118194761D01*
X121279047Y-118242380D01*
X121040952Y-118242380D01*
X120945714Y-118194761D01*
X120898095Y-118147142D01*
X165938095Y-84382380D02*
X165938095Y-83382380D01*
X165938095Y-83858571D02*
X166509523Y-83858571D01*
X166509523Y-84382380D02*
X166509523Y-83382380D01*
X166890476Y-83382380D02*
X167509523Y-83382380D01*
X167176190Y-83763333D01*
X167319047Y-83763333D01*
X167414285Y-83810952D01*
X167461904Y-83858571D01*
X167509523Y-83953809D01*
X167509523Y-84191904D01*
X167461904Y-84287142D01*
X167414285Y-84334761D01*
X167319047Y-84382380D01*
X167033333Y-84382380D01*
X166938095Y-84334761D01*
X166890476Y-84287142D01*
X112262380Y-50723333D02*
X112976666Y-50723333D01*
X113119523Y-50770952D01*
X113214761Y-50866190D01*
X113262380Y-51009047D01*
X113262380Y-51104285D01*
X113262380Y-49723333D02*
X113262380Y-50294761D01*
X113262380Y-50009047D02*
X112262380Y-50009047D01*
X112405238Y-50104285D01*
X112500476Y-50199523D01*
X112548095Y-50294761D01*
X114352380Y-121342857D02*
X113876190Y-121676190D01*
X114352380Y-121914285D02*
X113352380Y-121914285D01*
X113352380Y-121533333D01*
X113400000Y-121438095D01*
X113447619Y-121390476D01*
X113542857Y-121342857D01*
X113685714Y-121342857D01*
X113780952Y-121390476D01*
X113828571Y-121438095D01*
X113876190Y-121533333D01*
X113876190Y-121914285D01*
X113447619Y-120961904D02*
X113400000Y-120914285D01*
X113352380Y-120819047D01*
X113352380Y-120580952D01*
X113400000Y-120485714D01*
X113447619Y-120438095D01*
X113542857Y-120390476D01*
X113638095Y-120390476D01*
X113780952Y-120438095D01*
X114352380Y-121009523D01*
X114352380Y-120390476D01*
X113352380Y-120057142D02*
X113352380Y-119390476D01*
X114352380Y-119819047D01*
X137123333Y-64957142D02*
X137075714Y-65004761D01*
X136932857Y-65052380D01*
X136837619Y-65052380D01*
X136694761Y-65004761D01*
X136599523Y-64909523D01*
X136551904Y-64814285D01*
X136504285Y-64623809D01*
X136504285Y-64480952D01*
X136551904Y-64290476D01*
X136599523Y-64195238D01*
X136694761Y-64100000D01*
X136837619Y-64052380D01*
X136932857Y-64052380D01*
X137075714Y-64100000D01*
X137123333Y-64147619D01*
X137456666Y-64052380D02*
X138075714Y-64052380D01*
X137742380Y-64433333D01*
X137885238Y-64433333D01*
X137980476Y-64480952D01*
X138028095Y-64528571D01*
X138075714Y-64623809D01*
X138075714Y-64861904D01*
X138028095Y-64957142D01*
X137980476Y-65004761D01*
X137885238Y-65052380D01*
X137599523Y-65052380D01*
X137504285Y-65004761D01*
X137456666Y-64957142D01*
X93307142Y-105347142D02*
X93259523Y-105394761D01*
X93116666Y-105442380D01*
X93021428Y-105442380D01*
X92878571Y-105394761D01*
X92783333Y-105299523D01*
X92735714Y-105204285D01*
X92688095Y-105013809D01*
X92688095Y-104870952D01*
X92735714Y-104680476D01*
X92783333Y-104585238D01*
X92878571Y-104490000D01*
X93021428Y-104442380D01*
X93116666Y-104442380D01*
X93259523Y-104490000D01*
X93307142Y-104537619D01*
X94259523Y-105442380D02*
X93688095Y-105442380D01*
X93973809Y-105442380D02*
X93973809Y-104442380D01*
X93878571Y-104585238D01*
X93783333Y-104680476D01*
X93688095Y-104728095D01*
X94830952Y-104870952D02*
X94735714Y-104823333D01*
X94688095Y-104775714D01*
X94640476Y-104680476D01*
X94640476Y-104632857D01*
X94688095Y-104537619D01*
X94735714Y-104490000D01*
X94830952Y-104442380D01*
X95021428Y-104442380D01*
X95116666Y-104490000D01*
X95164285Y-104537619D01*
X95211904Y-104632857D01*
X95211904Y-104680476D01*
X95164285Y-104775714D01*
X95116666Y-104823333D01*
X95021428Y-104870952D01*
X94830952Y-104870952D01*
X94735714Y-104918571D01*
X94688095Y-104966190D01*
X94640476Y-105061428D01*
X94640476Y-105251904D01*
X94688095Y-105347142D01*
X94735714Y-105394761D01*
X94830952Y-105442380D01*
X95021428Y-105442380D01*
X95116666Y-105394761D01*
X95164285Y-105347142D01*
X95211904Y-105251904D01*
X95211904Y-105061428D01*
X95164285Y-104966190D01*
X95116666Y-104918571D01*
X95021428Y-104870952D01*
X100544761Y-66977619D02*
X100449523Y-66930000D01*
X100354285Y-66834761D01*
X100211428Y-66691904D01*
X100116190Y-66644285D01*
X100020952Y-66644285D01*
X100068571Y-66882380D02*
X99973333Y-66834761D01*
X99878095Y-66739523D01*
X99830476Y-66549047D01*
X99830476Y-66215714D01*
X99878095Y-66025238D01*
X99973333Y-65930000D01*
X100068571Y-65882380D01*
X100259047Y-65882380D01*
X100354285Y-65930000D01*
X100449523Y-66025238D01*
X100497142Y-66215714D01*
X100497142Y-66549047D01*
X100449523Y-66739523D01*
X100354285Y-66834761D01*
X100259047Y-66882380D01*
X100068571Y-66882380D01*
X100830476Y-65882380D02*
X101449523Y-65882380D01*
X101116190Y-66263333D01*
X101259047Y-66263333D01*
X101354285Y-66310952D01*
X101401904Y-66358571D01*
X101449523Y-66453809D01*
X101449523Y-66691904D01*
X101401904Y-66787142D01*
X101354285Y-66834761D01*
X101259047Y-66882380D01*
X100973333Y-66882380D01*
X100878095Y-66834761D01*
X100830476Y-66787142D01*
X156122380Y-88642857D02*
X155646190Y-88976190D01*
X156122380Y-89214285D02*
X155122380Y-89214285D01*
X155122380Y-88833333D01*
X155170000Y-88738095D01*
X155217619Y-88690476D01*
X155312857Y-88642857D01*
X155455714Y-88642857D01*
X155550952Y-88690476D01*
X155598571Y-88738095D01*
X155646190Y-88833333D01*
X155646190Y-89214285D01*
X156122380Y-87690476D02*
X156122380Y-88261904D01*
X156122380Y-87976190D02*
X155122380Y-87976190D01*
X155265238Y-88071428D01*
X155360476Y-88166666D01*
X155408095Y-88261904D01*
X155122380Y-87071428D02*
X155122380Y-86976190D01*
X155170000Y-86880952D01*
X155217619Y-86833333D01*
X155312857Y-86785714D01*
X155503333Y-86738095D01*
X155741428Y-86738095D01*
X155931904Y-86785714D01*
X156027142Y-86833333D01*
X156074761Y-86880952D01*
X156122380Y-86976190D01*
X156122380Y-87071428D01*
X156074761Y-87166666D01*
X156027142Y-87214285D01*
X155931904Y-87261904D01*
X155741428Y-87309523D01*
X155503333Y-87309523D01*
X155312857Y-87261904D01*
X155217619Y-87214285D01*
X155170000Y-87166666D01*
X155122380Y-87071428D01*
X85947142Y-103855357D02*
X85994761Y-103902976D01*
X86042380Y-104045833D01*
X86042380Y-104141071D01*
X85994761Y-104283928D01*
X85899523Y-104379166D01*
X85804285Y-104426785D01*
X85613809Y-104474404D01*
X85470952Y-104474404D01*
X85280476Y-104426785D01*
X85185238Y-104379166D01*
X85090000Y-104283928D01*
X85042380Y-104141071D01*
X85042380Y-104045833D01*
X85090000Y-103902976D01*
X85137619Y-103855357D01*
X86042380Y-102902976D02*
X86042380Y-103474404D01*
X86042380Y-103188690D02*
X85042380Y-103188690D01*
X85185238Y-103283928D01*
X85280476Y-103379166D01*
X85328095Y-103474404D01*
X86042380Y-102426785D02*
X86042380Y-102236309D01*
X85994761Y-102141071D01*
X85947142Y-102093452D01*
X85804285Y-101998214D01*
X85613809Y-101950595D01*
X85232857Y-101950595D01*
X85137619Y-101998214D01*
X85090000Y-102045833D01*
X85042380Y-102141071D01*
X85042380Y-102331547D01*
X85090000Y-102426785D01*
X85137619Y-102474404D01*
X85232857Y-102522023D01*
X85470952Y-102522023D01*
X85566190Y-102474404D01*
X85613809Y-102426785D01*
X85661428Y-102331547D01*
X85661428Y-102141071D01*
X85613809Y-102045833D01*
X85566190Y-101998214D01*
X85470952Y-101950595D01*
X149657142Y-115352380D02*
X149323809Y-114876190D01*
X149085714Y-115352380D02*
X149085714Y-114352380D01*
X149466666Y-114352380D01*
X149561904Y-114400000D01*
X149609523Y-114447619D01*
X149657142Y-114542857D01*
X149657142Y-114685714D01*
X149609523Y-114780952D01*
X149561904Y-114828571D01*
X149466666Y-114876190D01*
X149085714Y-114876190D01*
X150038095Y-114447619D02*
X150085714Y-114400000D01*
X150180952Y-114352380D01*
X150419047Y-114352380D01*
X150514285Y-114400000D01*
X150561904Y-114447619D01*
X150609523Y-114542857D01*
X150609523Y-114638095D01*
X150561904Y-114780952D01*
X149990476Y-115352380D01*
X150609523Y-115352380D01*
X151085714Y-115352380D02*
X151276190Y-115352380D01*
X151371428Y-115304761D01*
X151419047Y-115257142D01*
X151514285Y-115114285D01*
X151561904Y-114923809D01*
X151561904Y-114542857D01*
X151514285Y-114447619D01*
X151466666Y-114400000D01*
X151371428Y-114352380D01*
X151180952Y-114352380D01*
X151085714Y-114400000D01*
X151038095Y-114447619D01*
X150990476Y-114542857D01*
X150990476Y-114780952D01*
X151038095Y-114876190D01*
X151085714Y-114923809D01*
X151180952Y-114971428D01*
X151371428Y-114971428D01*
X151466666Y-114923809D01*
X151514285Y-114876190D01*
X151561904Y-114780952D01*
X165538333Y-79544380D02*
X165205000Y-79068190D01*
X164966904Y-79544380D02*
X164966904Y-78544380D01*
X165347857Y-78544380D01*
X165443095Y-78592000D01*
X165490714Y-78639619D01*
X165538333Y-78734857D01*
X165538333Y-78877714D01*
X165490714Y-78972952D01*
X165443095Y-79020571D01*
X165347857Y-79068190D01*
X164966904Y-79068190D01*
X166395476Y-78877714D02*
X166395476Y-79544380D01*
X166157380Y-78496761D02*
X165919285Y-79211047D01*
X166538333Y-79211047D01*
X137065833Y-67837142D02*
X137018214Y-67884761D01*
X136875357Y-67932380D01*
X136780119Y-67932380D01*
X136637261Y-67884761D01*
X136542023Y-67789523D01*
X136494404Y-67694285D01*
X136446785Y-67503809D01*
X136446785Y-67360952D01*
X136494404Y-67170476D01*
X136542023Y-67075238D01*
X136637261Y-66980000D01*
X136780119Y-66932380D01*
X136875357Y-66932380D01*
X137018214Y-66980000D01*
X137065833Y-67027619D01*
X137922976Y-67265714D02*
X137922976Y-67932380D01*
X137684880Y-66884761D02*
X137446785Y-67599047D01*
X138065833Y-67599047D01*
X142577142Y-118352380D02*
X142243809Y-117876190D01*
X142005714Y-118352380D02*
X142005714Y-117352380D01*
X142386666Y-117352380D01*
X142481904Y-117400000D01*
X142529523Y-117447619D01*
X142577142Y-117542857D01*
X142577142Y-117685714D01*
X142529523Y-117780952D01*
X142481904Y-117828571D01*
X142386666Y-117876190D01*
X142005714Y-117876190D01*
X142958095Y-117447619D02*
X143005714Y-117400000D01*
X143100952Y-117352380D01*
X143339047Y-117352380D01*
X143434285Y-117400000D01*
X143481904Y-117447619D01*
X143529523Y-117542857D01*
X143529523Y-117638095D01*
X143481904Y-117780952D01*
X142910476Y-118352380D01*
X143529523Y-118352380D01*
X144434285Y-117352380D02*
X143958095Y-117352380D01*
X143910476Y-117828571D01*
X143958095Y-117780952D01*
X144053333Y-117733333D01*
X144291428Y-117733333D01*
X144386666Y-117780952D01*
X144434285Y-117828571D01*
X144481904Y-117923809D01*
X144481904Y-118161904D01*
X144434285Y-118257142D01*
X144386666Y-118304761D01*
X144291428Y-118352380D01*
X144053333Y-118352380D01*
X143958095Y-118304761D01*
X143910476Y-118257142D01*
X96347142Y-109819642D02*
X96299523Y-109867261D01*
X96156666Y-109914880D01*
X96061428Y-109914880D01*
X95918571Y-109867261D01*
X95823333Y-109772023D01*
X95775714Y-109676785D01*
X95728095Y-109486309D01*
X95728095Y-109343452D01*
X95775714Y-109152976D01*
X95823333Y-109057738D01*
X95918571Y-108962500D01*
X96061428Y-108914880D01*
X96156666Y-108914880D01*
X96299523Y-108962500D01*
X96347142Y-109010119D01*
X97299523Y-109914880D02*
X96728095Y-109914880D01*
X97013809Y-109914880D02*
X97013809Y-108914880D01*
X96918571Y-109057738D01*
X96823333Y-109152976D01*
X96728095Y-109200595D01*
X97918571Y-108914880D02*
X98013809Y-108914880D01*
X98109047Y-108962500D01*
X98156666Y-109010119D01*
X98204285Y-109105357D01*
X98251904Y-109295833D01*
X98251904Y-109533928D01*
X98204285Y-109724404D01*
X98156666Y-109819642D01*
X98109047Y-109867261D01*
X98013809Y-109914880D01*
X97918571Y-109914880D01*
X97823333Y-109867261D01*
X97775714Y-109819642D01*
X97728095Y-109724404D01*
X97680476Y-109533928D01*
X97680476Y-109295833D01*
X97728095Y-109105357D01*
X97775714Y-109010119D01*
X97823333Y-108962500D01*
X97918571Y-108914880D01*
X95517142Y-137482380D02*
X95183809Y-137006190D01*
X94945714Y-137482380D02*
X94945714Y-136482380D01*
X95326666Y-136482380D01*
X95421904Y-136530000D01*
X95469523Y-136577619D01*
X95517142Y-136672857D01*
X95517142Y-136815714D01*
X95469523Y-136910952D01*
X95421904Y-136958571D01*
X95326666Y-137006190D01*
X94945714Y-137006190D01*
X96469523Y-137482380D02*
X95898095Y-137482380D01*
X96183809Y-137482380D02*
X96183809Y-136482380D01*
X96088571Y-136625238D01*
X95993333Y-136720476D01*
X95898095Y-136768095D01*
X96945714Y-137482380D02*
X97136190Y-137482380D01*
X97231428Y-137434761D01*
X97279047Y-137387142D01*
X97374285Y-137244285D01*
X97421904Y-137053809D01*
X97421904Y-136672857D01*
X97374285Y-136577619D01*
X97326666Y-136530000D01*
X97231428Y-136482380D01*
X97040952Y-136482380D01*
X96945714Y-136530000D01*
X96898095Y-136577619D01*
X96850476Y-136672857D01*
X96850476Y-136910952D01*
X96898095Y-137006190D01*
X96945714Y-137053809D01*
X97040952Y-137101428D01*
X97231428Y-137101428D01*
X97326666Y-137053809D01*
X97374285Y-137006190D01*
X97421904Y-136910952D01*
X125378095Y-102229380D02*
X125378095Y-103038904D01*
X125425714Y-103134142D01*
X125473333Y-103181761D01*
X125568571Y-103229380D01*
X125759047Y-103229380D01*
X125854285Y-103181761D01*
X125901904Y-103134142D01*
X125949523Y-103038904D01*
X125949523Y-102229380D01*
X126378095Y-102324619D02*
X126425714Y-102277000D01*
X126520952Y-102229380D01*
X126759047Y-102229380D01*
X126854285Y-102277000D01*
X126901904Y-102324619D01*
X126949523Y-102419857D01*
X126949523Y-102515095D01*
X126901904Y-102657952D01*
X126330476Y-103229380D01*
X126949523Y-103229380D01*
D12*
X141447064Y-119365000D02*
X140992936Y-119365000D01*
X141447064Y-120835000D02*
X140992936Y-120835000D01*
X119863752Y-69465000D02*
X119341248Y-69465000D01*
X119863752Y-67995000D02*
X119341248Y-67995000D01*
X83645000Y-109758752D02*
X83645000Y-109236248D01*
X85115000Y-109758752D02*
X85115000Y-109236248D01*
X124010000Y-104672936D02*
X124010000Y-105127064D01*
X122540000Y-104672936D02*
X122540000Y-105127064D01*
X119212936Y-137845000D02*
X119667064Y-137845000D01*
X119212936Y-139315000D02*
X119667064Y-139315000D01*
X92623752Y-121695000D02*
X92101248Y-121695000D01*
X92623752Y-123165000D02*
X92101248Y-123165000D01*
X100820000Y-112582500D02*
X101620000Y-112582500D01*
X100820000Y-109462500D02*
X101620000Y-109462500D01*
X100820000Y-109462500D02*
X99020000Y-109462500D01*
X100820000Y-112582500D02*
X100020000Y-112582500D01*
D13*
X150300000Y-73900000D02*
X168300000Y-73900000D01*
X168300000Y-42500000D02*
X168300000Y-42500000D01*
X168300000Y-73900000D02*
X150300000Y-73900000D01*
D14*
X148600000Y-49950000D02*
X148600000Y-49950000D01*
D13*
X168300000Y-48940000D02*
X168300000Y-42500000D01*
X168300000Y-73900000D02*
X168300000Y-73900000D01*
X150300000Y-42500000D02*
X150300000Y-42500000D01*
X168300000Y-48940000D02*
X168300000Y-48940000D01*
D14*
X148500000Y-49950000D02*
X148500000Y-49950000D01*
D13*
X150300000Y-48940000D02*
X150300000Y-48940000D01*
D14*
X148500000Y-49950000D02*
X148500000Y-49950000D01*
D13*
X150300000Y-42500000D02*
X150300000Y-42500000D01*
X150300000Y-42500000D02*
X168300000Y-42500000D01*
X168300000Y-42500000D02*
X168300000Y-42500000D01*
X150300000Y-42500000D02*
X150300000Y-48940000D01*
X150300000Y-73900000D02*
X150300000Y-73900000D01*
X168300000Y-42500000D02*
X168300000Y-48940000D01*
X150300000Y-48940000D02*
X150300000Y-42500000D01*
X168300000Y-42500000D02*
X150300000Y-42500000D01*
D14*
X148600000Y-49950000D02*
G75*
G03*
X148500000Y-49950000I-50000J0D01*
G01*
X148500000Y-49950000D02*
G75*
G03*
X148600000Y-49950000I50000J0D01*
G01*
X148500000Y-49950000D02*
G75*
G03*
X148600000Y-49950000I50000J0D01*
G01*
D12*
X94190000Y-133820000D02*
X93190000Y-133820000D01*
X92950000Y-134605563D02*
X91885563Y-135670000D01*
X92950000Y-128014437D02*
X92950000Y-129800000D01*
X93690000Y-134320000D02*
X93690000Y-133320000D01*
X84230000Y-135670000D02*
X84230000Y-132820000D01*
X91885563Y-126950000D02*
X84230000Y-126950000D01*
X92950000Y-128014437D02*
X91885563Y-126950000D01*
X91885563Y-135670000D02*
X84230000Y-135670000D01*
X92950000Y-134605563D02*
X92950000Y-132820000D01*
X84230000Y-126950000D02*
X84230000Y-129800000D01*
X78220000Y-97660000D02*
X82240000Y-97660000D01*
X78220000Y-84940000D02*
X78220000Y-97660000D01*
X79720000Y-84940000D02*
X79720000Y-85940000D01*
X79720000Y-97660000D02*
X79720000Y-96660000D01*
X80530000Y-84940000D02*
X80530000Y-85440000D01*
X81740000Y-85440000D02*
X81740000Y-97160000D01*
X80530000Y-85440000D02*
X81740000Y-85440000D01*
X77920000Y-84640000D02*
X77920000Y-87140000D01*
X79720000Y-96660000D02*
X78220000Y-96660000D01*
X80420000Y-84640000D02*
X77920000Y-84640000D01*
X81740000Y-97160000D02*
X80530000Y-97160000D01*
X82240000Y-97660000D02*
X82240000Y-84940000D01*
X80530000Y-97160000D02*
X80530000Y-97660000D01*
X79720000Y-85940000D02*
X78220000Y-85940000D01*
X82240000Y-84940000D02*
X78220000Y-84940000D01*
X117478752Y-105875000D02*
X116956248Y-105875000D01*
X117478752Y-104405000D02*
X116956248Y-104405000D01*
X136190000Y-78630000D02*
X138850000Y-78630000D01*
X138850000Y-78630000D02*
X138850000Y-81230000D01*
X136190000Y-77360000D02*
X136190000Y-76030000D01*
X136190000Y-76030000D02*
X137520000Y-76030000D01*
X136190000Y-78630000D02*
X136190000Y-81230000D01*
X136190000Y-81230000D02*
X138850000Y-81230000D01*
X136721248Y-50875000D02*
X137243752Y-50875000D01*
X136721248Y-52345000D02*
X137243752Y-52345000D01*
X117352064Y-100445000D02*
X116897936Y-100445000D01*
X117352064Y-101915000D02*
X116897936Y-101915000D01*
X170120000Y-82490000D02*
X171450000Y-82490000D01*
X170120000Y-83820000D02*
X170120000Y-82490000D01*
X170120000Y-90230000D02*
X172780000Y-90230000D01*
X170120000Y-85090000D02*
X170120000Y-90230000D01*
X170120000Y-85090000D02*
X172780000Y-85090000D01*
X172780000Y-85090000D02*
X172780000Y-90230000D01*
X148602936Y-120835000D02*
X149057064Y-120835000D01*
X148602936Y-119365000D02*
X149057064Y-119365000D01*
X133412936Y-79465000D02*
X133867064Y-79465000D01*
X133412936Y-80935000D02*
X133867064Y-80935000D01*
D15*
X122820000Y-63395000D02*
X122426000Y-63395000D01*
X122820000Y-59395000D02*
X122443000Y-59395000D01*
X118820000Y-63395000D02*
X119177000Y-63395000D01*
X122820000Y-59765000D02*
X122820000Y-59395000D01*
X122820000Y-63395000D02*
X122820000Y-63023000D01*
X118820000Y-63395000D02*
X118820000Y-63007000D01*
X118820000Y-59395000D02*
X118820000Y-59770000D01*
X118820000Y-59395000D02*
X119181000Y-59395000D01*
D10*
X122145000Y-58399000D02*
G75*
G03*
X122145000Y-58399000I-75000J0D01*
G01*
D12*
X94835000Y-124080000D02*
X101770000Y-124080000D01*
X94835000Y-120660000D02*
X94835000Y-124080000D01*
X101770000Y-120660000D02*
X94835000Y-120660000D01*
X132630000Y-97843752D02*
X132630000Y-97321248D01*
X131160000Y-97843752D02*
X131160000Y-97321248D01*
X92091252Y-139415000D02*
X91568748Y-139415000D01*
X92091252Y-137945000D02*
X91568748Y-137945000D01*
X131230000Y-80195000D02*
X131230000Y-77335000D01*
X131230000Y-77335000D02*
X129310000Y-77335000D01*
X129310000Y-77335000D02*
X129310000Y-80195000D01*
X131902936Y-54815000D02*
X132357064Y-54815000D01*
X131902936Y-56285000D02*
X132357064Y-56285000D01*
X155760000Y-137570000D02*
X155470000Y-137785000D01*
X162970000Y-137785000D02*
X162620000Y-137570000D01*
X152820000Y-137970000D02*
X154040000Y-137970000D01*
X175550000Y-132760000D02*
X175550000Y-138270000D01*
X174330000Y-132760000D02*
X175550000Y-132760000D01*
X162620000Y-135960000D02*
X162940000Y-135960000D01*
X170760000Y-135960000D02*
X170760000Y-137570000D01*
X160470000Y-137785000D02*
X160120000Y-137570000D01*
X165120000Y-137570000D02*
X165120000Y-135960000D01*
X165760000Y-135960000D02*
X165760000Y-137570000D01*
X157620000Y-135960000D02*
X157940000Y-135960000D01*
X174330000Y-134960000D02*
X175550000Y-134960000D01*
X160760000Y-135960000D02*
X160760000Y-137570000D01*
X156770000Y-134960000D02*
X156610000Y-134960000D01*
X163260000Y-135960000D02*
X163260000Y-137570000D01*
X166770000Y-134960000D02*
X166610000Y-134960000D01*
X170120000Y-135960000D02*
X170440000Y-135960000D01*
X160760000Y-137570000D02*
X160470000Y-137785000D01*
X160440000Y-135960000D02*
X160760000Y-135960000D01*
X165440000Y-135960000D02*
X165760000Y-135960000D01*
X154050000Y-134960000D02*
X152830000Y-134960000D01*
X162940000Y-135960000D02*
X163260000Y-135960000D01*
X174330000Y-134960000D02*
X174330000Y-132760000D01*
X174330000Y-137970000D02*
X174330000Y-134960000D01*
X169270000Y-134960000D02*
X169110000Y-134960000D01*
X170470000Y-137785000D02*
X170120000Y-137570000D01*
X170760000Y-137570000D02*
X170470000Y-137785000D01*
X172620000Y-135960000D02*
X172940000Y-135960000D01*
X170120000Y-137570000D02*
X170120000Y-135960000D01*
X158260000Y-135960000D02*
X158260000Y-137570000D01*
X157940000Y-135960000D02*
X158260000Y-135960000D01*
X155120000Y-137570000D02*
X155120000Y-135960000D01*
X164270000Y-134960000D02*
X164110000Y-134960000D01*
X167620000Y-137570000D02*
X167620000Y-135960000D01*
X172640000Y-132270000D02*
X172940000Y-132870000D01*
X173240000Y-132270000D02*
X172640000Y-132270000D01*
X174330000Y-135960000D02*
X154050000Y-135960000D01*
X160120000Y-137570000D02*
X160120000Y-135960000D01*
X162620000Y-137570000D02*
X162620000Y-135960000D01*
X167620000Y-135960000D02*
X167940000Y-135960000D01*
X172940000Y-135960000D02*
X173260000Y-135960000D01*
X168260000Y-137570000D02*
X167970000Y-137785000D01*
X152830000Y-138370000D02*
X152830000Y-132760000D01*
X155470000Y-137785000D02*
X155120000Y-137570000D01*
X154050000Y-132760000D02*
X154050000Y-134960000D01*
X163260000Y-137570000D02*
X162970000Y-137785000D01*
X157970000Y-137785000D02*
X157620000Y-137570000D01*
X152830000Y-132760000D02*
X154050000Y-132760000D01*
X165760000Y-137570000D02*
X165470000Y-137785000D01*
X172620000Y-137570000D02*
X172620000Y-135960000D01*
X165470000Y-137785000D02*
X165120000Y-137570000D01*
X159270000Y-134960000D02*
X159110000Y-134960000D01*
X154040000Y-137970000D02*
X154050000Y-134960000D01*
X160120000Y-135960000D02*
X160440000Y-135960000D01*
X161770000Y-134960000D02*
X161610000Y-134960000D01*
X158260000Y-137570000D02*
X157970000Y-137785000D01*
X155120000Y-135960000D02*
X155440000Y-135960000D01*
X155760000Y-135960000D02*
X155760000Y-137570000D01*
X173260000Y-137570000D02*
X172970000Y-137785000D01*
X171770000Y-134960000D02*
X171610000Y-134960000D01*
X168260000Y-135960000D02*
X168260000Y-137570000D01*
X172940000Y-132870000D02*
X173240000Y-132270000D01*
X167970000Y-137785000D02*
X167620000Y-137570000D01*
X173260000Y-135960000D02*
X173260000Y-137570000D01*
X167940000Y-135960000D02*
X168260000Y-135960000D01*
X172970000Y-137785000D02*
X172620000Y-137570000D01*
X170440000Y-135960000D02*
X170760000Y-135960000D01*
X155440000Y-135960000D02*
X155760000Y-135960000D01*
X175550000Y-138270000D02*
X152830000Y-138370000D01*
X175550000Y-137970000D02*
X174330000Y-137970000D01*
X157620000Y-137570000D02*
X157620000Y-135960000D01*
X165120000Y-135960000D02*
X165440000Y-135960000D01*
X127535000Y-67472936D02*
X127535000Y-67927064D01*
X129005000Y-67472936D02*
X129005000Y-67927064D01*
D14*
X120690000Y-119180000D02*
X123890000Y-119180000D01*
X120690000Y-124080000D02*
X120690000Y-119180000D01*
X123890000Y-124080000D02*
X120690000Y-124080000D01*
X123890000Y-119180000D02*
X123890000Y-124080000D01*
X118840000Y-119050000D02*
X120340000Y-119050000D01*
D12*
X102895000Y-114878748D02*
X102895000Y-115401252D01*
X101425000Y-114878748D02*
X101425000Y-115401252D01*
X157285000Y-87772936D02*
X157285000Y-88227064D01*
X158755000Y-87772936D02*
X158755000Y-88227064D01*
X151446500Y-87834936D02*
X151446500Y-88289064D01*
X149976500Y-87834936D02*
X149976500Y-88289064D01*
X125497936Y-94595000D02*
X125952064Y-94595000D01*
X125497936Y-93125000D02*
X125952064Y-93125000D01*
X108327064Y-66005000D02*
X107872936Y-66005000D01*
X108327064Y-67475000D02*
X107872936Y-67475000D01*
X147256800Y-66102200D02*
X146716400Y-66101800D01*
X143548400Y-74128600D02*
X143548400Y-66102200D01*
X144082000Y-66102200D02*
X143548400Y-66102200D01*
X147256800Y-74128600D02*
X147023200Y-74121800D01*
X143843200Y-74131800D02*
X143548400Y-74128600D01*
X147256800Y-74128600D02*
X147256800Y-66102200D01*
X138925000Y-58010000D02*
X136065000Y-58010000D01*
X136065000Y-59930000D02*
X138925000Y-59930000D01*
X138925000Y-59930000D02*
X138925000Y-58010000D01*
X165454064Y-75846000D02*
X164999936Y-75846000D01*
X165454064Y-77316000D02*
X164999936Y-77316000D01*
X108052936Y-47755000D02*
X108507064Y-47755000D01*
X108052936Y-49225000D02*
X108507064Y-49225000D01*
X108132936Y-51645000D02*
X108587064Y-51645000D01*
X108132936Y-53115000D02*
X108587064Y-53115000D01*
X143793200Y-63718600D02*
X143518400Y-63718600D01*
X143518400Y-63718600D02*
X143518400Y-55692200D01*
X144052000Y-55692200D02*
X143518400Y-55692200D01*
X146943200Y-63711800D02*
X147226800Y-63718600D01*
X147226800Y-63718600D02*
X147226800Y-55692200D01*
X147226800Y-55692200D02*
X146693200Y-55692200D01*
X137317064Y-56225000D02*
X136862936Y-56225000D01*
X137317064Y-54755000D02*
X136862936Y-54755000D01*
X160985000Y-87572936D02*
X160985000Y-88027064D01*
X162455000Y-87572936D02*
X162455000Y-88027064D01*
X130695000Y-111535000D02*
X130695000Y-101765000D01*
X140465000Y-101765000D02*
X130695000Y-101765000D01*
X140465000Y-111535000D02*
X140465000Y-101765000D01*
X140465000Y-111535000D02*
X130695000Y-111535000D01*
X125475000Y-67502936D02*
X125475000Y-67957064D01*
X124005000Y-67502936D02*
X124005000Y-67957064D01*
X112590000Y-100240000D02*
X109730000Y-100240000D01*
X109730000Y-102160000D02*
X112590000Y-102160000D01*
X109730000Y-100240000D02*
X109730000Y-102160000D01*
X96315000Y-64602936D02*
X96315000Y-65057064D01*
X94845000Y-64602936D02*
X94845000Y-65057064D01*
X101757064Y-139560000D02*
X100302936Y-139560000D01*
X101757064Y-137740000D02*
X100302936Y-137740000D01*
X113455000Y-61016248D02*
X113455000Y-61538752D01*
X114925000Y-61016248D02*
X114925000Y-61538752D01*
X144915000Y-83292936D02*
X144915000Y-83747064D01*
X146385000Y-83292936D02*
X146385000Y-83747064D01*
X87445000Y-56720000D02*
X102965000Y-56720000D01*
X103650000Y-53340000D02*
X103650000Y-52340000D01*
X103150000Y-52840000D02*
X103650000Y-53340000D01*
X87445000Y-56720000D02*
X87445000Y-42840000D01*
X103650000Y-52340000D02*
X103150000Y-52840000D01*
X102965000Y-60800000D02*
X102965000Y-42840000D01*
X102965000Y-42840000D02*
X87445000Y-42840000D01*
X132343752Y-50975000D02*
X131821248Y-50975000D01*
X132343752Y-52445000D02*
X131821248Y-52445000D01*
X137052936Y-72405000D02*
X137507064Y-72405000D01*
X137052936Y-73875000D02*
X137507064Y-73875000D01*
D14*
X86500000Y-65960000D02*
X86500000Y-61060000D01*
X89700000Y-61060000D02*
X89700000Y-65960000D01*
X89700000Y-65960000D02*
X86500000Y-65960000D01*
X91550000Y-66090000D02*
X90050000Y-66090000D01*
X86500000Y-61060000D02*
X89700000Y-61060000D01*
D12*
X109795000Y-60981248D02*
X109795000Y-61503752D01*
X111265000Y-60981248D02*
X111265000Y-61503752D01*
X129642500Y-140330000D02*
X145162500Y-140330000D01*
X145162500Y-126450000D02*
X145162500Y-140330000D01*
X128957500Y-130830000D02*
X129457500Y-130330000D01*
X129642500Y-126450000D02*
X129642500Y-140330000D01*
X129457500Y-130330000D02*
X128957500Y-129830000D01*
X145162500Y-126450000D02*
X129642500Y-126450000D01*
X128957500Y-129830000D02*
X128957500Y-130830000D01*
X157859200Y-116312000D02*
X157859200Y-118972000D01*
X173210000Y-94020000D02*
X160450000Y-94020000D01*
X174480000Y-94020000D02*
X175810000Y-94020000D01*
X170619200Y-116312000D02*
X170619200Y-118972000D01*
X175810000Y-94020000D02*
X175810000Y-95350000D01*
X173210000Y-94020000D02*
X173210000Y-96680000D01*
X170619200Y-116312000D02*
X157859200Y-116312000D01*
X171889200Y-116312000D02*
X173219200Y-116312000D01*
X170619200Y-118972000D02*
X157859200Y-118972000D01*
X160450000Y-94020000D02*
X160450000Y-96680000D01*
X173210000Y-96680000D02*
X160450000Y-96680000D01*
X173219200Y-116312000D02*
X173219200Y-117642000D01*
X103595000Y-106882500D02*
X103595000Y-110967500D01*
X105465000Y-110967500D02*
X105465000Y-106882500D01*
X103595000Y-110967500D02*
X105465000Y-110967500D01*
X136425000Y-95480000D02*
X139475000Y-95480000D01*
X136425000Y-99780000D02*
X139475000Y-99780000D01*
X139519513Y-99748249D02*
G75*
G03*
X139475000Y-95480000I-1544513J2118249D01*
G01*
X136446766Y-95464474D02*
G75*
G03*
X136425000Y-99780000I1528234J-2165526D01*
G01*
X108212936Y-57325000D02*
X108667064Y-57325000D01*
X108212936Y-55855000D02*
X108667064Y-55855000D01*
X105210000Y-136615000D02*
X103710000Y-136615000D01*
X103710000Y-136615000D02*
X103710000Y-135665000D01*
X103710000Y-127165000D02*
X98585000Y-127165000D01*
X103710000Y-126215000D02*
X103710000Y-127165000D01*
X105210000Y-126215000D02*
X103710000Y-126215000D01*
X103710000Y-135665000D02*
X102610000Y-135665000D01*
X129082500Y-106640000D02*
X129082500Y-104720000D01*
X129082500Y-104720000D02*
X126222500Y-104720000D01*
X126222500Y-106640000D02*
X129082500Y-106640000D01*
X102265000Y-69287064D02*
X102265000Y-68832936D01*
X100795000Y-69287064D02*
X100795000Y-68832936D01*
X144813400Y-78212936D02*
X144813400Y-78667064D01*
X146283400Y-78212936D02*
X146283400Y-78667064D01*
X86990000Y-109372500D02*
X86990000Y-111172500D01*
X90110000Y-109372500D02*
X90110000Y-108572500D01*
X86990000Y-109372500D02*
X86990000Y-108572500D01*
X90110000Y-109372500D02*
X90110000Y-110172500D01*
X131150000Y-87060000D02*
X129820000Y-87060000D01*
X132420000Y-87060000D02*
X135020000Y-87060000D01*
X129820000Y-87060000D02*
X129820000Y-85730000D01*
X132420000Y-87060000D02*
X132420000Y-84400000D01*
X135020000Y-87060000D02*
X135020000Y-84400000D01*
X132420000Y-84400000D02*
X135020000Y-84400000D01*
X120660000Y-113830000D02*
X121310000Y-113830000D01*
X120660000Y-116950000D02*
X122335000Y-116950000D01*
X120660000Y-113830000D02*
X120010000Y-113830000D01*
X120660000Y-116950000D02*
X120010000Y-116950000D01*
X126955000Y-48340000D02*
X126955000Y-47290000D01*
X114665000Y-48340000D02*
X114665000Y-47290000D01*
X116410000Y-51510000D02*
X125210000Y-51510000D01*
X116410000Y-51510000D02*
X116410000Y-52265000D01*
X116585000Y-120737064D02*
X116585000Y-120282936D01*
X115115000Y-120737064D02*
X115115000Y-120282936D01*
X136921248Y-61985000D02*
X137443752Y-61985000D01*
X136921248Y-63455000D02*
X137443752Y-63455000D01*
X90361248Y-105435000D02*
X90883752Y-105435000D01*
X90361248Y-103965000D02*
X90883752Y-103965000D01*
X100640000Y-65590000D02*
X102315000Y-65590000D01*
X100640000Y-65590000D02*
X99990000Y-65590000D01*
X100640000Y-62470000D02*
X99990000Y-62470000D01*
X100640000Y-62470000D02*
X101290000Y-62470000D01*
X153285000Y-87772936D02*
X153285000Y-88227064D01*
X154755000Y-87772936D02*
X154755000Y-88227064D01*
X86405000Y-105697500D02*
X88275000Y-105697500D01*
X86405000Y-101612500D02*
X86405000Y-105697500D01*
X88275000Y-105697500D02*
X88275000Y-101612500D01*
X148585000Y-116537064D02*
X148585000Y-116082936D01*
X147115000Y-116537064D02*
X147115000Y-116082936D01*
X165962064Y-81507000D02*
X165507936Y-81507000D01*
X165962064Y-80037000D02*
X165507936Y-80037000D01*
X136971248Y-68425000D02*
X137493752Y-68425000D01*
X136971248Y-69895000D02*
X137493752Y-69895000D01*
X143447064Y-115515000D02*
X142992936Y-115515000D01*
X143447064Y-116985000D02*
X142992936Y-116985000D01*
X97655000Y-111808748D02*
X97655000Y-112331252D01*
X96185000Y-111808748D02*
X96185000Y-112331252D01*
X95932936Y-137945000D02*
X96387064Y-137945000D01*
X95932936Y-139415000D02*
X96387064Y-139415000D01*
D15*
X127705000Y-101765000D02*
X123805000Y-101765000D01*
X127705000Y-96715000D02*
X123805000Y-96715000D01*
D14*
X129895000Y-101545000D02*
G75*
G03*
X129895000Y-101545000I-100000J0D01*
G01*
%LPC*%
G36*
X122270000Y-62845000D02*
G01*
X119366880Y-62845000D01*
X119366880Y-59941880D01*
X122270000Y-59941880D01*
X122270000Y-62845000D01*
G37*
D16*
X122270000Y-62845000D02*
X119366880Y-62845000D01*
X119366880Y-59941880D01*
X122270000Y-59941880D01*
X122270000Y-62845000D01*
D17*
X142220000Y-120100000D03*
X140220000Y-120100000D03*
D18*
X120640000Y-68730000D03*
X118565000Y-68730000D03*
D19*
X84380000Y-110535000D03*
X84380000Y-108460000D03*
D20*
X123275000Y-103900000D03*
X123275000Y-105900000D03*
D21*
X118440000Y-138580000D03*
X120440000Y-138580000D03*
D18*
X93400000Y-122430000D03*
X91325000Y-122430000D03*
D22*
X99682500Y-110072500D03*
X99682500Y-111022500D03*
X99682500Y-111972500D03*
X101957500Y-111972500D03*
X101957500Y-110072500D03*
D23*
X150800000Y-49940000D03*
X150800000Y-51210000D03*
X150800000Y-52480000D03*
X150800000Y-53750000D03*
X150800000Y-55020000D03*
X150800000Y-56290000D03*
X150800000Y-57560000D03*
X150800000Y-58830000D03*
X150800000Y-60100000D03*
X150800000Y-61370000D03*
X150800000Y-62640000D03*
X150800000Y-63910000D03*
X150800000Y-65180000D03*
X150800000Y-66450000D03*
X150800000Y-67720000D03*
X150800000Y-68990000D03*
X150800000Y-70260000D03*
X150800000Y-71530000D03*
X150800000Y-72800000D03*
X167800000Y-72800000D03*
X167800000Y-71530000D03*
X167800000Y-70260000D03*
X167800000Y-68990000D03*
X167800000Y-67720000D03*
X167800000Y-66450000D03*
X167800000Y-65180000D03*
X167800000Y-63910000D03*
X167800000Y-62640000D03*
X167800000Y-61370000D03*
X167800000Y-60100000D03*
X167800000Y-58830000D03*
X167800000Y-57560000D03*
X167800000Y-56290000D03*
X167800000Y-55020000D03*
X167800000Y-53750000D03*
X167800000Y-52480000D03*
X167800000Y-51210000D03*
X167800000Y-49940000D03*
D24*
X156465000Y-55605000D03*
X156465000Y-57440000D03*
X156465000Y-59275000D03*
X158300000Y-59275000D03*
X160135000Y-59275000D03*
X160135000Y-57440000D03*
X160135000Y-55605000D03*
X158300000Y-55605000D03*
X158300000Y-57440000D03*
D25*
X92290000Y-131310000D03*
X84890000Y-131310000D03*
D26*
X80530000Y-87550000D03*
D27*
X80530000Y-90050000D03*
X80530000Y-92550000D03*
X80530000Y-95050000D03*
D18*
X118255000Y-105140000D03*
X116180000Y-105140000D03*
D28*
X137520000Y-77360000D03*
D29*
X137520000Y-79900000D03*
D30*
X81850000Y-45130000D03*
D31*
X135945000Y-51610000D03*
X138020000Y-51610000D03*
D32*
X117060000Y-72980000D03*
X117060000Y-74880000D03*
X119260000Y-73930000D03*
D17*
X118125000Y-101180000D03*
X116125000Y-101180000D03*
D28*
X171450000Y-83820000D03*
D29*
X171450000Y-86360000D03*
X171450000Y-88900000D03*
D21*
X147830000Y-120100000D03*
X149830000Y-120100000D03*
X132640000Y-80200000D03*
X134640000Y-80200000D03*
D33*
X122070000Y-59440000D03*
X121570000Y-59440000D03*
X121070000Y-59440000D03*
X120570000Y-59440000D03*
X120070000Y-59440000D03*
X119570000Y-59440000D03*
D34*
X118865000Y-60145000D03*
X118865000Y-60645000D03*
X118865000Y-61145000D03*
X118865000Y-61645000D03*
X118865000Y-62145000D03*
X118865000Y-62645000D03*
D33*
X119570000Y-63350000D03*
X120070000Y-63350000D03*
X120570000Y-63350000D03*
X121070000Y-63350000D03*
X121570000Y-63350000D03*
X122070000Y-63350000D03*
D34*
X122775000Y-62645000D03*
X122775000Y-62145000D03*
X122775000Y-61645000D03*
X122775000Y-61145000D03*
X122775000Y-60645000D03*
X122775000Y-60145000D03*
D35*
X120820000Y-61395000D03*
D36*
X96220000Y-122370000D03*
X101320000Y-122370000D03*
D19*
X131895000Y-98620000D03*
X131895000Y-96545000D03*
D18*
X92867500Y-138680000D03*
X90792500Y-138680000D03*
D37*
X130270000Y-78170000D03*
X130270000Y-80220000D03*
D21*
X131130000Y-55550000D03*
X133130000Y-55550000D03*
D38*
X172940000Y-134370000D03*
D39*
X170440000Y-134370000D03*
X167940000Y-134370000D03*
X165440000Y-134370000D03*
X162940000Y-134370000D03*
X160440000Y-134370000D03*
X157940000Y-134370000D03*
X155440000Y-134370000D03*
D20*
X128270000Y-66700000D03*
X128270000Y-68700000D03*
D40*
X119590000Y-119725000D03*
X119590000Y-120995000D03*
X119590000Y-122265000D03*
X119590000Y-123535000D03*
X124990000Y-123535000D03*
X124990000Y-122265000D03*
X124990000Y-120995000D03*
X124990000Y-119725000D03*
D41*
X102160000Y-114102500D03*
X102160000Y-116177500D03*
D20*
X158020000Y-87000000D03*
X158020000Y-89000000D03*
X150711500Y-87062000D03*
X150711500Y-89062000D03*
D21*
X124725000Y-93860000D03*
X126725000Y-93860000D03*
D17*
X109100000Y-66740000D03*
X107100000Y-66740000D03*
D42*
X145326400Y-74128600D03*
X145377200Y-66051400D03*
D43*
X138090000Y-58970000D03*
X136040000Y-58970000D03*
D17*
X166227000Y-76581000D03*
X164227000Y-76581000D03*
D21*
X107280000Y-48490000D03*
X109280000Y-48490000D03*
X107360000Y-52380000D03*
X109360000Y-52380000D03*
D42*
X145296400Y-63718600D03*
X145347200Y-55641400D03*
D17*
X138090000Y-55490000D03*
X136090000Y-55490000D03*
D20*
X161720000Y-86800000D03*
X161720000Y-88800000D03*
D44*
X135565000Y-104110000D03*
X133025000Y-106650000D03*
X135565000Y-109190000D03*
D30*
X81540000Y-136830000D03*
D20*
X124740000Y-66730000D03*
X124740000Y-68730000D03*
D45*
X110565000Y-101200000D03*
X112615000Y-101200000D03*
D20*
X95580000Y-63830000D03*
X95580000Y-65830000D03*
D46*
X102580000Y-138650000D03*
X99480000Y-138650000D03*
D41*
X114190000Y-60240000D03*
X114190000Y-62315000D03*
D20*
X145650000Y-82520000D03*
X145650000Y-84520000D03*
D47*
X100920000Y-46490000D03*
X89490000Y-46490000D03*
D48*
X99650000Y-52840000D03*
D49*
X98380000Y-55380000D03*
X97110000Y-52840000D03*
X95840000Y-55380000D03*
X94570000Y-52840000D03*
X93300000Y-55380000D03*
X92030000Y-52840000D03*
X90760000Y-55380000D03*
D18*
X133120000Y-51710000D03*
X131045000Y-51710000D03*
D21*
X136280000Y-73140000D03*
X138280000Y-73140000D03*
D40*
X90800000Y-65415000D03*
X90800000Y-64145000D03*
X90800000Y-62875000D03*
X90800000Y-61605000D03*
X85400000Y-61605000D03*
X85400000Y-62875000D03*
X85400000Y-64145000D03*
X85400000Y-65415000D03*
D41*
X110530000Y-60205000D03*
X110530000Y-62280000D03*
D47*
X131687500Y-136680000D03*
X143117500Y-136680000D03*
D48*
X132957500Y-130330000D03*
D49*
X134227500Y-127790000D03*
X135497500Y-130330000D03*
X136767500Y-127790000D03*
X138037500Y-130330000D03*
X139307500Y-127790000D03*
X140577500Y-130330000D03*
X141847500Y-127790000D03*
D28*
X174480000Y-95350000D03*
D29*
X171940000Y-95350000D03*
X169400000Y-95350000D03*
X166860000Y-95350000D03*
X164320000Y-95350000D03*
X161780000Y-95350000D03*
D28*
X171889200Y-117642000D03*
D29*
X169349200Y-117642000D03*
X166809200Y-117642000D03*
X164269200Y-117642000D03*
X161729200Y-117642000D03*
X159189200Y-117642000D03*
D50*
X104530000Y-109920000D03*
X104530000Y-107045000D03*
D32*
X127070000Y-74950000D03*
X127070000Y-73050000D03*
X124870000Y-74000000D03*
D49*
X136275000Y-97630000D03*
X139675000Y-97630000D03*
D21*
X107440000Y-56590000D03*
X109440000Y-56590000D03*
D51*
X100885000Y-128015000D03*
X100885000Y-129715000D03*
X100885000Y-131415000D03*
D52*
X110035000Y-131415000D03*
D51*
X100885000Y-133115000D03*
X100885000Y-134815000D03*
D43*
X128247500Y-105680000D03*
X126197500Y-105680000D03*
D53*
X101530000Y-70060000D03*
X101530000Y-68060000D03*
D30*
X168690000Y-111920000D03*
D20*
X145548400Y-77440000D03*
X145548400Y-79440000D03*
D54*
X87600000Y-110510000D03*
X88550000Y-110510000D03*
X89500000Y-110510000D03*
X89500000Y-108235000D03*
X87600000Y-108235000D03*
D28*
X131150000Y-85730000D03*
D29*
X133690000Y-85730000D03*
D55*
X121597500Y-116340000D03*
X121597500Y-114440000D03*
X119722500Y-115390000D03*
D30*
X166700000Y-87130000D03*
D56*
X118510000Y-50390000D03*
X123110000Y-50390000D03*
D57*
X117310000Y-53140000D03*
X119810000Y-53140000D03*
X121810000Y-53140000D03*
X124310000Y-53140000D03*
D58*
X115110000Y-50390000D03*
X126510000Y-50390000D03*
D53*
X115850000Y-121510000D03*
X115850000Y-119510000D03*
D31*
X136145000Y-62720000D03*
X138220000Y-62720000D03*
X89585000Y-104700000D03*
X91660000Y-104700000D03*
D55*
X101577500Y-64980000D03*
X101577500Y-63080000D03*
X99702500Y-64030000D03*
D20*
X154020000Y-87000000D03*
X154020000Y-89000000D03*
D50*
X87340000Y-104650000D03*
X87340000Y-101775000D03*
D53*
X147850000Y-117310000D03*
X147850000Y-115310000D03*
D17*
X166735000Y-80772000D03*
X164735000Y-80772000D03*
D31*
X136195000Y-69160000D03*
X138270000Y-69160000D03*
D17*
X144220000Y-116250000D03*
X142220000Y-116250000D03*
D41*
X96920000Y-111032500D03*
X96920000Y-113107500D03*
D21*
X95160000Y-138680000D03*
X97160000Y-138680000D03*
D59*
X128225000Y-101145000D03*
X128225000Y-99875000D03*
X128225000Y-98605000D03*
X128225000Y-97335000D03*
X123285000Y-97335000D03*
X123285000Y-98605000D03*
X123285000Y-99875000D03*
X123285000Y-101145000D03*
D60*
X84130000Y-116540000D03*
D61*
X84130000Y-119040000D03*
M02*
