%TF.GenerationSoftware,KiCad,Pcbnew,6.0.7*%
%TF.CreationDate,2022-10-22T12:45:51-05:00*%
%TF.ProjectId,EsquemaGeneral,45737175-656d-4614-9765-6e6572616c2e,rev?*%
%TF.SameCoordinates,Original*%
%TF.FileFunction,Drillmap*%
%TF.FilePolarity,Positive*%
%FSLAX45Y45*%
G04 Gerber Fmt 4.5, Leading zero omitted, Abs format (unit mm)*
G04 Created by KiCad (PCBNEW 6.0.7) date 2022-10-22 12:45:51*
%MOMM*%
%LPD*%
G01*
G04 APERTURE LIST*
%ADD10C,0.050000*%
%ADD11C,0.200000*%
%ADD12C,0.040000*%
%ADD13C,0.076000*%
%ADD14C,0.080000*%
%ADD15C,0.090000*%
%ADD16C,0.095000*%
%ADD17C,0.100000*%
G04 APERTURE END LIST*
D10*
X17754280Y-14085760D02*
X7756840Y-14085760D01*
X7756840Y-14085760D02*
X7756840Y-4098480D01*
X7756840Y-4098480D02*
X17754280Y-4098480D01*
X17754280Y-4098480D02*
X17754280Y-14085760D01*
D11*
D12*
X8101000Y-7390000D02*
X8141000Y-7430000D01*
X8141000Y-7390000D02*
X8101000Y-7430000D01*
X8121000Y-12645000D02*
X8161000Y-12685000D01*
X8161000Y-12645000D02*
X8121000Y-12685000D01*
X8157000Y-10426000D02*
X8197000Y-10466000D01*
X8197000Y-10426000D02*
X8157000Y-10466000D01*
X8228000Y-5850000D02*
X8268000Y-5890000D01*
X8268000Y-5850000D02*
X8228000Y-5890000D01*
X8427000Y-5186000D02*
X8467000Y-5226000D01*
X8467000Y-5186000D02*
X8427000Y-5226000D01*
X8548000Y-10654000D02*
X8588000Y-10694000D01*
X8588000Y-10654000D02*
X8548000Y-10694000D01*
X8774000Y-7409000D02*
X8814000Y-7449000D01*
X8814000Y-7409000D02*
X8774000Y-7449000D01*
X8830000Y-10908000D02*
X8870000Y-10948000D01*
X8870000Y-10908000D02*
X8830000Y-10948000D01*
X9236590Y-8883420D02*
X9276590Y-8923420D01*
X9276590Y-8883420D02*
X9236590Y-8923420D01*
X9236590Y-10737110D02*
X9276590Y-10777110D01*
X9276590Y-10737110D02*
X9236590Y-10777110D01*
X9621000Y-7266000D02*
X9661000Y-7306000D01*
X9661000Y-7266000D02*
X9621000Y-7306000D01*
X9640000Y-7937000D02*
X9680000Y-7977000D01*
X9680000Y-7937000D02*
X9640000Y-7977000D01*
X9646000Y-11738000D02*
X9686000Y-11778000D01*
X9686000Y-11738000D02*
X9646000Y-11778000D01*
X9700000Y-9487000D02*
X9740000Y-9527000D01*
X9740000Y-9487000D02*
X9700000Y-9527000D01*
X9924000Y-10399000D02*
X9964000Y-10439000D01*
X9964000Y-10399000D02*
X9924000Y-10439000D01*
X9924000Y-13637000D02*
X9964000Y-13677000D01*
X9964000Y-13637000D02*
X9924000Y-13677000D01*
X10088000Y-11089000D02*
X10128000Y-11129000D01*
X10128000Y-11089000D02*
X10088000Y-11129000D01*
X10134000Y-5050000D02*
X10174000Y-5090000D01*
X10174000Y-5050000D02*
X10134000Y-5090000D01*
X10231230Y-12631350D02*
X10271230Y-12671350D01*
X10271230Y-12631350D02*
X10231230Y-12671350D01*
X10327940Y-4645750D02*
X10367940Y-4685750D01*
X10367940Y-4645750D02*
X10327940Y-4685750D01*
X10347000Y-9478000D02*
X10387000Y-9518000D01*
X10387000Y-9478000D02*
X10347000Y-9518000D01*
X10379000Y-7293000D02*
X10419000Y-7333000D01*
X10419000Y-7293000D02*
X10379000Y-7333000D01*
X10410000Y-7918000D02*
X10450000Y-7958000D01*
X10450000Y-7918000D02*
X10410000Y-7958000D01*
X10523000Y-5074000D02*
X10563000Y-5114000D01*
X10563000Y-5074000D02*
X10523000Y-5114000D01*
X10596000Y-6271000D02*
X10636000Y-6311000D01*
X10636000Y-6271000D02*
X10596000Y-6311000D01*
X10963000Y-11940000D02*
X11003000Y-11980000D01*
X11003000Y-11940000D02*
X10963000Y-11980000D01*
X11004000Y-7918000D02*
X11044000Y-7958000D01*
X11044000Y-7918000D02*
X11004000Y-7958000D01*
X11029000Y-9490000D02*
X11069000Y-9530000D01*
X11069000Y-9490000D02*
X11029000Y-9530000D01*
X11159000Y-5021000D02*
X11199000Y-5061000D01*
X11199000Y-5021000D02*
X11159000Y-5061000D01*
X11387100Y-8702310D02*
X11427100Y-8742310D01*
X11427100Y-8702310D02*
X11387100Y-8742310D01*
X11469000Y-11137000D02*
X11509000Y-11177000D01*
X11509000Y-11137000D02*
X11469000Y-11177000D01*
X11591000Y-6950000D02*
X11631000Y-6990000D01*
X11631000Y-6950000D02*
X11591000Y-6990000D01*
X11616000Y-5686000D02*
X11656000Y-5726000D01*
X11656000Y-5686000D02*
X11616000Y-5726000D01*
X11678000Y-6412000D02*
X11718000Y-6452000D01*
X11718000Y-6412000D02*
X11678000Y-6452000D01*
X11701000Y-9503000D02*
X11741000Y-9543000D01*
X11741000Y-9503000D02*
X11701000Y-9543000D01*
X11750000Y-6043000D02*
X11790000Y-6083000D01*
X11790000Y-6043000D02*
X11750000Y-6083000D01*
X11801420Y-7577070D02*
X11841420Y-7617070D01*
X11841420Y-7577070D02*
X11801420Y-7617070D01*
X12068000Y-12972000D02*
X12108000Y-13012000D01*
X12108000Y-12972000D02*
X12068000Y-13012000D01*
X12112850Y-6639950D02*
X12152850Y-6679950D01*
X12152850Y-6639950D02*
X12112850Y-6679950D01*
X12121000Y-6061000D02*
X12161000Y-6101000D01*
X12161000Y-6061000D02*
X12121000Y-6101000D01*
X12297000Y-7919000D02*
X12337000Y-7959000D01*
X12337000Y-7919000D02*
X12297000Y-7959000D01*
X12340000Y-5855000D02*
X12380000Y-5895000D01*
X12380000Y-5855000D02*
X12340000Y-5895000D01*
X12571090Y-6382910D02*
X12611090Y-6422910D01*
X12611090Y-6382910D02*
X12571090Y-6422910D01*
X12579000Y-6529000D02*
X12619000Y-6569000D01*
X12619000Y-6529000D02*
X12579000Y-6569000D01*
X12613000Y-5898000D02*
X12653000Y-5938000D01*
X12653000Y-5898000D02*
X12613000Y-5938000D01*
X12631890Y-10094500D02*
X12671890Y-10134500D01*
X12671890Y-10094500D02*
X12631890Y-10134500D01*
X12638370Y-6650000D02*
X12678370Y-6690000D01*
X12678370Y-6650000D02*
X12638370Y-6690000D01*
X12761320Y-7103170D02*
X12801320Y-7143170D01*
X12801320Y-7103170D02*
X12761320Y-7143170D01*
X12771000Y-6183000D02*
X12811000Y-6223000D01*
X12811000Y-6183000D02*
X12771000Y-6223000D01*
X12781000Y-11249000D02*
X12821000Y-11289000D01*
X12821000Y-11249000D02*
X12781000Y-11289000D01*
X12923000Y-9449000D02*
X12963000Y-9489000D01*
X12963000Y-9449000D02*
X12923000Y-9489000D01*
X13052250Y-4645750D02*
X13092250Y-4685750D01*
X13092250Y-4645750D02*
X13052250Y-4685750D01*
X13105000Y-5863080D02*
X13145000Y-5903080D01*
X13145000Y-5863080D02*
X13105000Y-5903080D01*
X13197000Y-6232000D02*
X13237000Y-6272000D01*
X13237000Y-6232000D02*
X13197000Y-6272000D01*
X13245930Y-9337000D02*
X13285930Y-9377000D01*
X13285930Y-9337000D02*
X13245930Y-9377000D01*
X13341000Y-7765000D02*
X13381000Y-7805000D01*
X13381000Y-7765000D02*
X13341000Y-7805000D01*
X13347000Y-12050000D02*
X13387000Y-12090000D01*
X13387000Y-12050000D02*
X13347000Y-12090000D01*
X13476000Y-5351000D02*
X13516000Y-5391000D01*
X13516000Y-5351000D02*
X13476000Y-5391000D01*
X13505200Y-6065430D02*
X13545200Y-6105430D01*
X13545200Y-6065430D02*
X13505200Y-6105430D01*
X13735000Y-6605000D02*
X13775000Y-6645000D01*
X13775000Y-6605000D02*
X13735000Y-6645000D01*
X14068000Y-5011000D02*
X14108000Y-5051000D01*
X14108000Y-5011000D02*
X14068000Y-5051000D01*
X14113000Y-10095000D02*
X14153000Y-10135000D01*
X14153000Y-10095000D02*
X14113000Y-10135000D01*
X14162000Y-9527000D02*
X14202000Y-9567000D01*
X14202000Y-9527000D02*
X14162000Y-9567000D01*
X14174000Y-5356000D02*
X14214000Y-5396000D01*
X14214000Y-5356000D02*
X14174000Y-5396000D01*
X14226759Y-4981050D02*
X14266759Y-5021050D01*
X14266759Y-4981050D02*
X14226759Y-5021050D01*
X14291000Y-11792000D02*
X14331000Y-11832000D01*
X14331000Y-11792000D02*
X14291000Y-11832000D01*
X14332680Y-12208120D02*
X14372680Y-12248120D01*
X14372680Y-12208120D02*
X14332680Y-12248120D01*
X14350850Y-6124080D02*
X14390850Y-6164080D01*
X14390850Y-6124080D02*
X14350850Y-6164080D01*
X14524000Y-6473000D02*
X14564000Y-6513000D01*
X14564000Y-6473000D02*
X14524000Y-6513000D01*
X14562390Y-11605000D02*
X14602390Y-11645000D01*
X14602390Y-11605000D02*
X14562390Y-11645000D01*
X14570290Y-8883420D02*
X14610290Y-8923420D01*
X14610290Y-8883420D02*
X14570290Y-8923420D01*
X14576070Y-6241700D02*
X14616070Y-6281700D01*
X14616070Y-6241700D02*
X14576070Y-6281700D01*
X14619870Y-7270110D02*
X14659870Y-7310110D01*
X14659870Y-7270110D02*
X14619870Y-7310110D01*
X14636250Y-6110020D02*
X14676250Y-6150020D01*
X14676250Y-6110020D02*
X14636250Y-6150020D01*
X14741090Y-11266910D02*
X14781090Y-11306910D01*
X14781090Y-11266910D02*
X14741090Y-11306910D01*
X14850940Y-8132080D02*
X14890940Y-8172080D01*
X14890940Y-8132080D02*
X14850940Y-8172080D01*
X14885990Y-6371670D02*
X14925990Y-6411670D01*
X14925990Y-6371670D02*
X14885990Y-6411670D01*
X14888000Y-6527000D02*
X14928000Y-6567000D01*
X14928000Y-6527000D02*
X14888000Y-6567000D01*
X14909220Y-9427030D02*
X14949220Y-9467030D01*
X14949220Y-9427030D02*
X14909220Y-9467030D01*
X14947650Y-7933570D02*
X14987650Y-7973570D01*
X14987650Y-7933570D02*
X14947650Y-7973570D01*
X14972040Y-7417180D02*
X15012040Y-7457180D01*
X15012040Y-7417180D02*
X14972040Y-7457180D01*
X15001000Y-13112000D02*
X15041000Y-13152000D01*
X15041000Y-13112000D02*
X15001000Y-13152000D01*
X15160000Y-11320000D02*
X15200000Y-11360000D01*
X15200000Y-11320000D02*
X15160000Y-11360000D01*
X15161100Y-8461100D02*
X15201100Y-8501100D01*
X15201100Y-8461100D02*
X15161100Y-8501100D01*
X15229950Y-5062000D02*
X15269950Y-5102000D01*
X15269950Y-5062000D02*
X15229950Y-5102000D01*
X15353000Y-4967000D02*
X15393000Y-5007000D01*
X15393000Y-4967000D02*
X15353000Y-5007000D01*
X15420000Y-5269000D02*
X15460000Y-5309000D01*
X15460000Y-5269000D02*
X15420000Y-5309000D01*
X15429000Y-5696000D02*
X15469000Y-5736000D01*
X15469000Y-5696000D02*
X15429000Y-5736000D01*
X15522980Y-6730740D02*
X15562980Y-6770740D01*
X15562980Y-6730740D02*
X15522980Y-6770740D01*
X15626000Y-6085000D02*
X15666000Y-6125000D01*
X15666000Y-6085000D02*
X15626000Y-6125000D01*
X15660540Y-12343750D02*
X15700540Y-12383750D01*
X15700540Y-12343750D02*
X15660540Y-12383750D01*
X15728640Y-7198210D02*
X15768640Y-7238210D01*
X15768640Y-7198210D02*
X15728640Y-7238210D01*
X15800050Y-11967360D02*
X15840050Y-12007360D01*
X15840050Y-11967360D02*
X15800050Y-12007360D01*
X15850270Y-6625000D02*
X15890270Y-6665000D01*
X15890270Y-6625000D02*
X15850270Y-6665000D01*
X15865460Y-6735040D02*
X15905460Y-6775040D01*
X15905460Y-6735040D02*
X15865460Y-6775040D01*
X15865860Y-11189050D02*
X15905860Y-11229050D01*
X15905860Y-11189050D02*
X15865860Y-11229050D01*
X15867940Y-6033950D02*
X15907940Y-6073950D01*
X15907940Y-6033950D02*
X15867940Y-6073950D01*
X15914000Y-12889000D02*
X15954000Y-12929000D01*
X15954000Y-12889000D02*
X15914000Y-12929000D01*
X15967890Y-5348550D02*
X16007890Y-5388550D01*
X16007890Y-5348550D02*
X15967890Y-5388550D01*
X16220390Y-5990000D02*
X16260390Y-6030000D01*
X16260390Y-5990000D02*
X16220390Y-6030000D01*
X16324400Y-5609000D02*
X16364400Y-5649000D01*
X16364400Y-5609000D02*
X16324400Y-5649000D01*
X16375000Y-10098000D02*
X16415000Y-10138000D01*
X16415000Y-10098000D02*
X16375000Y-10138000D01*
X16414070Y-6879000D02*
X16454070Y-6919000D01*
X16454070Y-6879000D02*
X16414070Y-6919000D01*
X16813000Y-12271000D02*
X16853000Y-12311000D01*
X16853000Y-12271000D02*
X16813000Y-12311000D01*
X16851510Y-7403180D02*
X16891510Y-7443180D01*
X16891510Y-7403180D02*
X16851510Y-7443180D01*
X16880000Y-9117000D02*
X16920000Y-9157000D01*
X16920000Y-9117000D02*
X16880000Y-9157000D01*
X16933490Y-6117000D02*
X16973490Y-6157000D01*
X16973490Y-6117000D02*
X16933490Y-6157000D01*
X16947200Y-7854000D02*
X16987200Y-7894000D01*
X16987200Y-7854000D02*
X16947200Y-7894000D01*
X16965260Y-5101000D02*
X17005260Y-5141000D01*
X17005260Y-5101000D02*
X16965260Y-5141000D01*
X17108000Y-10657000D02*
X17148000Y-10697000D01*
X17148000Y-10657000D02*
X17108000Y-10697000D01*
D10*
X8631790Y-11234360D02*
G75*
G03*
X8631790Y-11234360I-25000J0D01*
G01*
X9025490Y-5875960D02*
G75*
G03*
X9025490Y-5875960I-25000J0D01*
G01*
X11547050Y-5796050D02*
G75*
G03*
X11547050Y-5796050I-25000J0D01*
G01*
X13122800Y-12748650D02*
G75*
G03*
X13122800Y-12748650I-25000J0D01*
G01*
X13736340Y-7122020D02*
G75*
G03*
X13736340Y-7122020I-25000J0D01*
G01*
X14019490Y-8235170D02*
G75*
G03*
X14019490Y-8235170I-25000J0D01*
G01*
X15535010Y-10633250D02*
G75*
G03*
X15535010Y-10633250I-25000J0D01*
G01*
D13*
X9076000Y-5500000D02*
X9076000Y-5576000D01*
X9038000Y-5538000D02*
X9114000Y-5538000D01*
X9203000Y-5246000D02*
X9203000Y-5322000D01*
X9165000Y-5284000D02*
X9241000Y-5284000D01*
X9330000Y-5500000D02*
X9330000Y-5576000D01*
X9292000Y-5538000D02*
X9368000Y-5538000D01*
X9457000Y-5246000D02*
X9457000Y-5322000D01*
X9419000Y-5284000D02*
X9495000Y-5284000D01*
X9584000Y-5500000D02*
X9584000Y-5576000D01*
X9546000Y-5538000D02*
X9622000Y-5538000D01*
X9711000Y-5246000D02*
X9711000Y-5322000D01*
X9673000Y-5284000D02*
X9749000Y-5284000D01*
X9838000Y-5500000D02*
X9838000Y-5576000D01*
X9800000Y-5538000D02*
X9876000Y-5538000D01*
X9965000Y-5246000D02*
X9965000Y-5322000D01*
X9927000Y-5284000D02*
X10003000Y-5284000D01*
X13295750Y-12995000D02*
X13295750Y-13071000D01*
X13257750Y-13033000D02*
X13333750Y-13033000D01*
X13422750Y-12741000D02*
X13422750Y-12817000D01*
X13384750Y-12779000D02*
X13460750Y-12779000D01*
X13549750Y-12995000D02*
X13549750Y-13071000D01*
X13511750Y-13033000D02*
X13587750Y-13033000D01*
X13676750Y-12741000D02*
X13676750Y-12817000D01*
X13638750Y-12779000D02*
X13714750Y-12779000D01*
X13803750Y-12995000D02*
X13803750Y-13071000D01*
X13765750Y-13033000D02*
X13841750Y-13033000D01*
X13930750Y-12741000D02*
X13930750Y-12817000D01*
X13892750Y-12779000D02*
X13968750Y-12779000D01*
X14057750Y-12995000D02*
X14057750Y-13071000D01*
X14019750Y-13033000D02*
X14095750Y-13033000D01*
X14184750Y-12741000D02*
X14184750Y-12817000D01*
X14146750Y-12779000D02*
X14222750Y-12779000D01*
D14*
X13330784Y-10693285D02*
X13330784Y-10636716D01*
X13274215Y-10636716D01*
X13274215Y-10693285D01*
X13330784Y-10693285D01*
X13584784Y-10439285D02*
X13584784Y-10382716D01*
X13528215Y-10382716D01*
X13528215Y-10439285D01*
X13584784Y-10439285D01*
X13584784Y-10947285D02*
X13584784Y-10890716D01*
X13528215Y-10890716D01*
X13528215Y-10947285D01*
X13584784Y-10947285D01*
X13655784Y-9791285D02*
X13655784Y-9734716D01*
X13599215Y-9734716D01*
X13599215Y-9791285D01*
X13655784Y-9791285D01*
X13995784Y-9791285D02*
X13995784Y-9734716D01*
X13939215Y-9734716D01*
X13939215Y-9791285D01*
X13995784Y-9791285D01*
D15*
X11511000Y-5084000D02*
X11556000Y-5039000D01*
X11511000Y-4994000D01*
X11466000Y-5039000D01*
X11511000Y-5084000D01*
D11*
X11556000Y-5119000D02*
X11556000Y-4959000D01*
X11466000Y-5119000D02*
X11466000Y-4959000D01*
X11556000Y-4959000D02*
G75*
G03*
X11466000Y-4959000I-45000J0D01*
G01*
X11466000Y-5119000D02*
G75*
G03*
X11556000Y-5119000I45000J0D01*
G01*
D15*
X12651000Y-5084000D02*
X12696000Y-5039000D01*
X12651000Y-4994000D01*
X12606000Y-5039000D01*
X12651000Y-5084000D01*
D11*
X12696000Y-5119000D02*
X12696000Y-4959000D01*
X12606000Y-5119000D02*
X12606000Y-4959000D01*
X12696000Y-4959000D02*
G75*
G03*
X12606000Y-4959000I-45000J0D01*
G01*
X12606000Y-5119000D02*
G75*
G03*
X12696000Y-5119000I45000J0D01*
G01*
D16*
X8005500Y-8707500D02*
X8100500Y-8802500D01*
X8100500Y-8707500D02*
X8005500Y-8802500D01*
X8100500Y-8755000D02*
G75*
G03*
X8100500Y-8755000I-47500J0D01*
G01*
X8005500Y-8957500D02*
X8100500Y-9052500D01*
X8100500Y-8957500D02*
X8005500Y-9052500D01*
X8100500Y-9005000D02*
G75*
G03*
X8100500Y-9005000I-47500J0D01*
G01*
X8005500Y-9207500D02*
X8100500Y-9302500D01*
X8100500Y-9207500D02*
X8005500Y-9302500D01*
X8100500Y-9255000D02*
G75*
G03*
X8100500Y-9255000I-47500J0D01*
G01*
X8005500Y-9457500D02*
X8100500Y-9552500D01*
X8100500Y-9457500D02*
X8005500Y-9552500D01*
X8100500Y-9505000D02*
G75*
G03*
X8100500Y-9505000I-47500J0D01*
G01*
X15496500Y-13389500D02*
X15591500Y-13484500D01*
X15591500Y-13389500D02*
X15496500Y-13484500D01*
X15591500Y-13437000D02*
G75*
G03*
X15591500Y-13437000I-47500J0D01*
G01*
X15746500Y-13389500D02*
X15841500Y-13484500D01*
X15841500Y-13389500D02*
X15746500Y-13484500D01*
X15841500Y-13437000D02*
G75*
G03*
X15841500Y-13437000I-47500J0D01*
G01*
X15996500Y-13389500D02*
X16091500Y-13484500D01*
X16091500Y-13389500D02*
X15996500Y-13484500D01*
X16091500Y-13437000D02*
G75*
G03*
X16091500Y-13437000I-47500J0D01*
G01*
X16246500Y-13389500D02*
X16341500Y-13484500D01*
X16341500Y-13389500D02*
X16246500Y-13484500D01*
X16341500Y-13437000D02*
G75*
G03*
X16341500Y-13437000I-47500J0D01*
G01*
X16496500Y-13389500D02*
X16591500Y-13484500D01*
X16591500Y-13389500D02*
X16496500Y-13484500D01*
X16591500Y-13437000D02*
G75*
G03*
X16591500Y-13437000I-47500J0D01*
G01*
X16746500Y-13389500D02*
X16841500Y-13484500D01*
X16841500Y-13389500D02*
X16746500Y-13484500D01*
X16841500Y-13437000D02*
G75*
G03*
X16841500Y-13437000I-47500J0D01*
G01*
X16996500Y-13389500D02*
X17091500Y-13484500D01*
X17091500Y-13389500D02*
X16996500Y-13484500D01*
X17091500Y-13437000D02*
G75*
G03*
X17091500Y-13437000I-47500J0D01*
G01*
X17246500Y-13389500D02*
X17341500Y-13484500D01*
X17341500Y-13389500D02*
X17246500Y-13484500D01*
X17341500Y-13437000D02*
G75*
G03*
X17341500Y-13437000I-47500J0D01*
G01*
D17*
X8363000Y-11604000D02*
X8463000Y-11704000D01*
X8463000Y-11604000D02*
X8363000Y-11704000D01*
X8413000Y-11604000D02*
X8413000Y-11704000D01*
X8363000Y-11654000D02*
X8463000Y-11654000D01*
X8363000Y-11854000D02*
X8463000Y-11954000D01*
X8463000Y-11854000D02*
X8363000Y-11954000D01*
X8413000Y-11854000D02*
X8413000Y-11954000D01*
X8363000Y-11904000D02*
X8463000Y-11904000D01*
X13065000Y-8523000D02*
X13165000Y-8623000D01*
X13165000Y-8523000D02*
X13065000Y-8623000D01*
X13115000Y-8523000D02*
X13115000Y-8623000D01*
X13065000Y-8573000D02*
X13165000Y-8573000D01*
X13319000Y-8523000D02*
X13419000Y-8623000D01*
X13419000Y-8523000D02*
X13319000Y-8623000D01*
X13369000Y-8523000D02*
X13369000Y-8623000D01*
X13319000Y-8573000D02*
X13419000Y-8573000D01*
X13702000Y-7686000D02*
X13802000Y-7786000D01*
X13802000Y-7686000D02*
X13702000Y-7786000D01*
X13752000Y-7686000D02*
X13752000Y-7786000D01*
X13702000Y-7736000D02*
X13802000Y-7736000D01*
X13702000Y-7940000D02*
X13802000Y-8040000D01*
X13802000Y-7940000D02*
X13702000Y-8040000D01*
X13752000Y-7940000D02*
X13752000Y-8040000D01*
X13702000Y-7990000D02*
X13802000Y-7990000D01*
X15868920Y-11714200D02*
X15968920Y-11814200D01*
X15968920Y-11714200D02*
X15868920Y-11814200D01*
X15918920Y-11714200D02*
X15918920Y-11814200D01*
X15868920Y-11764200D02*
X15968920Y-11764200D01*
X16122920Y-11714200D02*
X16222920Y-11814200D01*
X16222920Y-11714200D02*
X16122920Y-11814200D01*
X16172920Y-11714200D02*
X16172920Y-11814200D01*
X16122920Y-11764200D02*
X16222920Y-11764200D01*
X16128000Y-9485000D02*
X16228000Y-9585000D01*
X16228000Y-9485000D02*
X16128000Y-9585000D01*
X16178000Y-9485000D02*
X16178000Y-9585000D01*
X16128000Y-9535000D02*
X16228000Y-9535000D01*
X16376920Y-11714200D02*
X16476920Y-11814200D01*
X16476920Y-11714200D02*
X16376920Y-11814200D01*
X16426920Y-11714200D02*
X16426920Y-11814200D01*
X16376920Y-11764200D02*
X16476920Y-11764200D01*
X16382000Y-9485000D02*
X16482000Y-9585000D01*
X16482000Y-9485000D02*
X16382000Y-9585000D01*
X16432000Y-9485000D02*
X16432000Y-9585000D01*
X16382000Y-9535000D02*
X16482000Y-9535000D01*
X16630920Y-11714200D02*
X16730920Y-11814200D01*
X16730920Y-11714200D02*
X16630920Y-11814200D01*
X16680920Y-11714200D02*
X16680920Y-11814200D01*
X16630920Y-11764200D02*
X16730920Y-11764200D01*
X16636000Y-9485000D02*
X16736000Y-9585000D01*
X16736000Y-9485000D02*
X16636000Y-9585000D01*
X16686000Y-9485000D02*
X16686000Y-9585000D01*
X16636000Y-9535000D02*
X16736000Y-9535000D01*
X16884920Y-11714200D02*
X16984920Y-11814200D01*
X16984920Y-11714200D02*
X16884920Y-11814200D01*
X16934920Y-11714200D02*
X16934920Y-11814200D01*
X16884920Y-11764200D02*
X16984920Y-11764200D01*
X16890000Y-9485000D02*
X16990000Y-9585000D01*
X16990000Y-9485000D02*
X16890000Y-9585000D01*
X16940000Y-9485000D02*
X16940000Y-9585000D01*
X16890000Y-9535000D02*
X16990000Y-9535000D01*
X17095000Y-8332000D02*
X17195000Y-8432000D01*
X17195000Y-8332000D02*
X17095000Y-8432000D01*
X17145000Y-8332000D02*
X17145000Y-8432000D01*
X17095000Y-8382000D02*
X17195000Y-8382000D01*
X17095000Y-8586000D02*
X17195000Y-8686000D01*
X17195000Y-8586000D02*
X17095000Y-8686000D01*
X17145000Y-8586000D02*
X17145000Y-8686000D01*
X17095000Y-8636000D02*
X17195000Y-8636000D01*
X17095000Y-8840000D02*
X17195000Y-8940000D01*
X17195000Y-8840000D02*
X17095000Y-8940000D01*
X17145000Y-8840000D02*
X17145000Y-8940000D01*
X17095000Y-8890000D02*
X17195000Y-8890000D01*
X17138920Y-11714200D02*
X17238920Y-11814200D01*
X17238920Y-11714200D02*
X17138920Y-11814200D01*
X17188920Y-11714200D02*
X17188920Y-11814200D01*
X17138920Y-11764200D02*
X17238920Y-11764200D01*
X17144000Y-9485000D02*
X17244000Y-9585000D01*
X17244000Y-9485000D02*
X17144000Y-9585000D01*
X17194000Y-9485000D02*
X17194000Y-9585000D01*
X17144000Y-9535000D02*
X17244000Y-9535000D01*
X17398000Y-9485000D02*
X17498000Y-9585000D01*
X17498000Y-9485000D02*
X17398000Y-9585000D01*
X17448000Y-9485000D02*
X17448000Y-9585000D01*
X17398000Y-9535000D02*
X17498000Y-9535000D01*
D11*
X8011959Y-14398736D02*
X8011959Y-14198736D01*
X8059578Y-14198736D01*
X8088149Y-14208260D01*
X8107197Y-14227308D01*
X8116721Y-14246355D01*
X8126245Y-14284450D01*
X8126245Y-14313022D01*
X8116721Y-14351117D01*
X8107197Y-14370165D01*
X8088149Y-14389212D01*
X8059578Y-14398736D01*
X8011959Y-14398736D01*
X8211959Y-14398736D02*
X8211959Y-14265403D01*
X8211959Y-14303498D02*
X8221483Y-14284450D01*
X8231007Y-14274927D01*
X8250054Y-14265403D01*
X8269102Y-14265403D01*
X8335768Y-14398736D02*
X8335768Y-14265403D01*
X8335768Y-14198736D02*
X8326245Y-14208260D01*
X8335768Y-14217784D01*
X8345292Y-14208260D01*
X8335768Y-14198736D01*
X8335768Y-14217784D01*
X8459578Y-14398736D02*
X8440530Y-14389212D01*
X8431007Y-14370165D01*
X8431007Y-14198736D01*
X8564340Y-14398736D02*
X8545292Y-14389212D01*
X8535769Y-14370165D01*
X8535769Y-14198736D01*
X8792911Y-14398736D02*
X8792911Y-14198736D01*
X8859578Y-14341593D01*
X8926245Y-14198736D01*
X8926245Y-14398736D01*
X9107197Y-14398736D02*
X9107197Y-14293974D01*
X9097673Y-14274927D01*
X9078626Y-14265403D01*
X9040530Y-14265403D01*
X9021483Y-14274927D01*
X9107197Y-14389212D02*
X9088150Y-14398736D01*
X9040530Y-14398736D01*
X9021483Y-14389212D01*
X9011959Y-14370165D01*
X9011959Y-14351117D01*
X9021483Y-14332069D01*
X9040530Y-14322546D01*
X9088150Y-14322546D01*
X9107197Y-14313022D01*
X9202435Y-14265403D02*
X9202435Y-14465403D01*
X9202435Y-14274927D02*
X9221483Y-14265403D01*
X9259578Y-14265403D01*
X9278626Y-14274927D01*
X9288150Y-14284450D01*
X9297673Y-14303498D01*
X9297673Y-14360641D01*
X9288150Y-14379688D01*
X9278626Y-14389212D01*
X9259578Y-14398736D01*
X9221483Y-14398736D01*
X9202435Y-14389212D01*
X9383388Y-14379688D02*
X9392911Y-14389212D01*
X9383388Y-14398736D01*
X9373864Y-14389212D01*
X9383388Y-14379688D01*
X9383388Y-14398736D01*
X9383388Y-14274927D02*
X9392911Y-14284450D01*
X9383388Y-14293974D01*
X9373864Y-14284450D01*
X9383388Y-14274927D01*
X9383388Y-14293974D01*
D12*
X7714340Y-14708260D02*
X7754340Y-14748260D01*
X7754340Y-14708260D02*
X7714340Y-14748260D01*
D11*
X8050054Y-14618736D02*
X8069102Y-14618736D01*
X8088149Y-14628260D01*
X8097673Y-14637784D01*
X8107197Y-14656831D01*
X8116721Y-14694927D01*
X8116721Y-14742546D01*
X8107197Y-14780641D01*
X8097673Y-14799688D01*
X8088149Y-14809212D01*
X8069102Y-14818736D01*
X8050054Y-14818736D01*
X8031007Y-14809212D01*
X8021483Y-14799688D01*
X8011959Y-14780641D01*
X8002435Y-14742546D01*
X8002435Y-14694927D01*
X8011959Y-14656831D01*
X8021483Y-14637784D01*
X8031007Y-14628260D01*
X8050054Y-14618736D01*
X8202435Y-14799688D02*
X8211959Y-14809212D01*
X8202435Y-14818736D01*
X8192911Y-14809212D01*
X8202435Y-14799688D01*
X8202435Y-14818736D01*
X8383388Y-14685403D02*
X8383388Y-14818736D01*
X8335768Y-14609212D02*
X8288149Y-14752069D01*
X8411959Y-14752069D01*
X8526245Y-14618736D02*
X8545292Y-14618736D01*
X8564340Y-14628260D01*
X8573864Y-14637784D01*
X8583388Y-14656831D01*
X8592911Y-14694927D01*
X8592911Y-14742546D01*
X8583388Y-14780641D01*
X8573864Y-14799688D01*
X8564340Y-14809212D01*
X8545292Y-14818736D01*
X8526245Y-14818736D01*
X8507197Y-14809212D01*
X8497673Y-14799688D01*
X8488150Y-14780641D01*
X8478626Y-14742546D01*
X8478626Y-14694927D01*
X8488150Y-14656831D01*
X8497673Y-14637784D01*
X8507197Y-14628260D01*
X8526245Y-14618736D01*
X8716721Y-14618736D02*
X8735769Y-14618736D01*
X8754816Y-14628260D01*
X8764340Y-14637784D01*
X8773864Y-14656831D01*
X8783388Y-14694927D01*
X8783388Y-14742546D01*
X8773864Y-14780641D01*
X8764340Y-14799688D01*
X8754816Y-14809212D01*
X8735769Y-14818736D01*
X8716721Y-14818736D01*
X8697673Y-14809212D01*
X8688150Y-14799688D01*
X8678626Y-14780641D01*
X8669102Y-14742546D01*
X8669102Y-14694927D01*
X8678626Y-14656831D01*
X8688150Y-14637784D01*
X8697673Y-14628260D01*
X8716721Y-14618736D01*
X8869102Y-14818736D02*
X8869102Y-14685403D01*
X8869102Y-14704450D02*
X8878626Y-14694927D01*
X8897673Y-14685403D01*
X8926245Y-14685403D01*
X8945292Y-14694927D01*
X8954816Y-14713974D01*
X8954816Y-14818736D01*
X8954816Y-14713974D02*
X8964340Y-14694927D01*
X8983388Y-14685403D01*
X9011959Y-14685403D01*
X9031007Y-14694927D01*
X9040530Y-14713974D01*
X9040530Y-14818736D01*
X9135769Y-14818736D02*
X9135769Y-14685403D01*
X9135769Y-14704450D02*
X9145292Y-14694927D01*
X9164340Y-14685403D01*
X9192911Y-14685403D01*
X9211959Y-14694927D01*
X9221483Y-14713974D01*
X9221483Y-14818736D01*
X9221483Y-14713974D02*
X9231007Y-14694927D01*
X9250054Y-14685403D01*
X9278626Y-14685403D01*
X9297673Y-14694927D01*
X9307197Y-14713974D01*
X9307197Y-14818736D01*
X9697673Y-14609212D02*
X9526245Y-14866355D01*
X9954816Y-14618736D02*
X9973864Y-14618736D01*
X9992911Y-14628260D01*
X10002435Y-14637784D01*
X10011959Y-14656831D01*
X10021483Y-14694927D01*
X10021483Y-14742546D01*
X10011959Y-14780641D01*
X10002435Y-14799688D01*
X9992911Y-14809212D01*
X9973864Y-14818736D01*
X9954816Y-14818736D01*
X9935769Y-14809212D01*
X9926245Y-14799688D01*
X9916721Y-14780641D01*
X9907197Y-14742546D01*
X9907197Y-14694927D01*
X9916721Y-14656831D01*
X9926245Y-14637784D01*
X9935769Y-14628260D01*
X9954816Y-14618736D01*
X10107197Y-14799688D02*
X10116721Y-14809212D01*
X10107197Y-14818736D01*
X10097673Y-14809212D01*
X10107197Y-14799688D01*
X10107197Y-14818736D01*
X10240530Y-14618736D02*
X10259578Y-14618736D01*
X10278626Y-14628260D01*
X10288150Y-14637784D01*
X10297673Y-14656831D01*
X10307197Y-14694927D01*
X10307197Y-14742546D01*
X10297673Y-14780641D01*
X10288150Y-14799688D01*
X10278626Y-14809212D01*
X10259578Y-14818736D01*
X10240530Y-14818736D01*
X10221483Y-14809212D01*
X10211959Y-14799688D01*
X10202435Y-14780641D01*
X10192911Y-14742546D01*
X10192911Y-14694927D01*
X10202435Y-14656831D01*
X10211959Y-14637784D01*
X10221483Y-14628260D01*
X10240530Y-14618736D01*
X10497673Y-14818736D02*
X10383388Y-14818736D01*
X10440530Y-14818736D02*
X10440530Y-14618736D01*
X10421483Y-14647308D01*
X10402435Y-14666355D01*
X10383388Y-14675879D01*
X10678626Y-14618736D02*
X10583388Y-14618736D01*
X10573864Y-14713974D01*
X10583388Y-14704450D01*
X10602435Y-14694927D01*
X10650054Y-14694927D01*
X10669102Y-14704450D01*
X10678626Y-14713974D01*
X10688150Y-14733022D01*
X10688150Y-14780641D01*
X10678626Y-14799688D01*
X10669102Y-14809212D01*
X10650054Y-14818736D01*
X10602435Y-14818736D01*
X10583388Y-14809212D01*
X10573864Y-14799688D01*
X10754816Y-14618736D02*
X10888150Y-14618736D01*
X10802435Y-14818736D01*
X10954816Y-14618736D02*
X10954816Y-14656831D01*
X11031007Y-14618736D02*
X11031007Y-14656831D01*
X11326245Y-14894927D02*
X11316721Y-14885403D01*
X11297673Y-14856831D01*
X11288149Y-14837784D01*
X11278626Y-14809212D01*
X11269102Y-14761593D01*
X11269102Y-14723498D01*
X11278626Y-14675879D01*
X11288149Y-14647308D01*
X11297673Y-14628260D01*
X11316721Y-14599688D01*
X11326245Y-14590165D01*
X11507197Y-14818736D02*
X11392911Y-14818736D01*
X11450054Y-14818736D02*
X11450054Y-14618736D01*
X11431007Y-14647308D01*
X11411959Y-14666355D01*
X11392911Y-14675879D01*
X11697673Y-14818736D02*
X11583388Y-14818736D01*
X11640530Y-14818736D02*
X11640530Y-14618736D01*
X11621483Y-14647308D01*
X11602435Y-14666355D01*
X11583388Y-14675879D01*
X11821483Y-14618736D02*
X11840530Y-14618736D01*
X11859578Y-14628260D01*
X11869102Y-14637784D01*
X11878626Y-14656831D01*
X11888149Y-14694927D01*
X11888149Y-14742546D01*
X11878626Y-14780641D01*
X11869102Y-14799688D01*
X11859578Y-14809212D01*
X11840530Y-14818736D01*
X11821483Y-14818736D01*
X11802435Y-14809212D01*
X11792911Y-14799688D01*
X11783388Y-14780641D01*
X11773864Y-14742546D01*
X11773864Y-14694927D01*
X11783388Y-14656831D01*
X11792911Y-14637784D01*
X11802435Y-14628260D01*
X11821483Y-14618736D01*
X12126245Y-14818736D02*
X12126245Y-14618736D01*
X12211959Y-14818736D02*
X12211959Y-14713974D01*
X12202435Y-14694927D01*
X12183388Y-14685403D01*
X12154816Y-14685403D01*
X12135768Y-14694927D01*
X12126245Y-14704450D01*
X12335768Y-14818736D02*
X12316721Y-14809212D01*
X12307197Y-14799688D01*
X12297673Y-14780641D01*
X12297673Y-14723498D01*
X12307197Y-14704450D01*
X12316721Y-14694927D01*
X12335768Y-14685403D01*
X12364340Y-14685403D01*
X12383388Y-14694927D01*
X12392911Y-14704450D01*
X12402435Y-14723498D01*
X12402435Y-14780641D01*
X12392911Y-14799688D01*
X12383388Y-14809212D01*
X12364340Y-14818736D01*
X12335768Y-14818736D01*
X12516721Y-14818736D02*
X12497673Y-14809212D01*
X12488149Y-14790165D01*
X12488149Y-14618736D01*
X12669102Y-14809212D02*
X12650054Y-14818736D01*
X12611959Y-14818736D01*
X12592911Y-14809212D01*
X12583388Y-14790165D01*
X12583388Y-14713974D01*
X12592911Y-14694927D01*
X12611959Y-14685403D01*
X12650054Y-14685403D01*
X12669102Y-14694927D01*
X12678626Y-14713974D01*
X12678626Y-14733022D01*
X12583388Y-14752069D01*
X12754816Y-14809212D02*
X12773864Y-14818736D01*
X12811959Y-14818736D01*
X12831007Y-14809212D01*
X12840530Y-14790165D01*
X12840530Y-14780641D01*
X12831007Y-14761593D01*
X12811959Y-14752069D01*
X12783388Y-14752069D01*
X12764340Y-14742546D01*
X12754816Y-14723498D01*
X12754816Y-14713974D01*
X12764340Y-14694927D01*
X12783388Y-14685403D01*
X12811959Y-14685403D01*
X12831007Y-14694927D01*
X12907197Y-14894927D02*
X12916721Y-14885403D01*
X12935768Y-14856831D01*
X12945292Y-14837784D01*
X12954816Y-14809212D01*
X12964340Y-14761593D01*
X12964340Y-14723498D01*
X12954816Y-14675879D01*
X12945292Y-14647308D01*
X12935768Y-14628260D01*
X12916721Y-14599688D01*
X12907197Y-14590165D01*
D10*
X7754340Y-14992260D02*
G75*
G03*
X7754340Y-14992260I-25000J0D01*
G01*
D11*
X8050054Y-14882736D02*
X8069102Y-14882736D01*
X8088149Y-14892260D01*
X8097673Y-14901784D01*
X8107197Y-14920831D01*
X8116721Y-14958927D01*
X8116721Y-15006546D01*
X8107197Y-15044641D01*
X8097673Y-15063688D01*
X8088149Y-15073212D01*
X8069102Y-15082736D01*
X8050054Y-15082736D01*
X8031007Y-15073212D01*
X8021483Y-15063688D01*
X8011959Y-15044641D01*
X8002435Y-15006546D01*
X8002435Y-14958927D01*
X8011959Y-14920831D01*
X8021483Y-14901784D01*
X8031007Y-14892260D01*
X8050054Y-14882736D01*
X8202435Y-15063688D02*
X8211959Y-15073212D01*
X8202435Y-15082736D01*
X8192911Y-15073212D01*
X8202435Y-15063688D01*
X8202435Y-15082736D01*
X8392911Y-14882736D02*
X8297673Y-14882736D01*
X8288149Y-14977974D01*
X8297673Y-14968450D01*
X8316721Y-14958927D01*
X8364340Y-14958927D01*
X8383388Y-14968450D01*
X8392911Y-14977974D01*
X8402435Y-14997022D01*
X8402435Y-15044641D01*
X8392911Y-15063688D01*
X8383388Y-15073212D01*
X8364340Y-15082736D01*
X8316721Y-15082736D01*
X8297673Y-15073212D01*
X8288149Y-15063688D01*
X8526245Y-14882736D02*
X8545292Y-14882736D01*
X8564340Y-14892260D01*
X8573864Y-14901784D01*
X8583388Y-14920831D01*
X8592911Y-14958927D01*
X8592911Y-15006546D01*
X8583388Y-15044641D01*
X8573864Y-15063688D01*
X8564340Y-15073212D01*
X8545292Y-15082736D01*
X8526245Y-15082736D01*
X8507197Y-15073212D01*
X8497673Y-15063688D01*
X8488150Y-15044641D01*
X8478626Y-15006546D01*
X8478626Y-14958927D01*
X8488150Y-14920831D01*
X8497673Y-14901784D01*
X8507197Y-14892260D01*
X8526245Y-14882736D01*
X8716721Y-14882736D02*
X8735769Y-14882736D01*
X8754816Y-14892260D01*
X8764340Y-14901784D01*
X8773864Y-14920831D01*
X8783388Y-14958927D01*
X8783388Y-15006546D01*
X8773864Y-15044641D01*
X8764340Y-15063688D01*
X8754816Y-15073212D01*
X8735769Y-15082736D01*
X8716721Y-15082736D01*
X8697673Y-15073212D01*
X8688150Y-15063688D01*
X8678626Y-15044641D01*
X8669102Y-15006546D01*
X8669102Y-14958927D01*
X8678626Y-14920831D01*
X8688150Y-14901784D01*
X8697673Y-14892260D01*
X8716721Y-14882736D01*
X8869102Y-15082736D02*
X8869102Y-14949403D01*
X8869102Y-14968450D02*
X8878626Y-14958927D01*
X8897673Y-14949403D01*
X8926245Y-14949403D01*
X8945292Y-14958927D01*
X8954816Y-14977974D01*
X8954816Y-15082736D01*
X8954816Y-14977974D02*
X8964340Y-14958927D01*
X8983388Y-14949403D01*
X9011959Y-14949403D01*
X9031007Y-14958927D01*
X9040530Y-14977974D01*
X9040530Y-15082736D01*
X9135769Y-15082736D02*
X9135769Y-14949403D01*
X9135769Y-14968450D02*
X9145292Y-14958927D01*
X9164340Y-14949403D01*
X9192911Y-14949403D01*
X9211959Y-14958927D01*
X9221483Y-14977974D01*
X9221483Y-15082736D01*
X9221483Y-14977974D02*
X9231007Y-14958927D01*
X9250054Y-14949403D01*
X9278626Y-14949403D01*
X9297673Y-14958927D01*
X9307197Y-14977974D01*
X9307197Y-15082736D01*
X9697673Y-14873212D02*
X9526245Y-15130355D01*
X9954816Y-14882736D02*
X9973864Y-14882736D01*
X9992911Y-14892260D01*
X10002435Y-14901784D01*
X10011959Y-14920831D01*
X10021483Y-14958927D01*
X10021483Y-15006546D01*
X10011959Y-15044641D01*
X10002435Y-15063688D01*
X9992911Y-15073212D01*
X9973864Y-15082736D01*
X9954816Y-15082736D01*
X9935769Y-15073212D01*
X9926245Y-15063688D01*
X9916721Y-15044641D01*
X9907197Y-15006546D01*
X9907197Y-14958927D01*
X9916721Y-14920831D01*
X9926245Y-14901784D01*
X9935769Y-14892260D01*
X9954816Y-14882736D01*
X10107197Y-15063688D02*
X10116721Y-15073212D01*
X10107197Y-15082736D01*
X10097673Y-15073212D01*
X10107197Y-15063688D01*
X10107197Y-15082736D01*
X10240530Y-14882736D02*
X10259578Y-14882736D01*
X10278626Y-14892260D01*
X10288150Y-14901784D01*
X10297673Y-14920831D01*
X10307197Y-14958927D01*
X10307197Y-15006546D01*
X10297673Y-15044641D01*
X10288150Y-15063688D01*
X10278626Y-15073212D01*
X10259578Y-15082736D01*
X10240530Y-15082736D01*
X10221483Y-15073212D01*
X10211959Y-15063688D01*
X10202435Y-15044641D01*
X10192911Y-15006546D01*
X10192911Y-14958927D01*
X10202435Y-14920831D01*
X10211959Y-14901784D01*
X10221483Y-14892260D01*
X10240530Y-14882736D01*
X10497673Y-15082736D02*
X10383388Y-15082736D01*
X10440530Y-15082736D02*
X10440530Y-14882736D01*
X10421483Y-14911308D01*
X10402435Y-14930355D01*
X10383388Y-14939879D01*
X10592911Y-15082736D02*
X10631007Y-15082736D01*
X10650054Y-15073212D01*
X10659578Y-15063688D01*
X10678626Y-15035117D01*
X10688150Y-14997022D01*
X10688150Y-14920831D01*
X10678626Y-14901784D01*
X10669102Y-14892260D01*
X10650054Y-14882736D01*
X10611959Y-14882736D01*
X10592911Y-14892260D01*
X10583388Y-14901784D01*
X10573864Y-14920831D01*
X10573864Y-14968450D01*
X10583388Y-14987498D01*
X10592911Y-14997022D01*
X10611959Y-15006546D01*
X10650054Y-15006546D01*
X10669102Y-14997022D01*
X10678626Y-14987498D01*
X10688150Y-14968450D01*
X10754816Y-14882736D02*
X10888150Y-14882736D01*
X10802435Y-15082736D01*
X10954816Y-14882736D02*
X10954816Y-14920831D01*
X11031007Y-14882736D02*
X11031007Y-14920831D01*
X11326245Y-15158927D02*
X11316721Y-15149403D01*
X11297673Y-15120831D01*
X11288149Y-15101784D01*
X11278626Y-15073212D01*
X11269102Y-15025593D01*
X11269102Y-14987498D01*
X11278626Y-14939879D01*
X11288149Y-14911308D01*
X11297673Y-14892260D01*
X11316721Y-14863688D01*
X11326245Y-14854165D01*
X11383388Y-14882736D02*
X11516721Y-14882736D01*
X11431007Y-15082736D01*
X11745292Y-15082736D02*
X11745292Y-14882736D01*
X11831007Y-15082736D02*
X11831007Y-14977974D01*
X11821483Y-14958927D01*
X11802435Y-14949403D01*
X11773864Y-14949403D01*
X11754816Y-14958927D01*
X11745292Y-14968450D01*
X11954816Y-15082736D02*
X11935768Y-15073212D01*
X11926245Y-15063688D01*
X11916721Y-15044641D01*
X11916721Y-14987498D01*
X11926245Y-14968450D01*
X11935768Y-14958927D01*
X11954816Y-14949403D01*
X11983388Y-14949403D01*
X12002435Y-14958927D01*
X12011959Y-14968450D01*
X12021483Y-14987498D01*
X12021483Y-15044641D01*
X12011959Y-15063688D01*
X12002435Y-15073212D01*
X11983388Y-15082736D01*
X11954816Y-15082736D01*
X12135768Y-15082736D02*
X12116721Y-15073212D01*
X12107197Y-15054165D01*
X12107197Y-14882736D01*
X12288149Y-15073212D02*
X12269102Y-15082736D01*
X12231007Y-15082736D01*
X12211959Y-15073212D01*
X12202435Y-15054165D01*
X12202435Y-14977974D01*
X12211959Y-14958927D01*
X12231007Y-14949403D01*
X12269102Y-14949403D01*
X12288149Y-14958927D01*
X12297673Y-14977974D01*
X12297673Y-14997022D01*
X12202435Y-15016069D01*
X12373864Y-15073212D02*
X12392911Y-15082736D01*
X12431007Y-15082736D01*
X12450054Y-15073212D01*
X12459578Y-15054165D01*
X12459578Y-15044641D01*
X12450054Y-15025593D01*
X12431007Y-15016069D01*
X12402435Y-15016069D01*
X12383388Y-15006546D01*
X12373864Y-14987498D01*
X12373864Y-14977974D01*
X12383388Y-14958927D01*
X12402435Y-14949403D01*
X12431007Y-14949403D01*
X12450054Y-14958927D01*
X12526245Y-15158927D02*
X12535768Y-15149403D01*
X12554816Y-15120831D01*
X12564340Y-15101784D01*
X12573864Y-15073212D01*
X12583388Y-15025593D01*
X12583388Y-14987498D01*
X12573864Y-14939879D01*
X12564340Y-14911308D01*
X12554816Y-14892260D01*
X12535768Y-14863688D01*
X12526245Y-14854165D01*
D13*
X7716340Y-15218260D02*
X7716340Y-15294260D01*
X7678340Y-15256260D02*
X7754340Y-15256260D01*
D11*
X8050054Y-15146736D02*
X8069102Y-15146736D01*
X8088149Y-15156260D01*
X8097673Y-15165784D01*
X8107197Y-15184831D01*
X8116721Y-15222927D01*
X8116721Y-15270546D01*
X8107197Y-15308641D01*
X8097673Y-15327688D01*
X8088149Y-15337212D01*
X8069102Y-15346736D01*
X8050054Y-15346736D01*
X8031007Y-15337212D01*
X8021483Y-15327688D01*
X8011959Y-15308641D01*
X8002435Y-15270546D01*
X8002435Y-15222927D01*
X8011959Y-15184831D01*
X8021483Y-15165784D01*
X8031007Y-15156260D01*
X8050054Y-15146736D01*
X8202435Y-15327688D02*
X8211959Y-15337212D01*
X8202435Y-15346736D01*
X8192911Y-15337212D01*
X8202435Y-15327688D01*
X8202435Y-15346736D01*
X8278626Y-15146736D02*
X8411959Y-15146736D01*
X8326245Y-15346736D01*
X8573864Y-15146736D02*
X8535769Y-15146736D01*
X8516721Y-15156260D01*
X8507197Y-15165784D01*
X8488150Y-15194355D01*
X8478626Y-15232450D01*
X8478626Y-15308641D01*
X8488150Y-15327688D01*
X8497673Y-15337212D01*
X8516721Y-15346736D01*
X8554816Y-15346736D01*
X8573864Y-15337212D01*
X8583388Y-15327688D01*
X8592911Y-15308641D01*
X8592911Y-15261022D01*
X8583388Y-15241974D01*
X8573864Y-15232450D01*
X8554816Y-15222927D01*
X8516721Y-15222927D01*
X8497673Y-15232450D01*
X8488150Y-15241974D01*
X8478626Y-15261022D01*
X8716721Y-15146736D02*
X8735769Y-15146736D01*
X8754816Y-15156260D01*
X8764340Y-15165784D01*
X8773864Y-15184831D01*
X8783388Y-15222927D01*
X8783388Y-15270546D01*
X8773864Y-15308641D01*
X8764340Y-15327688D01*
X8754816Y-15337212D01*
X8735769Y-15346736D01*
X8716721Y-15346736D01*
X8697673Y-15337212D01*
X8688150Y-15327688D01*
X8678626Y-15308641D01*
X8669102Y-15270546D01*
X8669102Y-15222927D01*
X8678626Y-15184831D01*
X8688150Y-15165784D01*
X8697673Y-15156260D01*
X8716721Y-15146736D01*
X8869102Y-15346736D02*
X8869102Y-15213403D01*
X8869102Y-15232450D02*
X8878626Y-15222927D01*
X8897673Y-15213403D01*
X8926245Y-15213403D01*
X8945292Y-15222927D01*
X8954816Y-15241974D01*
X8954816Y-15346736D01*
X8954816Y-15241974D02*
X8964340Y-15222927D01*
X8983388Y-15213403D01*
X9011959Y-15213403D01*
X9031007Y-15222927D01*
X9040530Y-15241974D01*
X9040530Y-15346736D01*
X9135769Y-15346736D02*
X9135769Y-15213403D01*
X9135769Y-15232450D02*
X9145292Y-15222927D01*
X9164340Y-15213403D01*
X9192911Y-15213403D01*
X9211959Y-15222927D01*
X9221483Y-15241974D01*
X9221483Y-15346736D01*
X9221483Y-15241974D02*
X9231007Y-15222927D01*
X9250054Y-15213403D01*
X9278626Y-15213403D01*
X9297673Y-15222927D01*
X9307197Y-15241974D01*
X9307197Y-15346736D01*
X9697673Y-15137212D02*
X9526245Y-15394355D01*
X9954816Y-15146736D02*
X9973864Y-15146736D01*
X9992911Y-15156260D01*
X10002435Y-15165784D01*
X10011959Y-15184831D01*
X10021483Y-15222927D01*
X10021483Y-15270546D01*
X10011959Y-15308641D01*
X10002435Y-15327688D01*
X9992911Y-15337212D01*
X9973864Y-15346736D01*
X9954816Y-15346736D01*
X9935769Y-15337212D01*
X9926245Y-15327688D01*
X9916721Y-15308641D01*
X9907197Y-15270546D01*
X9907197Y-15222927D01*
X9916721Y-15184831D01*
X9926245Y-15165784D01*
X9935769Y-15156260D01*
X9954816Y-15146736D01*
X10107197Y-15327688D02*
X10116721Y-15337212D01*
X10107197Y-15346736D01*
X10097673Y-15337212D01*
X10107197Y-15327688D01*
X10107197Y-15346736D01*
X10240530Y-15146736D02*
X10259578Y-15146736D01*
X10278626Y-15156260D01*
X10288150Y-15165784D01*
X10297673Y-15184831D01*
X10307197Y-15222927D01*
X10307197Y-15270546D01*
X10297673Y-15308641D01*
X10288150Y-15327688D01*
X10278626Y-15337212D01*
X10259578Y-15346736D01*
X10240530Y-15346736D01*
X10221483Y-15337212D01*
X10211959Y-15327688D01*
X10202435Y-15308641D01*
X10192911Y-15270546D01*
X10192911Y-15222927D01*
X10202435Y-15184831D01*
X10211959Y-15165784D01*
X10221483Y-15156260D01*
X10240530Y-15146736D01*
X10383388Y-15165784D02*
X10392911Y-15156260D01*
X10411959Y-15146736D01*
X10459578Y-15146736D01*
X10478626Y-15156260D01*
X10488150Y-15165784D01*
X10497673Y-15184831D01*
X10497673Y-15203879D01*
X10488150Y-15232450D01*
X10373864Y-15346736D01*
X10497673Y-15346736D01*
X10592911Y-15346736D02*
X10631007Y-15346736D01*
X10650054Y-15337212D01*
X10659578Y-15327688D01*
X10678626Y-15299117D01*
X10688150Y-15261022D01*
X10688150Y-15184831D01*
X10678626Y-15165784D01*
X10669102Y-15156260D01*
X10650054Y-15146736D01*
X10611959Y-15146736D01*
X10592911Y-15156260D01*
X10583388Y-15165784D01*
X10573864Y-15184831D01*
X10573864Y-15232450D01*
X10583388Y-15251498D01*
X10592911Y-15261022D01*
X10611959Y-15270546D01*
X10650054Y-15270546D01*
X10669102Y-15261022D01*
X10678626Y-15251498D01*
X10688150Y-15232450D01*
X10783388Y-15346736D02*
X10821483Y-15346736D01*
X10840530Y-15337212D01*
X10850054Y-15327688D01*
X10869102Y-15299117D01*
X10878626Y-15261022D01*
X10878626Y-15184831D01*
X10869102Y-15165784D01*
X10859578Y-15156260D01*
X10840530Y-15146736D01*
X10802435Y-15146736D01*
X10783388Y-15156260D01*
X10773864Y-15165784D01*
X10764340Y-15184831D01*
X10764340Y-15232450D01*
X10773864Y-15251498D01*
X10783388Y-15261022D01*
X10802435Y-15270546D01*
X10840530Y-15270546D01*
X10859578Y-15261022D01*
X10869102Y-15251498D01*
X10878626Y-15232450D01*
X10954816Y-15146736D02*
X10954816Y-15184831D01*
X11031007Y-15146736D02*
X11031007Y-15184831D01*
X11326245Y-15422927D02*
X11316721Y-15413403D01*
X11297673Y-15384831D01*
X11288149Y-15365784D01*
X11278626Y-15337212D01*
X11269102Y-15289593D01*
X11269102Y-15251498D01*
X11278626Y-15203879D01*
X11288149Y-15175308D01*
X11297673Y-15156260D01*
X11316721Y-15127688D01*
X11326245Y-15118165D01*
X11507197Y-15346736D02*
X11392911Y-15346736D01*
X11450054Y-15346736D02*
X11450054Y-15146736D01*
X11431007Y-15175308D01*
X11411959Y-15194355D01*
X11392911Y-15203879D01*
X11678626Y-15146736D02*
X11640530Y-15146736D01*
X11621483Y-15156260D01*
X11611959Y-15165784D01*
X11592911Y-15194355D01*
X11583388Y-15232450D01*
X11583388Y-15308641D01*
X11592911Y-15327688D01*
X11602435Y-15337212D01*
X11621483Y-15346736D01*
X11659578Y-15346736D01*
X11678626Y-15337212D01*
X11688149Y-15327688D01*
X11697673Y-15308641D01*
X11697673Y-15261022D01*
X11688149Y-15241974D01*
X11678626Y-15232450D01*
X11659578Y-15222927D01*
X11621483Y-15222927D01*
X11602435Y-15232450D01*
X11592911Y-15241974D01*
X11583388Y-15261022D01*
X11935768Y-15346736D02*
X11935768Y-15146736D01*
X12021483Y-15346736D02*
X12021483Y-15241974D01*
X12011959Y-15222927D01*
X11992911Y-15213403D01*
X11964340Y-15213403D01*
X11945292Y-15222927D01*
X11935768Y-15232450D01*
X12145292Y-15346736D02*
X12126245Y-15337212D01*
X12116721Y-15327688D01*
X12107197Y-15308641D01*
X12107197Y-15251498D01*
X12116721Y-15232450D01*
X12126245Y-15222927D01*
X12145292Y-15213403D01*
X12173864Y-15213403D01*
X12192911Y-15222927D01*
X12202435Y-15232450D01*
X12211959Y-15251498D01*
X12211959Y-15308641D01*
X12202435Y-15327688D01*
X12192911Y-15337212D01*
X12173864Y-15346736D01*
X12145292Y-15346736D01*
X12326245Y-15346736D02*
X12307197Y-15337212D01*
X12297673Y-15318165D01*
X12297673Y-15146736D01*
X12478626Y-15337212D02*
X12459578Y-15346736D01*
X12421483Y-15346736D01*
X12402435Y-15337212D01*
X12392911Y-15318165D01*
X12392911Y-15241974D01*
X12402435Y-15222927D01*
X12421483Y-15213403D01*
X12459578Y-15213403D01*
X12478626Y-15222927D01*
X12488149Y-15241974D01*
X12488149Y-15261022D01*
X12392911Y-15280069D01*
X12564340Y-15337212D02*
X12583388Y-15346736D01*
X12621483Y-15346736D01*
X12640530Y-15337212D01*
X12650054Y-15318165D01*
X12650054Y-15308641D01*
X12640530Y-15289593D01*
X12621483Y-15280069D01*
X12592911Y-15280069D01*
X12573864Y-15270546D01*
X12564340Y-15251498D01*
X12564340Y-15241974D01*
X12573864Y-15222927D01*
X12592911Y-15213403D01*
X12621483Y-15213403D01*
X12640530Y-15222927D01*
X12716721Y-15422927D02*
X12726245Y-15413403D01*
X12745292Y-15384831D01*
X12754816Y-15365784D01*
X12764340Y-15337212D01*
X12773864Y-15289593D01*
X12773864Y-15251498D01*
X12764340Y-15203879D01*
X12754816Y-15175308D01*
X12745292Y-15156260D01*
X12726245Y-15127688D01*
X12716721Y-15118165D01*
D14*
X7742624Y-15548544D02*
X7742624Y-15491975D01*
X7686055Y-15491975D01*
X7686055Y-15548544D01*
X7742624Y-15548544D01*
D11*
X8050054Y-15410736D02*
X8069102Y-15410736D01*
X8088149Y-15420260D01*
X8097673Y-15429784D01*
X8107197Y-15448831D01*
X8116721Y-15486927D01*
X8116721Y-15534546D01*
X8107197Y-15572641D01*
X8097673Y-15591688D01*
X8088149Y-15601212D01*
X8069102Y-15610736D01*
X8050054Y-15610736D01*
X8031007Y-15601212D01*
X8021483Y-15591688D01*
X8011959Y-15572641D01*
X8002435Y-15534546D01*
X8002435Y-15486927D01*
X8011959Y-15448831D01*
X8021483Y-15429784D01*
X8031007Y-15420260D01*
X8050054Y-15410736D01*
X8202435Y-15591688D02*
X8211959Y-15601212D01*
X8202435Y-15610736D01*
X8192911Y-15601212D01*
X8202435Y-15591688D01*
X8202435Y-15610736D01*
X8326245Y-15496450D02*
X8307197Y-15486927D01*
X8297673Y-15477403D01*
X8288149Y-15458355D01*
X8288149Y-15448831D01*
X8297673Y-15429784D01*
X8307197Y-15420260D01*
X8326245Y-15410736D01*
X8364340Y-15410736D01*
X8383388Y-15420260D01*
X8392911Y-15429784D01*
X8402435Y-15448831D01*
X8402435Y-15458355D01*
X8392911Y-15477403D01*
X8383388Y-15486927D01*
X8364340Y-15496450D01*
X8326245Y-15496450D01*
X8307197Y-15505974D01*
X8297673Y-15515498D01*
X8288149Y-15534546D01*
X8288149Y-15572641D01*
X8297673Y-15591688D01*
X8307197Y-15601212D01*
X8326245Y-15610736D01*
X8364340Y-15610736D01*
X8383388Y-15601212D01*
X8392911Y-15591688D01*
X8402435Y-15572641D01*
X8402435Y-15534546D01*
X8392911Y-15515498D01*
X8383388Y-15505974D01*
X8364340Y-15496450D01*
X8526245Y-15410736D02*
X8545292Y-15410736D01*
X8564340Y-15420260D01*
X8573864Y-15429784D01*
X8583388Y-15448831D01*
X8592911Y-15486927D01*
X8592911Y-15534546D01*
X8583388Y-15572641D01*
X8573864Y-15591688D01*
X8564340Y-15601212D01*
X8545292Y-15610736D01*
X8526245Y-15610736D01*
X8507197Y-15601212D01*
X8497673Y-15591688D01*
X8488150Y-15572641D01*
X8478626Y-15534546D01*
X8478626Y-15486927D01*
X8488150Y-15448831D01*
X8497673Y-15429784D01*
X8507197Y-15420260D01*
X8526245Y-15410736D01*
X8716721Y-15410736D02*
X8735769Y-15410736D01*
X8754816Y-15420260D01*
X8764340Y-15429784D01*
X8773864Y-15448831D01*
X8783388Y-15486927D01*
X8783388Y-15534546D01*
X8773864Y-15572641D01*
X8764340Y-15591688D01*
X8754816Y-15601212D01*
X8735769Y-15610736D01*
X8716721Y-15610736D01*
X8697673Y-15601212D01*
X8688150Y-15591688D01*
X8678626Y-15572641D01*
X8669102Y-15534546D01*
X8669102Y-15486927D01*
X8678626Y-15448831D01*
X8688150Y-15429784D01*
X8697673Y-15420260D01*
X8716721Y-15410736D01*
X8869102Y-15610736D02*
X8869102Y-15477403D01*
X8869102Y-15496450D02*
X8878626Y-15486927D01*
X8897673Y-15477403D01*
X8926245Y-15477403D01*
X8945292Y-15486927D01*
X8954816Y-15505974D01*
X8954816Y-15610736D01*
X8954816Y-15505974D02*
X8964340Y-15486927D01*
X8983388Y-15477403D01*
X9011959Y-15477403D01*
X9031007Y-15486927D01*
X9040530Y-15505974D01*
X9040530Y-15610736D01*
X9135769Y-15610736D02*
X9135769Y-15477403D01*
X9135769Y-15496450D02*
X9145292Y-15486927D01*
X9164340Y-15477403D01*
X9192911Y-15477403D01*
X9211959Y-15486927D01*
X9221483Y-15505974D01*
X9221483Y-15610736D01*
X9221483Y-15505974D02*
X9231007Y-15486927D01*
X9250054Y-15477403D01*
X9278626Y-15477403D01*
X9297673Y-15486927D01*
X9307197Y-15505974D01*
X9307197Y-15610736D01*
X9697673Y-15401212D02*
X9526245Y-15658355D01*
X9954816Y-15410736D02*
X9973864Y-15410736D01*
X9992911Y-15420260D01*
X10002435Y-15429784D01*
X10011959Y-15448831D01*
X10021483Y-15486927D01*
X10021483Y-15534546D01*
X10011959Y-15572641D01*
X10002435Y-15591688D01*
X9992911Y-15601212D01*
X9973864Y-15610736D01*
X9954816Y-15610736D01*
X9935769Y-15601212D01*
X9926245Y-15591688D01*
X9916721Y-15572641D01*
X9907197Y-15534546D01*
X9907197Y-15486927D01*
X9916721Y-15448831D01*
X9926245Y-15429784D01*
X9935769Y-15420260D01*
X9954816Y-15410736D01*
X10107197Y-15591688D02*
X10116721Y-15601212D01*
X10107197Y-15610736D01*
X10097673Y-15601212D01*
X10107197Y-15591688D01*
X10107197Y-15610736D01*
X10240530Y-15410736D02*
X10259578Y-15410736D01*
X10278626Y-15420260D01*
X10288150Y-15429784D01*
X10297673Y-15448831D01*
X10307197Y-15486927D01*
X10307197Y-15534546D01*
X10297673Y-15572641D01*
X10288150Y-15591688D01*
X10278626Y-15601212D01*
X10259578Y-15610736D01*
X10240530Y-15610736D01*
X10221483Y-15601212D01*
X10211959Y-15591688D01*
X10202435Y-15572641D01*
X10192911Y-15534546D01*
X10192911Y-15486927D01*
X10202435Y-15448831D01*
X10211959Y-15429784D01*
X10221483Y-15420260D01*
X10240530Y-15410736D01*
X10373864Y-15410736D02*
X10497673Y-15410736D01*
X10431007Y-15486927D01*
X10459578Y-15486927D01*
X10478626Y-15496450D01*
X10488150Y-15505974D01*
X10497673Y-15525022D01*
X10497673Y-15572641D01*
X10488150Y-15591688D01*
X10478626Y-15601212D01*
X10459578Y-15610736D01*
X10402435Y-15610736D01*
X10383388Y-15601212D01*
X10373864Y-15591688D01*
X10688150Y-15610736D02*
X10573864Y-15610736D01*
X10631007Y-15610736D02*
X10631007Y-15410736D01*
X10611959Y-15439308D01*
X10592911Y-15458355D01*
X10573864Y-15467879D01*
X10869102Y-15410736D02*
X10773864Y-15410736D01*
X10764340Y-15505974D01*
X10773864Y-15496450D01*
X10792911Y-15486927D01*
X10840530Y-15486927D01*
X10859578Y-15496450D01*
X10869102Y-15505974D01*
X10878626Y-15525022D01*
X10878626Y-15572641D01*
X10869102Y-15591688D01*
X10859578Y-15601212D01*
X10840530Y-15610736D01*
X10792911Y-15610736D01*
X10773864Y-15601212D01*
X10764340Y-15591688D01*
X10954816Y-15410736D02*
X10954816Y-15448831D01*
X11031007Y-15410736D02*
X11031007Y-15448831D01*
X11326245Y-15686927D02*
X11316721Y-15677403D01*
X11297673Y-15648831D01*
X11288149Y-15629784D01*
X11278626Y-15601212D01*
X11269102Y-15553593D01*
X11269102Y-15515498D01*
X11278626Y-15467879D01*
X11288149Y-15439308D01*
X11297673Y-15420260D01*
X11316721Y-15391688D01*
X11326245Y-15382165D01*
X11497673Y-15410736D02*
X11402435Y-15410736D01*
X11392911Y-15505974D01*
X11402435Y-15496450D01*
X11421483Y-15486927D01*
X11469102Y-15486927D01*
X11488149Y-15496450D01*
X11497673Y-15505974D01*
X11507197Y-15525022D01*
X11507197Y-15572641D01*
X11497673Y-15591688D01*
X11488149Y-15601212D01*
X11469102Y-15610736D01*
X11421483Y-15610736D01*
X11402435Y-15601212D01*
X11392911Y-15591688D01*
X11745292Y-15610736D02*
X11745292Y-15410736D01*
X11831007Y-15610736D02*
X11831007Y-15505974D01*
X11821483Y-15486927D01*
X11802435Y-15477403D01*
X11773864Y-15477403D01*
X11754816Y-15486927D01*
X11745292Y-15496450D01*
X11954816Y-15610736D02*
X11935768Y-15601212D01*
X11926245Y-15591688D01*
X11916721Y-15572641D01*
X11916721Y-15515498D01*
X11926245Y-15496450D01*
X11935768Y-15486927D01*
X11954816Y-15477403D01*
X11983388Y-15477403D01*
X12002435Y-15486927D01*
X12011959Y-15496450D01*
X12021483Y-15515498D01*
X12021483Y-15572641D01*
X12011959Y-15591688D01*
X12002435Y-15601212D01*
X11983388Y-15610736D01*
X11954816Y-15610736D01*
X12135768Y-15610736D02*
X12116721Y-15601212D01*
X12107197Y-15582165D01*
X12107197Y-15410736D01*
X12288149Y-15601212D02*
X12269102Y-15610736D01*
X12231007Y-15610736D01*
X12211959Y-15601212D01*
X12202435Y-15582165D01*
X12202435Y-15505974D01*
X12211959Y-15486927D01*
X12231007Y-15477403D01*
X12269102Y-15477403D01*
X12288149Y-15486927D01*
X12297673Y-15505974D01*
X12297673Y-15525022D01*
X12202435Y-15544069D01*
X12373864Y-15601212D02*
X12392911Y-15610736D01*
X12431007Y-15610736D01*
X12450054Y-15601212D01*
X12459578Y-15582165D01*
X12459578Y-15572641D01*
X12450054Y-15553593D01*
X12431007Y-15544069D01*
X12402435Y-15544069D01*
X12383388Y-15534546D01*
X12373864Y-15515498D01*
X12373864Y-15505974D01*
X12383388Y-15486927D01*
X12402435Y-15477403D01*
X12431007Y-15477403D01*
X12450054Y-15486927D01*
X12526245Y-15686927D02*
X12535768Y-15677403D01*
X12554816Y-15648831D01*
X12564340Y-15629784D01*
X12573864Y-15601212D01*
X12583388Y-15553593D01*
X12583388Y-15515498D01*
X12573864Y-15467879D01*
X12564340Y-15439308D01*
X12554816Y-15420260D01*
X12535768Y-15391688D01*
X12526245Y-15382165D01*
D15*
X7709340Y-15829260D02*
X7754340Y-15784260D01*
X7709340Y-15739260D01*
X7664340Y-15784260D01*
X7709340Y-15829260D01*
D11*
X8050054Y-15674736D02*
X8069102Y-15674736D01*
X8088149Y-15684260D01*
X8097673Y-15693784D01*
X8107197Y-15712831D01*
X8116721Y-15750927D01*
X8116721Y-15798546D01*
X8107197Y-15836641D01*
X8097673Y-15855688D01*
X8088149Y-15865212D01*
X8069102Y-15874736D01*
X8050054Y-15874736D01*
X8031007Y-15865212D01*
X8021483Y-15855688D01*
X8011959Y-15836641D01*
X8002435Y-15798546D01*
X8002435Y-15750927D01*
X8011959Y-15712831D01*
X8021483Y-15693784D01*
X8031007Y-15684260D01*
X8050054Y-15674736D01*
X8202435Y-15855688D02*
X8211959Y-15865212D01*
X8202435Y-15874736D01*
X8192911Y-15865212D01*
X8202435Y-15855688D01*
X8202435Y-15874736D01*
X8307197Y-15874736D02*
X8345292Y-15874736D01*
X8364340Y-15865212D01*
X8373864Y-15855688D01*
X8392911Y-15827117D01*
X8402435Y-15789022D01*
X8402435Y-15712831D01*
X8392911Y-15693784D01*
X8383388Y-15684260D01*
X8364340Y-15674736D01*
X8326245Y-15674736D01*
X8307197Y-15684260D01*
X8297673Y-15693784D01*
X8288149Y-15712831D01*
X8288149Y-15760450D01*
X8297673Y-15779498D01*
X8307197Y-15789022D01*
X8326245Y-15798546D01*
X8364340Y-15798546D01*
X8383388Y-15789022D01*
X8392911Y-15779498D01*
X8402435Y-15760450D01*
X8526245Y-15674736D02*
X8545292Y-15674736D01*
X8564340Y-15684260D01*
X8573864Y-15693784D01*
X8583388Y-15712831D01*
X8592911Y-15750927D01*
X8592911Y-15798546D01*
X8583388Y-15836641D01*
X8573864Y-15855688D01*
X8564340Y-15865212D01*
X8545292Y-15874736D01*
X8526245Y-15874736D01*
X8507197Y-15865212D01*
X8497673Y-15855688D01*
X8488150Y-15836641D01*
X8478626Y-15798546D01*
X8478626Y-15750927D01*
X8488150Y-15712831D01*
X8497673Y-15693784D01*
X8507197Y-15684260D01*
X8526245Y-15674736D01*
X8716721Y-15674736D02*
X8735769Y-15674736D01*
X8754816Y-15684260D01*
X8764340Y-15693784D01*
X8773864Y-15712831D01*
X8783388Y-15750927D01*
X8783388Y-15798546D01*
X8773864Y-15836641D01*
X8764340Y-15855688D01*
X8754816Y-15865212D01*
X8735769Y-15874736D01*
X8716721Y-15874736D01*
X8697673Y-15865212D01*
X8688150Y-15855688D01*
X8678626Y-15836641D01*
X8669102Y-15798546D01*
X8669102Y-15750927D01*
X8678626Y-15712831D01*
X8688150Y-15693784D01*
X8697673Y-15684260D01*
X8716721Y-15674736D01*
X8869102Y-15874736D02*
X8869102Y-15741403D01*
X8869102Y-15760450D02*
X8878626Y-15750927D01*
X8897673Y-15741403D01*
X8926245Y-15741403D01*
X8945292Y-15750927D01*
X8954816Y-15769974D01*
X8954816Y-15874736D01*
X8954816Y-15769974D02*
X8964340Y-15750927D01*
X8983388Y-15741403D01*
X9011959Y-15741403D01*
X9031007Y-15750927D01*
X9040530Y-15769974D01*
X9040530Y-15874736D01*
X9135769Y-15874736D02*
X9135769Y-15741403D01*
X9135769Y-15760450D02*
X9145292Y-15750927D01*
X9164340Y-15741403D01*
X9192911Y-15741403D01*
X9211959Y-15750927D01*
X9221483Y-15769974D01*
X9221483Y-15874736D01*
X9221483Y-15769974D02*
X9231007Y-15750927D01*
X9250054Y-15741403D01*
X9278626Y-15741403D01*
X9297673Y-15750927D01*
X9307197Y-15769974D01*
X9307197Y-15874736D01*
X9697673Y-15665212D02*
X9526245Y-15922355D01*
X9954816Y-15674736D02*
X9973864Y-15674736D01*
X9992911Y-15684260D01*
X10002435Y-15693784D01*
X10011959Y-15712831D01*
X10021483Y-15750927D01*
X10021483Y-15798546D01*
X10011959Y-15836641D01*
X10002435Y-15855688D01*
X9992911Y-15865212D01*
X9973864Y-15874736D01*
X9954816Y-15874736D01*
X9935769Y-15865212D01*
X9926245Y-15855688D01*
X9916721Y-15836641D01*
X9907197Y-15798546D01*
X9907197Y-15750927D01*
X9916721Y-15712831D01*
X9926245Y-15693784D01*
X9935769Y-15684260D01*
X9954816Y-15674736D01*
X10107197Y-15855688D02*
X10116721Y-15865212D01*
X10107197Y-15874736D01*
X10097673Y-15865212D01*
X10107197Y-15855688D01*
X10107197Y-15874736D01*
X10240530Y-15674736D02*
X10259578Y-15674736D01*
X10278626Y-15684260D01*
X10288150Y-15693784D01*
X10297673Y-15712831D01*
X10307197Y-15750927D01*
X10307197Y-15798546D01*
X10297673Y-15836641D01*
X10288150Y-15855688D01*
X10278626Y-15865212D01*
X10259578Y-15874736D01*
X10240530Y-15874736D01*
X10221483Y-15865212D01*
X10211959Y-15855688D01*
X10202435Y-15836641D01*
X10192911Y-15798546D01*
X10192911Y-15750927D01*
X10202435Y-15712831D01*
X10211959Y-15693784D01*
X10221483Y-15684260D01*
X10240530Y-15674736D01*
X10373864Y-15674736D02*
X10497673Y-15674736D01*
X10431007Y-15750927D01*
X10459578Y-15750927D01*
X10478626Y-15760450D01*
X10488150Y-15769974D01*
X10497673Y-15789022D01*
X10497673Y-15836641D01*
X10488150Y-15855688D01*
X10478626Y-15865212D01*
X10459578Y-15874736D01*
X10402435Y-15874736D01*
X10383388Y-15865212D01*
X10373864Y-15855688D01*
X10678626Y-15674736D02*
X10583388Y-15674736D01*
X10573864Y-15769974D01*
X10583388Y-15760450D01*
X10602435Y-15750927D01*
X10650054Y-15750927D01*
X10669102Y-15760450D01*
X10678626Y-15769974D01*
X10688150Y-15789022D01*
X10688150Y-15836641D01*
X10678626Y-15855688D01*
X10669102Y-15865212D01*
X10650054Y-15874736D01*
X10602435Y-15874736D01*
X10583388Y-15865212D01*
X10573864Y-15855688D01*
X10859578Y-15741403D02*
X10859578Y-15874736D01*
X10811959Y-15665212D02*
X10764340Y-15808069D01*
X10888150Y-15808069D01*
X10954816Y-15674736D02*
X10954816Y-15712831D01*
X11031007Y-15674736D02*
X11031007Y-15712831D01*
X11326245Y-15950927D02*
X11316721Y-15941403D01*
X11297673Y-15912831D01*
X11288149Y-15893784D01*
X11278626Y-15865212D01*
X11269102Y-15817593D01*
X11269102Y-15779498D01*
X11278626Y-15731879D01*
X11288149Y-15703308D01*
X11297673Y-15684260D01*
X11316721Y-15655688D01*
X11326245Y-15646165D01*
X11440530Y-15674736D02*
X11459578Y-15674736D01*
X11478626Y-15684260D01*
X11488149Y-15693784D01*
X11497673Y-15712831D01*
X11507197Y-15750927D01*
X11507197Y-15798546D01*
X11497673Y-15836641D01*
X11488149Y-15855688D01*
X11478626Y-15865212D01*
X11459578Y-15874736D01*
X11440530Y-15874736D01*
X11421483Y-15865212D01*
X11411959Y-15855688D01*
X11402435Y-15836641D01*
X11392911Y-15798546D01*
X11392911Y-15750927D01*
X11402435Y-15712831D01*
X11411959Y-15693784D01*
X11421483Y-15684260D01*
X11440530Y-15674736D01*
X11745292Y-15874736D02*
X11745292Y-15674736D01*
X11831007Y-15874736D02*
X11831007Y-15769974D01*
X11821483Y-15750927D01*
X11802435Y-15741403D01*
X11773864Y-15741403D01*
X11754816Y-15750927D01*
X11745292Y-15760450D01*
X11954816Y-15874736D02*
X11935768Y-15865212D01*
X11926245Y-15855688D01*
X11916721Y-15836641D01*
X11916721Y-15779498D01*
X11926245Y-15760450D01*
X11935768Y-15750927D01*
X11954816Y-15741403D01*
X11983388Y-15741403D01*
X12002435Y-15750927D01*
X12011959Y-15760450D01*
X12021483Y-15779498D01*
X12021483Y-15836641D01*
X12011959Y-15855688D01*
X12002435Y-15865212D01*
X11983388Y-15874736D01*
X11954816Y-15874736D01*
X12135768Y-15874736D02*
X12116721Y-15865212D01*
X12107197Y-15846165D01*
X12107197Y-15674736D01*
X12288149Y-15865212D02*
X12269102Y-15874736D01*
X12231007Y-15874736D01*
X12211959Y-15865212D01*
X12202435Y-15846165D01*
X12202435Y-15769974D01*
X12211959Y-15750927D01*
X12231007Y-15741403D01*
X12269102Y-15741403D01*
X12288149Y-15750927D01*
X12297673Y-15769974D01*
X12297673Y-15789022D01*
X12202435Y-15808069D01*
X12373864Y-15865212D02*
X12392911Y-15874736D01*
X12431007Y-15874736D01*
X12450054Y-15865212D01*
X12459578Y-15846165D01*
X12459578Y-15836641D01*
X12450054Y-15817593D01*
X12431007Y-15808069D01*
X12402435Y-15808069D01*
X12383388Y-15798546D01*
X12373864Y-15779498D01*
X12373864Y-15769974D01*
X12383388Y-15750927D01*
X12402435Y-15741403D01*
X12431007Y-15741403D01*
X12450054Y-15750927D01*
X12697673Y-15798546D02*
X12850054Y-15798546D01*
X12773864Y-15874736D02*
X12773864Y-15722355D01*
X13088149Y-15693784D02*
X13097673Y-15684260D01*
X13116721Y-15674736D01*
X13164340Y-15674736D01*
X13183388Y-15684260D01*
X13192911Y-15693784D01*
X13202435Y-15712831D01*
X13202435Y-15731879D01*
X13192911Y-15760450D01*
X13078626Y-15874736D01*
X13202435Y-15874736D01*
X13431007Y-15865212D02*
X13450054Y-15874736D01*
X13488149Y-15874736D01*
X13507197Y-15865212D01*
X13516721Y-15846165D01*
X13516721Y-15836641D01*
X13507197Y-15817593D01*
X13488149Y-15808069D01*
X13459578Y-15808069D01*
X13440530Y-15798546D01*
X13431007Y-15779498D01*
X13431007Y-15769974D01*
X13440530Y-15750927D01*
X13459578Y-15741403D01*
X13488149Y-15741403D01*
X13507197Y-15750927D01*
X13631007Y-15874736D02*
X13611959Y-15865212D01*
X13602435Y-15846165D01*
X13602435Y-15674736D01*
X13735768Y-15874736D02*
X13716721Y-15865212D01*
X13707197Y-15855688D01*
X13697673Y-15836641D01*
X13697673Y-15779498D01*
X13707197Y-15760450D01*
X13716721Y-15750927D01*
X13735768Y-15741403D01*
X13764340Y-15741403D01*
X13783388Y-15750927D01*
X13792911Y-15760450D01*
X13802435Y-15779498D01*
X13802435Y-15836641D01*
X13792911Y-15855688D01*
X13783388Y-15865212D01*
X13764340Y-15874736D01*
X13735768Y-15874736D01*
X13859578Y-15741403D02*
X13935768Y-15741403D01*
X13888149Y-15674736D02*
X13888149Y-15846165D01*
X13897673Y-15865212D01*
X13916721Y-15874736D01*
X13935768Y-15874736D01*
X13992911Y-15865212D02*
X14011959Y-15874736D01*
X14050054Y-15874736D01*
X14069102Y-15865212D01*
X14078626Y-15846165D01*
X14078626Y-15836641D01*
X14069102Y-15817593D01*
X14050054Y-15808069D01*
X14021483Y-15808069D01*
X14002435Y-15798546D01*
X13992911Y-15779498D01*
X13992911Y-15769974D01*
X14002435Y-15750927D01*
X14021483Y-15741403D01*
X14050054Y-15741403D01*
X14069102Y-15750927D01*
X14145292Y-15950927D02*
X14154816Y-15941403D01*
X14173864Y-15912831D01*
X14183388Y-15893784D01*
X14192911Y-15865212D01*
X14202435Y-15817593D01*
X14202435Y-15779498D01*
X14192911Y-15731879D01*
X14183388Y-15703308D01*
X14173864Y-15684260D01*
X14154816Y-15655688D01*
X14145292Y-15646165D01*
D16*
X7659340Y-16000760D02*
X7754340Y-16095760D01*
X7754340Y-16000760D02*
X7659340Y-16095760D01*
X7754340Y-16048260D02*
G75*
G03*
X7754340Y-16048260I-47500J0D01*
G01*
D11*
X8050054Y-15938736D02*
X8069102Y-15938736D01*
X8088149Y-15948260D01*
X8097673Y-15957784D01*
X8107197Y-15976831D01*
X8116721Y-16014927D01*
X8116721Y-16062546D01*
X8107197Y-16100641D01*
X8097673Y-16119688D01*
X8088149Y-16129212D01*
X8069102Y-16138736D01*
X8050054Y-16138736D01*
X8031007Y-16129212D01*
X8021483Y-16119688D01*
X8011959Y-16100641D01*
X8002435Y-16062546D01*
X8002435Y-16014927D01*
X8011959Y-15976831D01*
X8021483Y-15957784D01*
X8031007Y-15948260D01*
X8050054Y-15938736D01*
X8202435Y-16119688D02*
X8211959Y-16129212D01*
X8202435Y-16138736D01*
X8192911Y-16129212D01*
X8202435Y-16119688D01*
X8202435Y-16138736D01*
X8307197Y-16138736D02*
X8345292Y-16138736D01*
X8364340Y-16129212D01*
X8373864Y-16119688D01*
X8392911Y-16091117D01*
X8402435Y-16053022D01*
X8402435Y-15976831D01*
X8392911Y-15957784D01*
X8383388Y-15948260D01*
X8364340Y-15938736D01*
X8326245Y-15938736D01*
X8307197Y-15948260D01*
X8297673Y-15957784D01*
X8288149Y-15976831D01*
X8288149Y-16024450D01*
X8297673Y-16043498D01*
X8307197Y-16053022D01*
X8326245Y-16062546D01*
X8364340Y-16062546D01*
X8383388Y-16053022D01*
X8392911Y-16043498D01*
X8402435Y-16024450D01*
X8583388Y-15938736D02*
X8488150Y-15938736D01*
X8478626Y-16033974D01*
X8488150Y-16024450D01*
X8507197Y-16014927D01*
X8554816Y-16014927D01*
X8573864Y-16024450D01*
X8583388Y-16033974D01*
X8592911Y-16053022D01*
X8592911Y-16100641D01*
X8583388Y-16119688D01*
X8573864Y-16129212D01*
X8554816Y-16138736D01*
X8507197Y-16138736D01*
X8488150Y-16129212D01*
X8478626Y-16119688D01*
X8716721Y-15938736D02*
X8735769Y-15938736D01*
X8754816Y-15948260D01*
X8764340Y-15957784D01*
X8773864Y-15976831D01*
X8783388Y-16014927D01*
X8783388Y-16062546D01*
X8773864Y-16100641D01*
X8764340Y-16119688D01*
X8754816Y-16129212D01*
X8735769Y-16138736D01*
X8716721Y-16138736D01*
X8697673Y-16129212D01*
X8688150Y-16119688D01*
X8678626Y-16100641D01*
X8669102Y-16062546D01*
X8669102Y-16014927D01*
X8678626Y-15976831D01*
X8688150Y-15957784D01*
X8697673Y-15948260D01*
X8716721Y-15938736D01*
X8869102Y-16138736D02*
X8869102Y-16005403D01*
X8869102Y-16024450D02*
X8878626Y-16014927D01*
X8897673Y-16005403D01*
X8926245Y-16005403D01*
X8945292Y-16014927D01*
X8954816Y-16033974D01*
X8954816Y-16138736D01*
X8954816Y-16033974D02*
X8964340Y-16014927D01*
X8983388Y-16005403D01*
X9011959Y-16005403D01*
X9031007Y-16014927D01*
X9040530Y-16033974D01*
X9040530Y-16138736D01*
X9135769Y-16138736D02*
X9135769Y-16005403D01*
X9135769Y-16024450D02*
X9145292Y-16014927D01*
X9164340Y-16005403D01*
X9192911Y-16005403D01*
X9211959Y-16014927D01*
X9221483Y-16033974D01*
X9221483Y-16138736D01*
X9221483Y-16033974D02*
X9231007Y-16014927D01*
X9250054Y-16005403D01*
X9278626Y-16005403D01*
X9297673Y-16014927D01*
X9307197Y-16033974D01*
X9307197Y-16138736D01*
X9697673Y-15929212D02*
X9526245Y-16186355D01*
X9954816Y-15938736D02*
X9973864Y-15938736D01*
X9992911Y-15948260D01*
X10002435Y-15957784D01*
X10011959Y-15976831D01*
X10021483Y-16014927D01*
X10021483Y-16062546D01*
X10011959Y-16100641D01*
X10002435Y-16119688D01*
X9992911Y-16129212D01*
X9973864Y-16138736D01*
X9954816Y-16138736D01*
X9935769Y-16129212D01*
X9926245Y-16119688D01*
X9916721Y-16100641D01*
X9907197Y-16062546D01*
X9907197Y-16014927D01*
X9916721Y-15976831D01*
X9926245Y-15957784D01*
X9935769Y-15948260D01*
X9954816Y-15938736D01*
X10107197Y-16119688D02*
X10116721Y-16129212D01*
X10107197Y-16138736D01*
X10097673Y-16129212D01*
X10107197Y-16119688D01*
X10107197Y-16138736D01*
X10240530Y-15938736D02*
X10259578Y-15938736D01*
X10278626Y-15948260D01*
X10288150Y-15957784D01*
X10297673Y-15976831D01*
X10307197Y-16014927D01*
X10307197Y-16062546D01*
X10297673Y-16100641D01*
X10288150Y-16119688D01*
X10278626Y-16129212D01*
X10259578Y-16138736D01*
X10240530Y-16138736D01*
X10221483Y-16129212D01*
X10211959Y-16119688D01*
X10202435Y-16100641D01*
X10192911Y-16062546D01*
X10192911Y-16014927D01*
X10202435Y-15976831D01*
X10211959Y-15957784D01*
X10221483Y-15948260D01*
X10240530Y-15938736D01*
X10373864Y-15938736D02*
X10497673Y-15938736D01*
X10431007Y-16014927D01*
X10459578Y-16014927D01*
X10478626Y-16024450D01*
X10488150Y-16033974D01*
X10497673Y-16053022D01*
X10497673Y-16100641D01*
X10488150Y-16119688D01*
X10478626Y-16129212D01*
X10459578Y-16138736D01*
X10402435Y-16138736D01*
X10383388Y-16129212D01*
X10373864Y-16119688D01*
X10564340Y-15938736D02*
X10697673Y-15938736D01*
X10611959Y-16138736D01*
X10859578Y-16005403D02*
X10859578Y-16138736D01*
X10811959Y-15929212D02*
X10764340Y-16072069D01*
X10888150Y-16072069D01*
X10954816Y-15938736D02*
X10954816Y-15976831D01*
X11031007Y-15938736D02*
X11031007Y-15976831D01*
X11326245Y-16214927D02*
X11316721Y-16205403D01*
X11297673Y-16176831D01*
X11288149Y-16157784D01*
X11278626Y-16129212D01*
X11269102Y-16081593D01*
X11269102Y-16043498D01*
X11278626Y-15995879D01*
X11288149Y-15967308D01*
X11297673Y-15948260D01*
X11316721Y-15919688D01*
X11326245Y-15910165D01*
X11507197Y-16138736D02*
X11392911Y-16138736D01*
X11450054Y-16138736D02*
X11450054Y-15938736D01*
X11431007Y-15967308D01*
X11411959Y-15986355D01*
X11392911Y-15995879D01*
X11583388Y-15957784D02*
X11592911Y-15948260D01*
X11611959Y-15938736D01*
X11659578Y-15938736D01*
X11678626Y-15948260D01*
X11688149Y-15957784D01*
X11697673Y-15976831D01*
X11697673Y-15995879D01*
X11688149Y-16024450D01*
X11573864Y-16138736D01*
X11697673Y-16138736D01*
X11935768Y-16138736D02*
X11935768Y-15938736D01*
X12021483Y-16138736D02*
X12021483Y-16033974D01*
X12011959Y-16014927D01*
X11992911Y-16005403D01*
X11964340Y-16005403D01*
X11945292Y-16014927D01*
X11935768Y-16024450D01*
X12145292Y-16138736D02*
X12126245Y-16129212D01*
X12116721Y-16119688D01*
X12107197Y-16100641D01*
X12107197Y-16043498D01*
X12116721Y-16024450D01*
X12126245Y-16014927D01*
X12145292Y-16005403D01*
X12173864Y-16005403D01*
X12192911Y-16014927D01*
X12202435Y-16024450D01*
X12211959Y-16043498D01*
X12211959Y-16100641D01*
X12202435Y-16119688D01*
X12192911Y-16129212D01*
X12173864Y-16138736D01*
X12145292Y-16138736D01*
X12326245Y-16138736D02*
X12307197Y-16129212D01*
X12297673Y-16110165D01*
X12297673Y-15938736D01*
X12478626Y-16129212D02*
X12459578Y-16138736D01*
X12421483Y-16138736D01*
X12402435Y-16129212D01*
X12392911Y-16110165D01*
X12392911Y-16033974D01*
X12402435Y-16014927D01*
X12421483Y-16005403D01*
X12459578Y-16005403D01*
X12478626Y-16014927D01*
X12488149Y-16033974D01*
X12488149Y-16053022D01*
X12392911Y-16072069D01*
X12564340Y-16129212D02*
X12583388Y-16138736D01*
X12621483Y-16138736D01*
X12640530Y-16129212D01*
X12650054Y-16110165D01*
X12650054Y-16100641D01*
X12640530Y-16081593D01*
X12621483Y-16072069D01*
X12592911Y-16072069D01*
X12573864Y-16062546D01*
X12564340Y-16043498D01*
X12564340Y-16033974D01*
X12573864Y-16014927D01*
X12592911Y-16005403D01*
X12621483Y-16005403D01*
X12640530Y-16014927D01*
X12716721Y-16214927D02*
X12726245Y-16205403D01*
X12745292Y-16176831D01*
X12754816Y-16157784D01*
X12764340Y-16129212D01*
X12773864Y-16081593D01*
X12773864Y-16043498D01*
X12764340Y-15995879D01*
X12754816Y-15967308D01*
X12745292Y-15948260D01*
X12726245Y-15919688D01*
X12716721Y-15910165D01*
D17*
X7654340Y-16262260D02*
X7754340Y-16362260D01*
X7754340Y-16262260D02*
X7654340Y-16362260D01*
X7704340Y-16262260D02*
X7704340Y-16362260D01*
X7654340Y-16312260D02*
X7754340Y-16312260D01*
D11*
X8116721Y-16402736D02*
X8002435Y-16402736D01*
X8059578Y-16402736D02*
X8059578Y-16202736D01*
X8040530Y-16231308D01*
X8021483Y-16250355D01*
X8002435Y-16259879D01*
X8202435Y-16383688D02*
X8211959Y-16393212D01*
X8202435Y-16402736D01*
X8192911Y-16393212D01*
X8202435Y-16383688D01*
X8202435Y-16402736D01*
X8335768Y-16202736D02*
X8354816Y-16202736D01*
X8373864Y-16212260D01*
X8383388Y-16221784D01*
X8392911Y-16240831D01*
X8402435Y-16278927D01*
X8402435Y-16326546D01*
X8392911Y-16364641D01*
X8383388Y-16383688D01*
X8373864Y-16393212D01*
X8354816Y-16402736D01*
X8335768Y-16402736D01*
X8316721Y-16393212D01*
X8307197Y-16383688D01*
X8297673Y-16364641D01*
X8288149Y-16326546D01*
X8288149Y-16278927D01*
X8297673Y-16240831D01*
X8307197Y-16221784D01*
X8316721Y-16212260D01*
X8335768Y-16202736D01*
X8526245Y-16202736D02*
X8545292Y-16202736D01*
X8564340Y-16212260D01*
X8573864Y-16221784D01*
X8583388Y-16240831D01*
X8592911Y-16278927D01*
X8592911Y-16326546D01*
X8583388Y-16364641D01*
X8573864Y-16383688D01*
X8564340Y-16393212D01*
X8545292Y-16402736D01*
X8526245Y-16402736D01*
X8507197Y-16393212D01*
X8497673Y-16383688D01*
X8488150Y-16364641D01*
X8478626Y-16326546D01*
X8478626Y-16278927D01*
X8488150Y-16240831D01*
X8497673Y-16221784D01*
X8507197Y-16212260D01*
X8526245Y-16202736D01*
X8716721Y-16202736D02*
X8735769Y-16202736D01*
X8754816Y-16212260D01*
X8764340Y-16221784D01*
X8773864Y-16240831D01*
X8783388Y-16278927D01*
X8783388Y-16326546D01*
X8773864Y-16364641D01*
X8764340Y-16383688D01*
X8754816Y-16393212D01*
X8735769Y-16402736D01*
X8716721Y-16402736D01*
X8697673Y-16393212D01*
X8688150Y-16383688D01*
X8678626Y-16364641D01*
X8669102Y-16326546D01*
X8669102Y-16278927D01*
X8678626Y-16240831D01*
X8688150Y-16221784D01*
X8697673Y-16212260D01*
X8716721Y-16202736D01*
X8869102Y-16402736D02*
X8869102Y-16269403D01*
X8869102Y-16288450D02*
X8878626Y-16278927D01*
X8897673Y-16269403D01*
X8926245Y-16269403D01*
X8945292Y-16278927D01*
X8954816Y-16297974D01*
X8954816Y-16402736D01*
X8954816Y-16297974D02*
X8964340Y-16278927D01*
X8983388Y-16269403D01*
X9011959Y-16269403D01*
X9031007Y-16278927D01*
X9040530Y-16297974D01*
X9040530Y-16402736D01*
X9135769Y-16402736D02*
X9135769Y-16269403D01*
X9135769Y-16288450D02*
X9145292Y-16278927D01*
X9164340Y-16269403D01*
X9192911Y-16269403D01*
X9211959Y-16278927D01*
X9221483Y-16297974D01*
X9221483Y-16402736D01*
X9221483Y-16297974D02*
X9231007Y-16278927D01*
X9250054Y-16269403D01*
X9278626Y-16269403D01*
X9297673Y-16278927D01*
X9307197Y-16297974D01*
X9307197Y-16402736D01*
X9697673Y-16193212D02*
X9526245Y-16450355D01*
X9954816Y-16202736D02*
X9973864Y-16202736D01*
X9992911Y-16212260D01*
X10002435Y-16221784D01*
X10011959Y-16240831D01*
X10021483Y-16278927D01*
X10021483Y-16326546D01*
X10011959Y-16364641D01*
X10002435Y-16383688D01*
X9992911Y-16393212D01*
X9973864Y-16402736D01*
X9954816Y-16402736D01*
X9935769Y-16393212D01*
X9926245Y-16383688D01*
X9916721Y-16364641D01*
X9907197Y-16326546D01*
X9907197Y-16278927D01*
X9916721Y-16240831D01*
X9926245Y-16221784D01*
X9935769Y-16212260D01*
X9954816Y-16202736D01*
X10107197Y-16383688D02*
X10116721Y-16393212D01*
X10107197Y-16402736D01*
X10097673Y-16393212D01*
X10107197Y-16383688D01*
X10107197Y-16402736D01*
X10240530Y-16202736D02*
X10259578Y-16202736D01*
X10278626Y-16212260D01*
X10288150Y-16221784D01*
X10297673Y-16240831D01*
X10307197Y-16278927D01*
X10307197Y-16326546D01*
X10297673Y-16364641D01*
X10288150Y-16383688D01*
X10278626Y-16393212D01*
X10259578Y-16402736D01*
X10240530Y-16402736D01*
X10221483Y-16393212D01*
X10211959Y-16383688D01*
X10202435Y-16364641D01*
X10192911Y-16326546D01*
X10192911Y-16278927D01*
X10202435Y-16240831D01*
X10211959Y-16221784D01*
X10221483Y-16212260D01*
X10240530Y-16202736D01*
X10373864Y-16202736D02*
X10497673Y-16202736D01*
X10431007Y-16278927D01*
X10459578Y-16278927D01*
X10478626Y-16288450D01*
X10488150Y-16297974D01*
X10497673Y-16317022D01*
X10497673Y-16364641D01*
X10488150Y-16383688D01*
X10478626Y-16393212D01*
X10459578Y-16402736D01*
X10402435Y-16402736D01*
X10383388Y-16393212D01*
X10373864Y-16383688D01*
X10592911Y-16402736D02*
X10631007Y-16402736D01*
X10650054Y-16393212D01*
X10659578Y-16383688D01*
X10678626Y-16355117D01*
X10688150Y-16317022D01*
X10688150Y-16240831D01*
X10678626Y-16221784D01*
X10669102Y-16212260D01*
X10650054Y-16202736D01*
X10611959Y-16202736D01*
X10592911Y-16212260D01*
X10583388Y-16221784D01*
X10573864Y-16240831D01*
X10573864Y-16288450D01*
X10583388Y-16307498D01*
X10592911Y-16317022D01*
X10611959Y-16326546D01*
X10650054Y-16326546D01*
X10669102Y-16317022D01*
X10678626Y-16307498D01*
X10688150Y-16288450D01*
X10859578Y-16269403D02*
X10859578Y-16402736D01*
X10811959Y-16193212D02*
X10764340Y-16336069D01*
X10888150Y-16336069D01*
X10954816Y-16202736D02*
X10954816Y-16240831D01*
X11031007Y-16202736D02*
X11031007Y-16240831D01*
X11326245Y-16478927D02*
X11316721Y-16469403D01*
X11297673Y-16440831D01*
X11288149Y-16421784D01*
X11278626Y-16393212D01*
X11269102Y-16345593D01*
X11269102Y-16307498D01*
X11278626Y-16259879D01*
X11288149Y-16231308D01*
X11297673Y-16212260D01*
X11316721Y-16183688D01*
X11326245Y-16174165D01*
X11392911Y-16221784D02*
X11402435Y-16212260D01*
X11421483Y-16202736D01*
X11469102Y-16202736D01*
X11488149Y-16212260D01*
X11497673Y-16221784D01*
X11507197Y-16240831D01*
X11507197Y-16259879D01*
X11497673Y-16288450D01*
X11383388Y-16402736D01*
X11507197Y-16402736D01*
X11697673Y-16402736D02*
X11583388Y-16402736D01*
X11640530Y-16402736D02*
X11640530Y-16202736D01*
X11621483Y-16231308D01*
X11602435Y-16250355D01*
X11583388Y-16259879D01*
X11935768Y-16402736D02*
X11935768Y-16202736D01*
X12021483Y-16402736D02*
X12021483Y-16297974D01*
X12011959Y-16278927D01*
X11992911Y-16269403D01*
X11964340Y-16269403D01*
X11945292Y-16278927D01*
X11935768Y-16288450D01*
X12145292Y-16402736D02*
X12126245Y-16393212D01*
X12116721Y-16383688D01*
X12107197Y-16364641D01*
X12107197Y-16307498D01*
X12116721Y-16288450D01*
X12126245Y-16278927D01*
X12145292Y-16269403D01*
X12173864Y-16269403D01*
X12192911Y-16278927D01*
X12202435Y-16288450D01*
X12211959Y-16307498D01*
X12211959Y-16364641D01*
X12202435Y-16383688D01*
X12192911Y-16393212D01*
X12173864Y-16402736D01*
X12145292Y-16402736D01*
X12326245Y-16402736D02*
X12307197Y-16393212D01*
X12297673Y-16374165D01*
X12297673Y-16202736D01*
X12478626Y-16393212D02*
X12459578Y-16402736D01*
X12421483Y-16402736D01*
X12402435Y-16393212D01*
X12392911Y-16374165D01*
X12392911Y-16297974D01*
X12402435Y-16278927D01*
X12421483Y-16269403D01*
X12459578Y-16269403D01*
X12478626Y-16278927D01*
X12488149Y-16297974D01*
X12488149Y-16317022D01*
X12392911Y-16336069D01*
X12564340Y-16393212D02*
X12583388Y-16402736D01*
X12621483Y-16402736D01*
X12640530Y-16393212D01*
X12650054Y-16374165D01*
X12650054Y-16364641D01*
X12640530Y-16345593D01*
X12621483Y-16336069D01*
X12592911Y-16336069D01*
X12573864Y-16326546D01*
X12564340Y-16307498D01*
X12564340Y-16297974D01*
X12573864Y-16278927D01*
X12592911Y-16269403D01*
X12621483Y-16269403D01*
X12640530Y-16278927D01*
X12716721Y-16478927D02*
X12726245Y-16469403D01*
X12745292Y-16440831D01*
X12754816Y-16421784D01*
X12764340Y-16393212D01*
X12773864Y-16345593D01*
X12773864Y-16307498D01*
X12764340Y-16259879D01*
X12754816Y-16231308D01*
X12745292Y-16212260D01*
X12726245Y-16183688D01*
X12716721Y-16174165D01*
M02*
